JetBrains Mono-Regular.ufo
<glyph name="exclam" format="2">
	<advance width="600"/>
	<unicode hex="0021"/>
	<outline>
		<contour>
			<point x="268" y="215" type="line"/>
			<point x="332" y="215" type="line"/>
			<point x="353" y="610" type="line"/>
			<point x="353" y="730" type="line"/>
			<point x="247" y="730" type="line"/>
			<point x="247" y="610" type="line"/>
		</contour>
		<contour>
			<point x="285" y="-5" type="curve" smooth="yes"/>
			<point x="315" y="-5" type="line" smooth="yes"/>
			<point x="350" y="-5"/>
			<point x="375" y="21"/>
			<point x="375" y="56" type="curve" smooth="yes"/>
			<point x="375" y="90"/>
			<point x="353" y="115"/>
			<point x="315" y="115" type="curve" smooth="yes"/>
			<point x="285" y="115" type="line" smooth="yes"/>
			<point x="250" y="115"/>
			<point x="225" y="90"/>
			<point x="225" y="55" type="curve" smooth="yes"/>
			<point x="225" y="20"/>
			<point x="250" y="-5"/>
		</contour>
	</outline>
</glyph>
<glyph name="quotedbl" format="2">
	<advance width="600"/>
	<unicode hex="0022"/>
	<outline>
		<contour>
			<point x="365" y="430" type="line"/>
			<point x="439" y="430" type="line"/>
			<point x="450" y="580" type="line"/>
			<point x="450" y="730" type="line"/>
			<point x="353" y="730" type="line"/>
			<point x="353" y="580" type="line"/>
		</contour>
		<contour>
			<point x="162" y="430" type="line"/>
			<point x="236" y="430" type="line"/>
			<point x="247" y="580" type="line"/>
			<point x="247" y="730" type="line"/>
			<point x="150" y="730" type="line"/>
			<point x="150" y="580" type="line"/>
		</contour>
	</outline>
</glyph>
<glyph name="numbersign" format="2">
	<advance width="600"/>
	<unicode hex="0023"/>
	<outline>
		<contour>
			<point x="83" y="0" type="line"/>
			<point x="153" y="0" type="line"/>
			<point x="190" y="200" type="line"/>
			<point x="350" y="200" type="line"/>
			<point x="313" y="0" type="line"/>
			<point x="383" y="0" type="line"/>
			<point x="420" y="200" type="line"/>
			<point x="530" y="200" type="line"/>
			<point x="530" y="265" type="line"/>
			<point x="432" y="265" type="line"/>
			<point x="468" y="465" type="line"/>
			<point x="565" y="465" type="line"/>
			<point x="565" y="530" type="line"/>
			<point x="480" y="530" type="line"/>
			<point x="517" y="730" type="line"/>
			<point x="447" y="730" type="line"/>
			<point x="410" y="530" type="line"/>
			<point x="250" y="530" type="line"/>
			<point x="287" y="730" type="line"/>
			<point x="217" y="730" type="line"/>
			<point x="180" y="530" type="line"/>
			<point x="70" y="530" type="line"/>
			<point x="70" y="465" type="line"/>
			<point x="168" y="465" type="line"/>
			<point x="132" y="265" type="line"/>
			<point x="35" y="265" type="line"/>
			<point x="35" y="200" type="line"/>
			<point x="120" y="200" type="line"/>
		</contour>
		<contour>
			<point x="202" y="265" type="line"/>
			<point x="238" y="465" type="line"/>
			<point x="398" y="465" type="line"/>
			<point x="362" y="265" type="line"/>
		</contour>
	</outline>
</glyph>
<glyph name="dollar" format="2">
	<advance width="600"/>
	<unicode hex="0024"/>
	<outline>
		<contour>
			<point x="304" y="-10" type="curve" smooth="yes"/>
			<point x="438" y="-10"/>
			<point x="528" y="70"/>
			<point x="528" y="190" type="curve" smooth="yes"/>
			<point x="528" y="289"/>
			<point x="472" y="366"/>
			<point x="375" y="397" type="curve" smooth="yes"/>
			<point x="275" y="429" type="line" smooth="yes"/>
			<point x="215" y="448"/>
			<point x="182" y="494"/>
			<point x="182" y="554" type="curve" smooth="yes"/>
			<point x="182" y="620"/>
			<point x="227" y="661"/>
			<point x="305" y="661" type="curve" smooth="yes"/>
			<point x="384" y="661"/>
			<point x="429" y="617"/>
			<point x="429" y="545" type="curve"/>
			<point x="519" y="545" type="line"/>
			<point x="517" y="663"/>
			<point x="434" y="741"/>
			<point x="306" y="741" type="curve" smooth="yes"/>
			<point x="176" y="741"/>
			<point x="92" y="663"/>
			<point x="92" y="546" type="curve" smooth="yes"/>
			<point x="92" y="448"/>
			<point x="148" y="373"/>
			<point x="248" y="342" type="curve" smooth="yes"/>
			<point x="347" y="311" type="line" smooth="yes"/>
			<point x="405" y="293"/>
			<point x="438" y="246"/>
			<point x="438" y="188" type="curve" smooth="yes"/>
			<point x="438" y="115"/>
			<point x="388" y="70"/>
			<point x="304" y="70" type="curve" smooth="yes"/>
			<point x="214" y="70"/>
			<point x="162" y="116"/>
			<point x="162" y="190" type="curve"/>
			<point x="72" y="190" type="line"/>
			<point x="74" y="66"/>
			<point x="161" y="-10"/>
		</contour>
		<contour>
			<point x="275" y="-140" type="line"/>
			<point x="335" y="-140" type="line"/>
			<point x="335" y="340" type="line"/>
			<point x="275" y="340" type="line"/>
		</contour>
		<contour>
			<point x="275" y="370" type="line"/>
			<point x="335" y="370" type="line"/>
			<point x="335" y="850" type="line"/>
			<point x="275" y="850" type="line"/>
		</contour>
	</outline>
</glyph>
<glyph name="percent" format="2">
	<advance width="600"/>
	<unicode hex="0025"/>
	<outline>
		<contour>
			<point x="14" y="0" type="line"/>
			<point x="88" y="0" type="line"/>
			<point x="586" y="730" type="line"/>
			<point x="512" y="730" type="line"/>
		</contour>
		<contour>
			<point x="445" y="-5" type="curve" smooth="yes"/>
			<point x="529" y="-5"/>
			<point x="584" y="46"/>
			<point x="584" y="130" type="curve" smooth="yes"/>
			<point x="584" y="195" type="line" smooth="yes"/>
			<point x="584" y="279"/>
			<point x="529" y="330"/>
			<point x="445" y="330" type="curve" smooth="yes"/>
			<point x="361" y="330"/>
			<point x="306" y="279"/>
			<point x="306" y="195" type="curve" smooth="yes"/>
			<point x="306" y="130" type="line" smooth="yes"/>
			<point x="306" y="46"/>
			<point x="361" y="-5"/>
		</contour>
		<contour>
			<point x="445" y="64" type="curve" smooth="yes"/>
			<point x="401" y="64"/>
			<point x="380" y="85"/>
			<point x="380" y="130" type="curve" smooth="yes"/>
			<point x="380" y="195" type="line" smooth="yes"/>
			<point x="380" y="240"/>
			<point x="401" y="262"/>
			<point x="445" y="262" type="curve" smooth="yes"/>
			<point x="489" y="262"/>
			<point x="510" y="240"/>
			<point x="510" y="195" type="curve" smooth="yes"/>
			<point x="510" y="130" type="line" smooth="yes"/>
			<point x="510" y="85"/>
			<point x="489" y="64"/>
		</contour>
		<contour>
			<point x="155" y="400" type="curve" smooth="yes"/>
			<point x="239" y="400"/>
			<point x="294" y="451"/>
			<point x="294" y="535" type="curve" smooth="yes"/>
			<point x="294" y="600" type="line" smooth="yes"/>
			<point x="294" y="684"/>
			<point x="239" y="735"/>
			<point x="155" y="735" type="curve" smooth="yes"/>
			<point x="71" y="735"/>
			<point x="16" y="684"/>
			<point x="16" y="600" type="curve" smooth="yes"/>
			<point x="16" y="535" type="line" smooth="yes"/>
			<point x="16" y="451"/>
			<point x="71" y="400"/>
		</contour>
		<contour>
			<point x="155" y="468" type="curve" smooth="yes"/>
			<point x="112" y="468"/>
			<point x="90" y="490"/>
			<point x="90" y="535" type="curve" smooth="yes"/>
			<point x="90" y="600" type="line" smooth="yes"/>
			<point x="90" y="645"/>
			<point x="112" y="667"/>
			<point x="155" y="667" type="curve" smooth="yes"/>
			<point x="198" y="667"/>
			<point x="220" y="645"/>
			<point x="220" y="600" type="curve" smooth="yes"/>
			<point x="220" y="535" type="line" smooth="yes"/>
			<point x="220" y="490"/>
			<point x="198" y="468"/>
		</contour>
	</outline>
</glyph>
<glyph name="ampersand" format="2">
	<advance width="600"/>
	<unicode hex="0026"/>
	<outline>
		<contour>
			<point x="154" y="431" type="curve" smooth="yes"/>
			<point x="467" y="0" type="line"/>
			<point x="566" y="0" type="line"/>
			<point x="225" y="470" type="line" smooth="yes"/>
			<point x="200" y="504"/>
			<point x="185" y="546"/>
			<point x="185" y="579" type="curve" smooth="yes"/>
			<point x="185" y="630"/>
			<point x="220" y="662"/>
			<point x="275" y="662" type="curve" smooth="yes"/>
			<point x="336" y="662"/>
			<point x="374" y="627"/>
			<point x="374" y="569" type="curve"/>
			<point x="464" y="569" type="line"/>
			<point x="464" y="674"/>
			<point x="391" y="740"/>
			<point x="275" y="740" type="curve" smooth="yes"/>
			<point x="167" y="740"/>
			<point x="95" y="677"/>
			<point x="95" y="581" type="curve" smooth="yes"/>
			<point x="95" y="533"/>
			<point x="113" y="487"/>
		</contour>
		<contour>
			<point x="230" y="-10" type="curve" smooth="yes"/>
			<point x="309" y="-10"/>
			<point x="382" y="41"/>
			<point x="433" y="132" type="curve"/>
			<point x="562" y="360" type="line"/>
			<point x="468" y="360" type="line"/>
			<point x="354" y="155" type="line" smooth="yes"/>
			<point x="325" y="102"/>
			<point x="280" y="70"/>
			<point x="235" y="70" type="curve" smooth="yes"/>
			<point x="178" y="70"/>
			<point x="145" y="101"/>
			<point x="145" y="155" type="curve" smooth="yes"/>
			<point x="145" y="280" type="line" smooth="yes"/>
			<point x="145" y="332"/>
			<point x="175" y="360"/>
			<point x="231" y="360" type="curve" smooth="yes"/>
			<point x="245" y="360" type="line"/>
			<point x="245" y="430" type="line"/>
			<point x="230" y="430" type="line" smooth="yes"/>
			<point x="120" y="430"/>
			<point x="55" y="371"/>
			<point x="55" y="280" type="curve" smooth="yes"/>
			<point x="55" y="155" type="line" smooth="yes"/>
			<point x="55" y="52"/>
			<point x="121" y="-10"/>
		</contour>
	</outline>
</glyph>
<glyph name="quotesingle" format="2">
	<advance width="600"/>
	<unicode hex="0027"/>
	<outline>
		<contour>
			<point x="258" y="430" type="line"/>
			<point x="332" y="430" type="line"/>
			<point x="343" y="580" type="line"/>
			<point x="343" y="730" type="line"/>
			<point x="246" y="730" type="line"/>
			<point x="246" y="580" type="line"/>
		</contour>
	</outline>
</glyph>
<glyph name="parenleft" format="2">
	<advance width="600"/>
	<unicode hex="0028"/>
	<outline>
		<contour>
			<point x="485" y="-125" type="curve"/>
			<point x="485" y="-36" type="line"/>
			<point x="356" y="-6"/>
			<point x="275" y="110"/>
			<point x="275" y="265" type="curve" smooth="yes"/>
			<point x="275" y="455" type="line" smooth="yes"/>
			<point x="275" y="612"/>
			<point x="357" y="730"/>
			<point x="485" y="760" type="curve"/>
			<point x="485" y="845" type="line"/>
			<point x="300" y="799"/>
			<point x="185" y="650"/>
			<point x="185" y="455" type="curve" smooth="yes"/>
			<point x="185" y="265" type="line" smooth="yes"/>
			<point x="185" y="66"/>
			<point x="296" y="-78"/>
		</contour>
	</outline>
</glyph>
<glyph name="asterisk" format="2">
	<advance width="600"/>
	<unicode hex="002A"/>
	<outline>
		<contour>
			<point x="181" y="94" type="line"/>
			<point x="235" y="172" type="line" smooth="yes"/>
			<point x="261" y="208"/>
			<point x="283" y="264"/>
			<point x="296" y="300" type="curve"/>
			<point x="303" y="300" type="line"/>
			<point x="315" y="264"/>
			<point x="338" y="208"/>
			<point x="363" y="172" type="curve" smooth="yes"/>
			<point x="418" y="94" type="line"/>
			<point x="490" y="144" type="line"/>
			<point x="435" y="222" type="line" smooth="yes"/>
			<point x="410" y="258"/>
			<point x="366" y="298"/>
			<point x="336" y="322" type="curve"/>
			<point x="340" y="330" type="line"/>
			<point x="378" y="333"/>
			<point x="435" y="340"/>
			<point x="476" y="355" type="curve" smooth="yes"/>
			<point x="565" y="387" type="line"/>
			<point x="535" y="470" type="line"/>
			<point x="446" y="438" type="line" smooth="yes"/>
			<point x="404" y="423"/>
			<point x="354" y="390"/>
			<point x="323" y="367" type="curve"/>
			<point x="318" y="371" type="line"/>
			<point x="329" y="408"/>
			<point x="344" y="469"/>
			<point x="344" y="515" type="curve" smooth="yes"/>
			<point x="344" y="610" type="line"/>
			<point x="256" y="610" type="line"/>
			<point x="256" y="515" type="line" smooth="yes"/>
			<point x="256" y="469"/>
			<point x="271" y="408"/>
			<point x="281" y="371" type="curve"/>
			<point x="276" y="367" type="line"/>
			<point x="245" y="390"/>
			<point x="195" y="423"/>
			<point x="153" y="438" type="curve" smooth="yes"/>
			<point x="65" y="470" type="line"/>
			<point x="35" y="387" type="line"/>
			<point x="123" y="355" type="line" smooth="yes"/>
			<point x="164" y="340"/>
			<point x="222" y="333"/>
			<point x="260" y="330" type="curve"/>
			<point x="263" y="323" type="line"/>
			<point x="234" y="299"/>
			<point x="189" y="259"/>
			<point x="163" y="222" type="curve" smooth="yes"/>
			<point x="109" y="144" type="line"/>
		</contour>
	</outline>
</glyph>
<glyph name="plus" format="2">
	<advance width="600"/>
	<unicode hex="002B"/>
	<outline>
		<contour>
			<point x="256" y="95" type="line"/>
			<point x="344" y="95" type="line"/>
			<point x="344" y="290" type="line"/>
			<point x="535" y="290" type="line"/>
			<point x="535" y="370" type="line"/>
			<point x="344" y="370" type="line"/>
			<point x="344" y="565" type="line"/>
			<point x="256" y="565" type="line"/>
			<point x="256" y="370" type="line"/>
			<point x="65" y="370" type="line"/>
			<point x="65" y="290" type="line"/>
			<point x="256" y="290" type="line"/>
		</contour>
	</outline>
</glyph>
<glyph name="comma" format="2">
	<advance width="600"/>
	<unicode hex="002C"/>
	<outline>
		<contour>
			<point x="165" y="-160" type="line"/>
			<point x="245" y="-160" type="line"/>
			<point x="375" y="151" type="line"/>
			<point x="245" y="151" type="line"/>
		</contour>
	</outline>
</glyph>
<glyph name="hyphen" format="2">
	<advance width="600"/>
	<unicode hex="002D"/>
	<outline>
		<contour>
			<point x="85" y="290" type="line"/>
			<point x="515" y="290" type="line"/>
			<point x="515" y="370" type="line"/>
			<point x="85" y="370" type="line"/>
		</contour>
	</outline>
</glyph>
<glyph name="period" format="2">
	<advance width="600"/>
	<unicode hex="002E"/>
	<outline>
		<contour>
			<point x="290" y="-10" type="curve" smooth="yes"/>
			<point x="310" y="-10" type="line" smooth="yes"/>
			<point x="353" y="-10"/>
			<point x="385" y="24"/>
			<point x="385" y="70" type="curve" smooth="yes"/>
			<point x="385" y="116"/>
			<point x="353" y="150"/>
			<point x="310" y="150" type="curve" smooth="yes"/>
			<point x="290" y="150" type="line" smooth="yes"/>
			<point x="247" y="150"/>
			<point x="215" y="116"/>
			<point x="215" y="70" type="curve" smooth="yes"/>
			<point x="215" y="24"/>
			<point x="247" y="-10"/>
		</contour>
	</outline>
</glyph>
<glyph name="slash" format="2">
	<advance width="600"/>
	<unicode hex="002F"/>
	<outline>
		<contour>
			<point x="75" y="-110" type="line"/>
			<point x="170" y="-110" type="line"/>
			<point x="525" y="830" type="line"/>
			<point x="430" y="830" type="line"/>
		</contour>
	</outline>
</glyph>
<glyph name="zero" format="2">
	<advance width="600"/>
	<unicode hex="0030"/>
	<outline>
		<contour>
			<point x="300" y="-10" type="curve" smooth="yes"/>
			<point x="434" y="-10"/>
			<point x="520" y="75"/>
			<point x="520" y="205" type="curve" smooth="yes"/>
			<point x="520" y="525" type="line" smooth="yes"/>
			<point x="520" y="656"/>
			<point x="435" y="740"/>
			<point x="300" y="740" type="curve" smooth="yes"/>
			<point x="165" y="740"/>
			<point x="80" y="656"/>
			<point x="80" y="525" type="curve" smooth="yes"/>
			<point x="80" y="205" type="line" smooth="yes"/>
			<point x="80" y="74"/>
			<point x="165" y="-10"/>
		</contour>
		<contour>
			<point x="300" y="67" type="curve" smooth="yes"/>
			<point x="220" y="67"/>
			<point x="167" y="124"/>
			<point x="167" y="205" type="curve" smooth="yes"/>
			<point x="167" y="525" type="line" smooth="yes"/>
			<point x="167" y="606"/>
			<point x="220" y="663"/>
			<point x="300" y="663" type="curve" smooth="yes"/>
			<point x="380" y="663"/>
			<point x="433" y="606"/>
			<point x="433" y="525" type="curve" smooth="yes"/>
			<point x="433" y="205" type="line" smooth="yes"/>
			<point x="433" y="124"/>
			<point x="380" y="67"/>
		</contour>
		<contour>
			<point x="300" y="305" type="curve" smooth="yes"/>
			<point x="330" y="305"/>
			<point x="350" y="327"/>
			<point x="350" y="360" type="curve" smooth="yes"/>
			<point x="350" y="375" type="line" smooth="yes"/>
			<point x="350" y="408"/>
			<point x="330" y="430"/>
			<point x="300" y="430" type="curve" smooth="yes"/>
			<point x="270" y="430"/>
			<point x="250" y="408"/>
			<point x="250" y="375" type="curve" smooth="yes"/>
			<point x="250" y="360" type="line" smooth="yes"/>
			<point x="250" y="327"/>
			<point x="270" y="305"/>
		</contour>
	</outline>
</glyph>
<glyph name="one" format="2">
	<advance width="600"/>
	<unicode hex="0031"/>
	<outline>
		<contour>
			<point x="90" y="0" type="line"/>
			<point x="540" y="0" type="line"/>
			<point x="540" y="82" type="line"/>
			<point x="378" y="82" type="line"/>
			<point x="378" y="730" type="line"/>
			<point x="255" y="730" type="line"/>
			<point x="90" y="607" type="line"/>
			<point x="90" y="507" type="line"/>
			<point x="288" y="655" type="line"/>
			<point x="288" y="82" type="line"/>
			<point x="90" y="82" type="line"/>
		</contour>
	</outline>
</glyph>
<glyph name="two" format="2">
	<advance width="600"/>
	<unicode hex="0032"/>
	<outline>
		<contour>
			<point x="92" y="0" type="line"/>
			<point x="526" y="0" type="line"/>
			<point x="526" y="82" type="line"/>
			<point x="193" y="82" type="line"/>
			<point x="373" y="268" type="line" smooth="yes"/>
			<point x="473" y="372"/>
			<point x="514" y="447"/>
			<point x="514" y="530" type="curve" smooth="yes"/>
			<point x="514" y="659"/>
			<point x="431" y="740"/>
			<point x="299" y="740" type="curve" smooth="yes"/>
			<point x="164" y="740"/>
			<point x="76" y="657"/>
			<point x="72" y="525" type="curve"/>
			<point x="162" y="525" type="line"/>
			<point x="162" y="609"/>
			<point x="214" y="660"/>
			<point x="299" y="660" type="curve" smooth="yes"/>
			<point x="376" y="660"/>
			<point x="424" y="610"/>
			<point x="424" y="529" type="curve" smooth="yes"/>
			<point x="424" y="470"/>
			<point x="391" y="410"/>
			<point x="315" y="329" type="curve" smooth="yes"/>
			<point x="92" y="92" type="line"/>
		</contour>
	</outline>
</glyph>
<glyph name="three" format="2">
	<advance width="600"/>
	<unicode hex="0033"/>
	<outline>
		<contour>
			<point x="289" y="-10" type="curve" smooth="yes"/>
			<point x="421" y="-10"/>
			<point x="510" y="74"/>
			<point x="510" y="200" type="curve" smooth="yes"/>
			<point x="510" y="252" type="line" smooth="yes"/>
			<point x="510" y="380"/>
			<point x="425" y="462"/>
			<point x="292" y="462" type="curve"/>
			<point x="292" y="451" type="line"/>
			<point x="487" y="640" type="line"/>
			<point x="487" y="730" type="line"/>
			<point x="100" y="730" type="line"/>
			<point x="100" y="648" type="line"/>
			<point x="396" y="648" type="line"/>
			<point x="215" y="472" type="line"/>
			<point x="215" y="382" type="line"/>
			<point x="290" y="382" type="line" smooth="yes"/>
			<point x="372" y="382"/>
			<point x="420" y="334"/>
			<point x="420" y="252" type="curve" smooth="yes"/>
			<point x="420" y="200" type="line" smooth="yes"/>
			<point x="420" y="122"/>
			<point x="372" y="70"/>
			<point x="290" y="70" type="curve" smooth="yes"/>
			<point x="209" y="70"/>
			<point x="160" y="119"/>
			<point x="160" y="200" type="curve"/>
			<point x="70" y="200" type="line"/>
			<point x="70" y="74"/>
			<point x="157" y="-10"/>
		</contour>
	</outline>
</glyph>
<glyph name="four" format="2">
	<advance width="600"/>
	<unicode hex="0034"/>
	<outline>
		<contour>
			<point x="410" y="0" type="line"/>
			<point x="500" y="0" type="line"/>
			<point x="500" y="420" type="line"/>
			<point x="410" y="420" type="line"/>
			<point x="410" y="242" type="line"/>
			<point x="170" y="242" type="line"/>
			<point x="170" y="282" type="line"/>
			<point x="467" y="730" type="line"/>
			<point x="369" y="730" type="line"/>
			<point x="80" y="301" type="line"/>
			<point x="80" y="160" type="line"/>
			<point x="410" y="160" type="line"/>
		</contour>
	</outline>
</glyph>
<glyph name="five" format="2">
	<advance width="600"/>
	<unicode hex="0035"/>
	<outline>
		<contour>
			<point x="298" y="-10" type="curve" smooth="yes"/>
			<point x="435" y="-10"/>
			<point x="515" y="71"/>
			<point x="515" y="200" type="curve" smooth="yes"/>
			<point x="515" y="271" type="line" smooth="yes"/>
			<point x="515" y="403"/>
			<point x="445" y="481"/>
			<point x="327" y="480" type="curve" smooth="yes"/>
			<point x="243" y="480"/>
			<point x="189" y="441"/>
			<point x="189" y="379" type="curve"/>
			<point x="217" y="405" type="line"/>
			<point x="189" y="405" type="line"/>
			<point x="192" y="648" type="line"/>
			<point x="489" y="648" type="line"/>
			<point x="489" y="730" type="line"/>
			<point x="105" y="730" type="line"/>
			<point x="100" y="326" type="line"/>
			<point x="190" y="326" type="line"/>
			<point x="207" y="371"/>
			<point x="248" y="401"/>
			<point x="300" y="401" type="curve" smooth="yes"/>
			<point x="383" y="401"/>
			<point x="425" y="354"/>
			<point x="425" y="271" type="curve" smooth="yes"/>
			<point x="425" y="200" type="line" smooth="yes"/>
			<point x="425" y="117"/>
			<point x="383" y="70"/>
			<point x="299" y="70" type="curve" smooth="yes"/>
			<point x="225" y="70"/>
			<point x="182" y="103"/>
			<point x="175" y="160" type="curve"/>
			<point x="85" y="160" type="line"/>
			<point x="98" y="56"/>
			<point x="179" y="-10"/>
		</contour>
	</outline>
</glyph>
<glyph name="six" format="2">
	<advance width="600"/>
	<unicode hex="0036"/>
	<outline>
		<contour>
			<point x="301" y="-10" type="curve" smooth="yes"/>
			<point x="440" y="-10"/>
			<point x="532" y="84"/>
			<point x="532" y="225" type="curve" smooth="yes"/>
			<point x="532" y="364"/>
			<point x="455" y="453"/>
			<point x="336" y="453" type="curve" smooth="yes"/>
			<point x="281" y="453"/>
			<point x="235" y="432"/>
			<point x="210" y="395" type="curve"/>
			<point x="206" y="398" type="line"/>
			<point x="413" y="730" type="line"/>
			<point x="313" y="730" type="line"/>
			<point x="130" y="435" type="line" smooth="yes"/>
			<point x="89" y="370"/>
			<point x="68" y="298"/>
			<point x="68" y="225" type="curve" smooth="yes"/>
			<point x="68" y="84"/>
			<point x="161" y="-10"/>
		</contour>
		<contour>
			<point x="300" y="70" type="curve" smooth="yes"/>
			<point x="215" y="70"/>
			<point x="158" y="132"/>
			<point x="158" y="225" type="curve" smooth="yes"/>
			<point x="158" y="318"/>
			<point x="215" y="380"/>
			<point x="300" y="380" type="curve" smooth="yes"/>
			<point x="385" y="380"/>
			<point x="442" y="318"/>
			<point x="442" y="225" type="curve" smooth="yes"/>
			<point x="442" y="132"/>
			<point x="385" y="70"/>
		</contour>
	</outline>
</glyph>
<glyph name="seven" format="2">
	<advance width="600"/>
	<unicode hex="0037"/>
	<outline>
		<contour>
			<point x="185" y="0" type="line"/>
			<point x="282" y="0" type="line"/>
			<point x="535" y="642" type="line"/>
			<point x="535" y="730" type="line"/>
			<point x="80" y="730" type="line"/>
			<point x="80" y="540" type="line"/>
			<point x="170" y="540" type="line"/>
			<point x="170" y="648" type="line"/>
			<point x="446" y="648" type="line"/>
		</contour>
	</outline>
</glyph>
<glyph name="eight" format="2">
	<advance width="600"/>
	<unicode hex="0038"/>
	<outline>
		<contour>
			<point x="300" y="-10" type="curve" smooth="yes"/>
			<point x="441" y="-10"/>
			<point x="530" y="71"/>
			<point x="530" y="198" type="curve" smooth="yes"/>
			<point x="530" y="307"/>
			<point x="460" y="389"/>
			<point x="365" y="389" type="curve"/>
			<point x="365" y="380" type="line"/>
			<point x="452" y="380"/>
			<point x="515" y="451"/>
			<point x="515" y="550" type="curve" smooth="yes"/>
			<point x="515" y="662"/>
			<point x="429" y="740"/>
			<point x="300" y="740" type="curve" smooth="yes"/>
			<point x="171" y="740"/>
			<point x="85" y="662"/>
			<point x="85" y="550" type="curve" smooth="yes"/>
			<point x="85" y="451"/>
			<point x="148" y="380"/>
			<point x="235" y="380" type="curve"/>
			<point x="235" y="389" type="line"/>
			<point x="140" y="389"/>
			<point x="70" y="306"/>
			<point x="70" y="195" type="curve" smooth="yes"/>
			<point x="70" y="69"/>
			<point x="159" y="-10"/>
		</contour>
		<contour>
			<point x="300" y="65" type="curve" smooth="yes"/>
			<point x="213" y="65"/>
			<point x="163" y="117"/>
			<point x="163" y="207" type="curve" smooth="yes"/>
			<point x="163" y="297"/>
			<point x="213" y="348"/>
			<point x="300" y="348" type="curve" smooth="yes"/>
			<point x="387" y="348"/>
			<point x="437" y="297"/>
			<point x="437" y="207" type="curve" smooth="yes"/>
			<point x="437" y="117"/>
			<point x="387" y="65"/>
		</contour>
		<contour>
			<point x="300" y="414" type="curve" smooth="yes"/>
			<point x="222" y="414"/>
			<point x="178" y="460"/>
			<point x="178" y="542" type="curve" smooth="yes"/>
			<point x="178" y="621"/>
			<point x="222" y="665"/>
			<point x="300" y="665" type="curve" smooth="yes"/>
			<point x="378" y="665"/>
			<point x="422" y="621"/>
			<point x="422" y="542" type="curve" smooth="yes"/>
			<point x="422" y="460"/>
			<point x="378" y="414"/>
		</contour>
	</outline>
</glyph>
<glyph name="nine" format="2">
	<advance width="600"/>
	<unicode hex="0039"/>
	<outline>
		<contour>
			<point x="187" y="0" type="line"/>
			<point x="287" y="0" type="line"/>
			<point x="470" y="295" type="line" smooth="yes"/>
			<point x="511" y="360"/>
			<point x="532" y="432"/>
			<point x="532" y="505" type="curve" smooth="yes"/>
			<point x="532" y="646"/>
			<point x="439" y="740"/>
			<point x="299" y="740" type="curve" smooth="yes"/>
			<point x="160" y="740"/>
			<point x="68" y="646"/>
			<point x="68" y="505" type="curve" smooth="yes"/>
			<point x="68" y="366"/>
			<point x="145" y="277"/>
			<point x="264" y="277" type="curve" smooth="yes"/>
			<point x="319" y="277"/>
			<point x="365" y="298"/>
			<point x="390" y="335" type="curve"/>
			<point x="394" y="332" type="line"/>
		</contour>
		<contour>
			<point x="300" y="350" type="curve" smooth="yes"/>
			<point x="215" y="350"/>
			<point x="158" y="412"/>
			<point x="158" y="505" type="curve" smooth="yes"/>
			<point x="158" y="598"/>
			<point x="215" y="660"/>
			<point x="300" y="660" type="curve" smooth="yes"/>
			<point x="385" y="660"/>
			<point x="442" y="598"/>
			<point x="442" y="505" type="curve" smooth="yes"/>
			<point x="442" y="412"/>
			<point x="385" y="350"/>
		</contour>
	</outline>
</glyph>
<glyph name="colon" format="2">
	<advance width="600"/>
	<unicode hex="003A"/>
	<outline>
		<contour>
			<point x="290" y="410" type="curve" smooth="yes"/>
			<point x="310" y="410" type="line" smooth="yes"/>
			<point x="354" y="410"/>
			<point x="385" y="441"/>
			<point x="385" y="485" type="curve" smooth="yes"/>
			<point x="385" y="528"/>
			<point x="353" y="560"/>
			<point x="310" y="560" type="curve" smooth="yes"/>
			<point x="290" y="560" type="line" smooth="yes"/>
			<point x="247" y="560"/>
			<point x="215" y="528"/>
			<point x="215" y="485" type="curve" smooth="yes"/>
			<point x="215" y="441"/>
			<point x="246" y="410"/>
		</contour>
		<contour>
			<point x="290" y="-10" type="curve" smooth="yes"/>
			<point x="310" y="-10" type="line" smooth="yes"/>
			<point x="354" y="-10"/>
			<point x="385" y="21"/>
			<point x="385" y="65" type="curve" smooth="yes"/>
			<point x="385" y="108"/>
			<point x="353" y="140"/>
			<point x="310" y="140" type="curve" smooth="yes"/>
			<point x="290" y="140" type="line" smooth="yes"/>
			<point x="247" y="140"/>
			<point x="215" y="108"/>
			<point x="215" y="65" type="curve" smooth="yes"/>
			<point x="215" y="21"/>
			<point x="246" y="-10"/>
		</contour>
	</outline>
</glyph>
<glyph name="semicolon" format="2">
	<advance width="600"/>
	<unicode hex="003B"/>
	<outline>
		<contour>
			<point x="170" y="-160" type="line"/>
			<point x="250" y="-160" type="line"/>
			<point x="380" y="151" type="line"/>
			<point x="250" y="151" type="line"/>
		</contour>
		<contour>
			<point x="290" y="410" type="curve" smooth="yes"/>
			<point x="310" y="410" type="line" smooth="yes"/>
			<point x="354" y="410"/>
			<point x="385" y="441"/>
			<point x="385" y="485" type="curve" smooth="yes"/>
			<point x="385" y="528"/>
			<point x="353" y="560"/>
			<point x="310" y="560" type="curve" smooth="yes"/>
			<point x="290" y="560" type="line" smooth="yes"/>
			<point x="247" y="560"/>
			<point x="215" y="528"/>
			<point x="215" y="485" type="curve" smooth="yes"/>
			<point x="215" y="441"/>
			<point x="246" y="410"/>
		</contour>
	</outline>
</glyph>
<glyph name="less" format="2">
	<advance width="600"/>
	<unicode hex="003C"/>
	<outline>
		<contour>
			<point x="515" y="65" type="line"/>
			<point x="515" y="155" type="line"/>
			<point x="205" y="308" type="line" smooth="yes"/>
			<point x="173" y="324"/>
			<point x="145" y="332"/>
			<point x="145" y="332" type="curve"/>
			<point x="145" y="332"/>
			<point x="171" y="340"/>
			<point x="205" y="356" type="curve" smooth="yes"/>
			<point x="515" y="508" type="line"/>
			<point x="515" y="595" type="line"/>
			<point x="85" y="380" type="line"/>
			<point x="85" y="280" type="line"/>
		</contour>
	</outline>
</glyph>
<glyph name="equal" format="2">
	<advance width="600"/>
	<unicode hex="003D"/>
	<outline>
		<contour>
			<point x="85" y="410" type="line"/>
			<point x="515" y="410" type="line"/>
			<point x="515" y="490" type="line"/>
			<point x="85" y="490" type="line"/>
		</contour>
		<contour>
			<point x="85" y="170" type="line"/>
			<point x="515" y="170" type="line"/>
			<point x="515" y="250" type="line"/>
			<point x="85" y="250" type="line"/>
		</contour>
	</outline>
</glyph>
<glyph name="greater" format="2">
	<advance width="600"/>
	<unicode hex="003E"/>
	<outline>
		<contour>
			<point x="85" y="65" type="line"/>
			<point x="515" y="280" type="line"/>
			<point x="515" y="380" type="line"/>
			<point x="85" y="595" type="line"/>
			<point x="85" y="505" type="line"/>
			<point x="395" y="352" type="line" smooth="yes"/>
			<point x="427" y="336"/>
			<point x="455" y="328"/>
			<point x="455" y="328" type="curve"/>
			<point x="455" y="328"/>
			<point x="429" y="320"/>
			<point x="395" y="304" type="curve" smooth="yes"/>
			<point x="85" y="152" type="line"/>
		</contour>
	</outline>
</glyph>
<glyph name="question" format="2">
	<advance width="600"/>
	<unicode hex="003F"/>
	<outline>
		<contour>
			<point x="211" y="205" type="line"/>
			<point x="301" y="205" type="line"/>
			<point x="301" y="310" type="line"/>
			<point x="413" y="316"/>
			<point x="490" y="400"/>
			<point x="490" y="515" type="curve" smooth="yes"/>
			<point x="490" y="646"/>
			<point x="400" y="730"/>
			<point x="260" y="730" type="curve" smooth="yes"/>
			<point x="135" y="730" type="line"/>
			<point x="135" y="645" type="line"/>
			<point x="260" y="645" type="line" smooth="yes"/>
			<point x="346" y="645"/>
			<point x="400" y="594"/>
			<point x="400" y="515" type="curve" smooth="yes"/>
			<point x="400" y="436"/>
			<point x="346" y="385"/>
			<point x="261" y="385" type="curve" smooth="yes"/>
			<point x="211" y="385" type="line"/>
		</contour>
		<contour>
			<point x="240" y="-5" type="curve" smooth="yes"/>
			<point x="270" y="-5" type="line" smooth="yes"/>
			<point x="305" y="-5"/>
			<point x="330" y="21"/>
			<point x="330" y="56" type="curve" smooth="yes"/>
			<point x="330" y="90"/>
			<point x="308" y="115"/>
			<point x="270" y="115" type="curve" smooth="yes"/>
			<point x="240" y="115" type="line" smooth="yes"/>
			<point x="205" y="115"/>
			<point x="180" y="90"/>
			<point x="180" y="55" type="curve" smooth="yes"/>
			<point x="180" y="20"/>
			<point x="205" y="-5"/>
		</contour>
	</outline>
</glyph>
<glyph name="at" format="2">
	<advance width="600"/>
	<unicode hex="0040"/>
	<outline>
		<contour>
			<point x="325" y="-180" type="curve" smooth="yes"/>
			<point x="395" y="-180" type="line"/>
			<point x="395" y="-105" type="line"/>
			<point x="325" y="-105" type="line" smooth="yes"/>
			<point x="201" y="-105"/>
			<point x="125" y="-23"/>
			<point x="125" y="110" type="curve" smooth="yes"/>
			<point x="125" y="450" type="line" smooth="yes"/>
			<point x="125" y="589"/>
			<point x="195" y="670"/>
			<point x="315" y="670" type="curve" smooth="yes"/>
			<point x="422" y="670"/>
			<point x="480" y="608"/>
			<point x="480" y="495" type="curve" smooth="yes"/>
			<point x="480" y="490" type="line"/>
			<point x="490" y="420" type="line"/>
			<point x="466" y="420" type="line"/>
			<point x="480" y="399" type="line"/>
			<point x="480" y="451"/>
			<point x="438" y="485"/>
			<point x="374" y="485" type="curve" smooth="yes"/>
			<point x="287" y="485"/>
			<point x="240" y="431"/>
			<point x="240" y="330" type="curve" smooth="yes"/>
			<point x="240" y="210" type="line" smooth="yes"/>
			<point x="240" y="109"/>
			<point x="287" y="55"/>
			<point x="374" y="55" type="curve" smooth="yes"/>
			<point x="438" y="55"/>
			<point x="480" y="89"/>
			<point x="480" y="140" type="curve"/>
			<point x="461" y="120" type="line"/>
			<point x="489" y="120" type="line"/>
			<point x="489" y="65" type="line"/>
			<point x="560" y="65" type="line"/>
			<point x="560" y="495" type="line" smooth="yes"/>
			<point x="560" y="647"/>
			<point x="467" y="740"/>
			<point x="315" y="740" type="curve" smooth="yes"/>
			<point x="147" y="740"/>
			<point x="45" y="630"/>
			<point x="45" y="450" type="curve" smooth="yes"/>
			<point x="45" y="110" type="line" smooth="yes"/>
			<point x="45" y="-67"/>
			<point x="154" y="-180"/>
		</contour>
		<contour>
			<point x="400" y="118" type="curve" smooth="yes"/>
			<point x="346" y="118"/>
			<point x="320" y="147"/>
			<point x="320" y="210" type="curve" smooth="yes"/>
			<point x="320" y="330" type="line" smooth="yes"/>
			<point x="320" y="393"/>
			<point x="346" y="422"/>
			<point x="400" y="422" type="curve" smooth="yes"/>
			<point x="455" y="422"/>
			<point x="480" y="394"/>
			<point x="480" y="331" type="curve" smooth="yes"/>
			<point x="480" y="220" type="line" smooth="yes"/>
			<point x="480" y="151"/>
			<point x="455" y="118"/>
		</contour>
	</outline>
</glyph>
<glyph name="A" format="2">
	<advance width="600"/>
	<unicode hex="0041"/>
	<outline>
		<contour>
			<point x="50" y="0" type="line"/>
			<point x="142" y="0" type="line"/>
			<point x="190" y="194" type="line"/>
			<point x="411" y="194" type="line"/>
			<point x="459" y="0" type="line"/>
			<point x="550" y="0" type="line"/>
			<point x="361" y="730" type="line"/>
			<point x="240" y="730" type="line"/>
		</contour>
		<contour>
			<point x="208" y="270" type="line"/>
			<point x="264" y="496" type="line" smooth="yes"/>
			<point x="285" y="580"/>
			<point x="297" y="640"/>
			<point x="300" y="658" type="curve"/>
			<point x="303" y="640"/>
			<point x="315" y="580"/>
			<point x="336" y="495" type="curve" smooth="yes"/>
			<point x="392" y="270" type="line"/>
		</contour>
	</outline>
</glyph>
<glyph name="B" format="2">
	<advance width="600"/>
	<unicode hex="0042"/>
	<outline>
		<contour>
			<point x="93" y="0" type="line"/>
			<point x="315" y="0" type="line" smooth="yes"/>
			<point x="448" y="0"/>
			<point x="530" y="78"/>
			<point x="530" y="203" type="curve" smooth="yes"/>
			<point x="530" y="320"/>
			<point x="455" y="395"/>
			<point x="340" y="393" type="curve"/>
			<point x="340" y="378" type="line"/>
			<point x="447" y="376"/>
			<point x="513" y="440"/>
			<point x="513" y="541" type="curve" smooth="yes"/>
			<point x="513" y="659"/>
			<point x="433" y="730"/>
			<point x="300" y="730" type="curve" smooth="yes"/>
			<point x="93" y="730" type="line"/>
		</contour>
		<contour>
			<point x="305" y="81" type="curve" smooth="yes"/>
			<point x="181" y="81" type="line"/>
			<point x="181" y="341" type="line"/>
			<point x="305" y="341" type="line" smooth="yes"/>
			<point x="389" y="341"/>
			<point x="441" y="286"/>
			<point x="441" y="206" type="curve" smooth="yes"/>
			<point x="441" y="129"/>
			<point x="389" y="81"/>
		</contour>
		<contour>
			<point x="299" y="419" type="curve" smooth="yes"/>
			<point x="181" y="419" type="line"/>
			<point x="181" y="649" type="line"/>
			<point x="300" y="649" type="line" smooth="yes"/>
			<point x="377" y="649"/>
			<point x="424" y="605"/>
			<point x="424" y="534" type="curve" smooth="yes"/>
			<point x="424" y="463"/>
			<point x="376" y="419"/>
		</contour>
	</outline>
</glyph>
<glyph name="D" format="2">
	<advance width="600"/>
	<unicode hex="0044"/>
	<outline>
		<contour>
			<point x="92" y="0" type="line"/>
			<point x="281" y="0" type="line" smooth="yes"/>
			<point x="422" y="0"/>
			<point x="512" y="86"/>
			<point x="512" y="220" type="curve" smooth="yes"/>
			<point x="512" y="511" type="line" smooth="yes"/>
			<point x="512" y="644"/>
			<point x="422" y="730"/>
			<point x="281" y="730" type="curve" smooth="yes"/>
			<point x="92" y="730" type="line"/>
		</contour>
		<contour>
			<point x="281" y="80" type="curve" smooth="yes"/>
			<point x="182" y="80" type="line"/>
			<point x="182" y="650" type="line"/>
			<point x="281" y="650" type="line" smooth="yes"/>
			<point x="369" y="650"/>
			<point x="422" y="598"/>
			<point x="422" y="511" type="curve" smooth="yes"/>
			<point x="422" y="220" type="line" smooth="yes"/>
			<point x="422" y="132"/>
			<point x="369" y="80"/>
		</contour>
	</outline>
</glyph>
<glyph name="E" format="2">
	<advance width="600"/>
	<unicode hex="0045"/>
	<outline>
		<contour>
			<point x="100" y="0" type="line"/>
			<point x="520" y="0" type="line"/>
			<point x="520" y="81" type="line"/>
			<point x="189" y="81" type="line"/>
			<point x="189" y="341" type="line"/>
			<point x="485" y="341" type="line"/>
			<point x="485" y="422" type="line"/>
			<point x="189" y="422" type="line"/>
			<point x="189" y="649" type="line"/>
			<point x="520" y="649" type="line"/>
			<point x="520" y="730" type="line"/>
			<point x="100" y="730" type="line"/>
		</contour>
	</outline>
</glyph>
<glyph name="F" format="2">
	<advance width="600"/>
	<unicode hex="0046"/>
	<outline>
		<contour>
			<point x="95" y="0" type="line"/>
			<point x="185" y="0" type="line"/>
			<point x="185" y="323" type="line"/>
			<point x="499" y="323" type="line"/>
			<point x="499" y="405" type="line"/>
			<point x="183" y="405" type="line"/>
			<point x="183" y="649" type="line"/>
			<point x="525" y="649" type="line"/>
			<point x="525" y="731" type="line"/>
			<point x="95" y="731" type="line"/>
		</contour>
	</outline>
</glyph>
<glyph name="G" format="2">
	<advance width="600"/>
	<unicode hex="0047"/>
	<outline>
		<contour>
			<point x="304" y="-10" type="curve" smooth="yes"/>
			<point x="435" y="-10"/>
			<point x="518" y="71"/>
			<point x="518" y="200" type="curve" smooth="yes"/>
			<point x="518" y="370" type="line"/>
			<point x="280" y="370" type="line"/>
			<point x="280" y="290" type="line"/>
			<point x="428" y="290" type="line"/>
			<point x="428" y="200" type="line" smooth="yes"/>
			<point x="428" y="117"/>
			<point x="382" y="70"/>
			<point x="304" y="70" type="curve" smooth="yes"/>
			<point x="225" y="70"/>
			<point x="178" y="117"/>
			<point x="178" y="200" type="curve" smooth="yes"/>
			<point x="178" y="531" type="line" smooth="yes"/>
			<point x="178" y="613"/>
			<point x="225" y="660"/>
			<point x="304" y="660" type="curve" smooth="yes"/>
			<point x="382" y="660"/>
			<point x="428" y="613"/>
			<point x="428" y="530" type="curve"/>
			<point x="518" y="530" type="line"/>
			<point x="518" y="659"/>
			<point x="435" y="740"/>
			<point x="304" y="740" type="curve" smooth="yes"/>
			<point x="171" y="740"/>
			<point x="88" y="661"/>
			<point x="88" y="530" type="curve" smooth="yes"/>
			<point x="88" y="200" type="line" smooth="yes"/>
			<point x="88" y="69"/>
			<point x="171" y="-10"/>
		</contour>
	</outline>
</glyph>
<glyph name="H" format="2">
	<advance width="600"/>
	<unicode hex="0048"/>
	<outline>
		<contour>
			<point x="93" y="0" type="line"/>
			<point x="183" y="0" type="line"/>
			<point x="183" y="336" type="line"/>
			<point x="417" y="336" type="line"/>
			<point x="417" y="0" type="line"/>
			<point x="507" y="0" type="line"/>
			<point x="507" y="730" type="line"/>
			<point x="417" y="730" type="line"/>
			<point x="417" y="418" type="line"/>
			<point x="183" y="418" type="line"/>
			<point x="183" y="730" type="line"/>
			<point x="93" y="730" type="line"/>
		</contour>
	</outline>
</glyph>
<glyph name="I" format="2">
	<advance width="600"/>
	<unicode hex="0049"/>
	<outline>
		<contour>
			<point x="105" y="0" type="line"/>
			<point x="495" y="0" type="line"/>
			<point x="495" y="81" type="line"/>
			<point x="346" y="81" type="line"/>
			<point x="346" y="649" type="line"/>
			<point x="495" y="649" type="line"/>
			<point x="495" y="730" type="line"/>
			<point x="105" y="730" type="line"/>
			<point x="105" y="649" type="line"/>
			<point x="254" y="649" type="line"/>
			<point x="254" y="81" type="line"/>
			<point x="105" y="81" type="line"/>
		</contour>
	</outline>
</glyph>
<glyph name="J" format="2">
	<advance width="600"/>
	<unicode hex="004A"/>
	<outline>
		<contour>
			<point x="270" y="-10" type="curve" smooth="yes"/>
			<point x="409" y="-10"/>
			<point x="495" y="74"/>
			<point x="495" y="210" type="curve" smooth="yes"/>
			<point x="495" y="730" type="line"/>
			<point x="230" y="730" type="line"/>
			<point x="230" y="648" type="line"/>
			<point x="405" y="648" type="line"/>
			<point x="405" y="210" type="line" smooth="yes"/>
			<point x="405" y="121"/>
			<point x="355" y="70"/>
			<point x="270" y="70" type="curve" smooth="yes"/>
			<point x="185" y="70"/>
			<point x="135" y="121"/>
			<point x="135" y="210" type="curve"/>
			<point x="45" y="210" type="line"/>
			<point x="45" y="74"/>
			<point x="130" y="-10"/>
		</contour>
	</outline>
</glyph>
<glyph name="K" format="2">
	<advance width="600"/>
	<unicode hex="004B"/>
	<outline>
		<contour>
			<point x="92" y="0" type="line"/>
			<point x="182" y="0" type="line"/>
			<point x="182" y="338" type="line"/>
			<point x="287" y="338" type="line"/>
			<point x="457" y="0" type="line"/>
			<point x="560" y="0" type="line"/>
			<point x="369" y="379" type="line"/>
			<point x="550" y="730" type="line"/>
			<point x="452" y="730" type="line"/>
			<point x="290" y="417" type="line"/>
			<point x="182" y="417" type="line"/>
			<point x="182" y="730" type="line"/>
			<point x="92" y="730" type="line"/>
		</contour>
	</outline>
</glyph>
<glyph name="L" format="2">
	<advance width="600"/>
	<unicode hex="004C"/>
	<outline>
		<contour>
			<point x="115" y="0" type="line"/>
			<point x="535" y="0" type="line"/>
			<point x="535" y="82" type="line"/>
			<point x="205" y="82" type="line"/>
			<point x="205" y="730" type="line"/>
			<point x="115" y="730" type="line"/>
		</contour>
	</outline>
</glyph>
<glyph name="M" format="2">
	<advance width="600"/>
	<unicode hex="004D"/>
	<outline>
		<contour>
			<point x="76" y="0" type="line"/>
			<point x="164" y="0" type="line"/>
			<point x="164" y="265" type="line" smooth="yes"/>
			<point x="164" y="445"/>
			<point x="135" y="685"/>
			<point x="135" y="685" type="curve"/>
			<point x="254" y="320" type="line"/>
			<point x="349" y="320" type="line"/>
			<point x="467" y="685" type="line"/>
			<point x="467" y="685"/>
			<point x="436" y="435"/>
			<point x="436" y="265" type="curve" smooth="yes"/>
			<point x="436" y="0" type="line"/>
			<point x="524" y="0" type="line"/>
			<point x="524" y="730" type="line"/>
			<point x="406" y="730" type="line"/>
			<point x="334" y="495" type="line" smooth="yes"/>
			<point x="316" y="435"/>
			<point x="303" y="382"/>
			<point x="303" y="382" type="curve"/>
			<point x="303" y="382"/>
			<point x="289" y="435"/>
			<point x="270" y="494" type="curve" smooth="yes"/>
			<point x="194" y="730" type="line"/>
			<point x="76" y="730" type="line"/>
		</contour>
	</outline>
</glyph>
<glyph name="N" format="2">
	<advance width="600"/>
	<unicode hex="004E"/>
	<outline>
		<contour>
			<point x="90" y="0" type="line"/>
			<point x="177" y="0" type="line"/>
			<point x="177" y="410" type="line" smooth="yes"/>
			<point x="177" y="510"/>
			<point x="168" y="625"/>
			<point x="168" y="625" type="curve"/>
			<point x="390" y="0" type="line"/>
			<point x="510" y="0" type="line"/>
			<point x="510" y="730" type="line"/>
			<point x="423" y="730" type="line"/>
			<point x="423" y="320" type="line" smooth="yes"/>
			<point x="423" y="220"/>
			<point x="433" y="105"/>
			<point x="433" y="105" type="curve"/>
			<point x="210" y="730" type="line"/>
			<point x="90" y="730" type="line"/>
		</contour>
	</outline>
</glyph>
<glyph name="O" format="2">
	<advance width="600"/>
	<unicode hex="004F"/>
	<outline>
		<contour>
			<point x="300" y="-10" type="curve" smooth="yes"/>
			<point x="431" y="-10"/>
			<point x="512" y="69"/>
			<point x="512" y="200" type="curve" smooth="yes"/>
			<point x="512" y="531" type="line" smooth="yes"/>
			<point x="512" y="661"/>
			<point x="431" y="740"/>
			<point x="300" y="740" type="curve" smooth="yes"/>
			<point x="169" y="740"/>
			<point x="88" y="661"/>
			<point x="88" y="530" type="curve" smooth="yes"/>
			<point x="88" y="200" type="line" smooth="yes"/>
			<point x="88" y="69"/>
			<point x="169" y="-10"/>
		</contour>
		<contour>
			<point x="300" y="70" type="curve" smooth="yes"/>
			<point x="222" y="70"/>
			<point x="178" y="115"/>
			<point x="178" y="200" type="curve" smooth="yes"/>
			<point x="178" y="530" type="line" smooth="yes"/>
			<point x="178" y="615"/>
			<point x="222" y="660"/>
			<point x="300" y="660" type="curve" smooth="yes"/>
			<point x="378" y="660"/>
			<point x="422" y="615"/>
			<point x="422" y="530" type="curve" smooth="yes"/>
			<point x="422" y="200" type="line" smooth="yes"/>
			<point x="422" y="115"/>
			<point x="378" y="70"/>
		</contour>
	</outline>
</glyph>
<glyph name="P" format="2">
	<advance width="600"/>
	<unicode hex="0050"/>
	<outline>
		<contour>
			<point x="92" y="0" type="line"/>
			<point x="182" y="0" type="line"/>
			<point x="182" y="300" type="line"/>
			<point x="327" y="300" type="line" smooth="yes"/>
			<point x="463" y="300"/>
			<point x="550" y="384"/>
			<point x="550" y="515" type="curve" smooth="yes"/>
			<point x="550" y="646"/>
			<point x="463" y="730"/>
			<point x="327" y="730" type="curve" smooth="yes"/>
			<point x="92" y="730" type="line"/>
		</contour>
		<contour>
			<point x="327" y="380" type="curve" smooth="yes"/>
			<point x="182" y="380" type="line"/>
			<point x="182" y="650" type="line"/>
			<point x="327" y="650" type="line" smooth="yes"/>
			<point x="406" y="650"/>
			<point x="457" y="597"/>
			<point x="457" y="515" type="curve" smooth="yes"/>
			<point x="457" y="433"/>
			<point x="406" y="380"/>
		</contour>
	</outline>
</glyph>
<glyph name="Q" format="2">
	<advance width="600"/>
	<unicode hex="0051"/>
	<outline>
		<contour>
			<point x="422" y="-180" type="line"/>
			<point x="526" y="-180" type="line"/>
			<point x="409" y="13" type="line"/>
			<point x="479" y="46"/>
			<point x="520" y="115"/>
			<point x="520" y="205" type="curve" smooth="yes"/>
			<point x="520" y="525" type="line" smooth="yes"/>
			<point x="520" y="656"/>
			<point x="435" y="740"/>
			<point x="300" y="740" type="curve" smooth="yes"/>
			<point x="165" y="740"/>
			<point x="80" y="656"/>
			<point x="80" y="525" type="curve" smooth="yes"/>
			<point x="80" y="205" type="line" smooth="yes"/>
			<point x="80" y="74"/>
			<point x="165" y="-10"/>
			<point x="300" y="-10" type="curve" smooth="yes"/>
			<point x="314" y="-10"/>
			<point x="325" y="-9"/>
			<point x="325" y="-9" type="curve"/>
			<point x="315" y="-3" type="line"/>
		</contour>
		<contour>
			<point x="300" y="70" type="curve" smooth="yes"/>
			<point x="221" y="70"/>
			<point x="170" y="123"/>
			<point x="170" y="205" type="curve" smooth="yes"/>
			<point x="170" y="525" type="line" smooth="yes"/>
			<point x="170" y="607"/>
			<point x="221" y="660"/>
			<point x="300" y="660" type="curve" smooth="yes"/>
			<point x="379" y="660"/>
			<point x="430" y="607"/>
			<point x="430" y="525" type="curve" smooth="yes"/>
			<point x="430" y="205" type="line" smooth="yes"/>
			<point x="430" y="123"/>
			<point x="379" y="70"/>
		</contour>
	</outline>
</glyph>
<glyph name="R" format="2">
	<advance width="600"/>
	<unicode hex="0052"/>
	<outline>
		<contour>
			<point x="92" y="0" type="line"/>
			<point x="182" y="0" type="line"/>
			<point x="182" y="310" type="line"/>
			<point x="299" y="310" type="line"/>
			<point x="439" y="0" type="line"/>
			<point x="545" y="0" type="line"/>
			<point x="392" y="320" type="line"/>
			<point x="480" y="347"/>
			<point x="535" y="421"/>
			<point x="535" y="520" type="curve" smooth="yes"/>
			<point x="535" y="645"/>
			<point x="448" y="730"/>
			<point x="318" y="730" type="curve" smooth="yes"/>
			<point x="92" y="730" type="line"/>
		</contour>
		<contour>
			<point x="318" y="390" type="curve" smooth="yes"/>
			<point x="182" y="390" type="line"/>
			<point x="182" y="650" type="line"/>
			<point x="318" y="650" type="line" smooth="yes"/>
			<point x="392" y="650"/>
			<point x="442" y="598"/>
			<point x="442" y="520" type="curve" smooth="yes"/>
			<point x="442" y="442"/>
			<point x="393" y="390"/>
		</contour>
	</outline>
</glyph>
<glyph name="T" format="2">
	<advance width="600"/>
	<unicode hex="0054"/>
	<outline>
		<contour>
			<point x="255" y="0" type="line"/>
			<point x="345" y="0" type="line"/>
			<point x="345" y="649" type="line"/>
			<point x="545" y="649" type="line"/>
			<point x="545" y="731" type="line"/>
			<point x="55" y="731" type="line"/>
			<point x="55" y="649" type="line"/>
			<point x="255" y="649" type="line"/>
		</contour>
	</outline>
</glyph>
<glyph name="U" format="2">
	<advance width="600"/>
	<unicode hex="0055"/>
	<outline>
		<contour>
			<point x="300" y="-10" type="curve" smooth="yes"/>
			<point x="437" y="-10"/>
			<point x="510" y="69"/>
			<point x="510" y="200" type="curve" smooth="yes"/>
			<point x="510" y="730" type="line"/>
			<point x="420" y="730" type="line"/>
			<point x="420" y="200" type="line" smooth="yes"/>
			<point x="420" y="120"/>
			<point x="380" y="70"/>
			<point x="300" y="70" type="curve" smooth="yes"/>
			<point x="219" y="70"/>
			<point x="180" y="120"/>
			<point x="180" y="200" type="curve" smooth="yes"/>
			<point x="180" y="730" type="line"/>
			<point x="90" y="730" type="line"/>
			<point x="90" y="200" type="line" smooth="yes"/>
			<point x="90" y="70"/>
			<point x="164" y="-10"/>
		</contour>
	</outline>
</glyph>
<glyph name="V" format="2">
	<advance width="600"/>
	<unicode hex="0056"/>
	<outline>
		<contour>
			<point x="238" y="0" type="line"/>
			<point x="361" y="0" type="line"/>
			<point x="550" y="730" type="line"/>
			<point x="459" y="730" type="line"/>
			<point x="336" y="234" type="line" smooth="yes"/>
			<point x="313" y="140"/>
			<point x="302" y="70"/>
			<point x="302" y="70" type="curve"/>
			<point x="302" y="70"/>
			<point x="291" y="140"/>
			<point x="267" y="235" type="curve" smooth="yes"/>
			<point x="143" y="730" type="line"/>
			<point x="50" y="730" type="line"/>
		</contour>
	</outline>
</glyph>
<glyph name="W" format="2">
	<advance width="600"/>
	<unicode hex="0057"/>
	<outline>
		<contour>
			<point x="109" y="0" type="line"/>
			<point x="222" y="0" type="line"/>
			<point x="289" y="550" type="line" smooth="yes"/>
			<point x="296" y="612"/>
			<point x="302" y="667"/>
			<point x="302" y="667" type="curve"/>
			<point x="302" y="667"/>
			<point x="307" y="612"/>
			<point x="314" y="550" type="curve" smooth="yes"/>
			<point x="376" y="0" type="line"/>
			<point x="489" y="0" type="line"/>
			<point x="575" y="730" type="line"/>
			<point x="493" y="730" type="line"/>
			<point x="436" y="190" type="line" smooth="yes"/>
			<point x="430" y="130"/>
			<point x="425" y="65"/>
			<point x="425" y="65" type="curve"/>
			<point x="425" y="65"/>
			<point x="418" y="130"/>
			<point x="411" y="190" type="curve" smooth="yes"/>
			<point x="349" y="730" type="line"/>
			<point x="256" y="730" type="line"/>
			<point x="188" y="190" type="line" smooth="yes"/>
			<point x="181" y="130"/>
			<point x="175" y="65"/>
			<point x="175" y="65" type="curve"/>
			<point x="175" y="65"/>
			<point x="172" y="130"/>
			<point x="166" y="190" type="curve" smooth="yes"/>
			<point x="111" y="730" type="line"/>
			<point x="25" y="730" type="line"/>
		</contour>
	</outline>
</glyph>
<glyph name="X" format="2">
	<advance width="600"/>
	<unicode hex="0058"/>
	<outline>
		<contour>
			<point x="40" y="0" type="line"/>
			<point x="140" y="0" type="line"/>
			<point x="266" y="233" type="line" smooth="yes"/>
			<point x="282" y="263"/>
			<point x="299" y="300"/>
			<point x="299" y="300" type="curve"/>
			<point x="299" y="300"/>
			<point x="315" y="263"/>
			<point x="332" y="232" type="curve" smooth="yes"/>
			<point x="457" y="0" type="line"/>
			<point x="560" y="0" type="line"/>
			<point x="350" y="376" type="line"/>
			<point x="549" y="730" type="line"/>
			<point x="450" y="730" type="line"/>
			<point x="335" y="514" type="line" smooth="yes"/>
			<point x="318" y="482"/>
			<point x="302" y="447"/>
			<point x="302" y="447" type="curve"/>
			<point x="302" y="447"/>
			<point x="284" y="483"/>
			<point x="268" y="514" type="curve" smooth="yes"/>
			<point x="155" y="730" type="line"/>
			<point x="51" y="730" type="line"/>
			<point x="250" y="370" type="line"/>
		</contour>
	</outline>
</glyph>
<glyph name="Y" format="2">
	<advance width="600"/>
	<unicode hex="0059"/>
	<outline>
		<contour>
			<point x="255" y="0" type="line"/>
			<point x="345" y="0" type="line"/>
			<point x="345" y="273" type="line"/>
			<point x="565" y="730" type="line"/>
			<point x="472" y="730" type="line"/>
			<point x="330" y="430" type="line" smooth="yes"/>
			<point x="308" y="385"/>
			<point x="301" y="362"/>
			<point x="301" y="362" type="curve"/>
			<point x="301" y="362"/>
			<point x="294" y="385"/>
			<point x="273" y="430" type="curve" smooth="yes"/>
			<point x="128" y="730" type="line"/>
			<point x="35" y="730" type="line"/>
			<point x="255" y="273" type="line"/>
		</contour>
	</outline>
</glyph>
<glyph name="Z" format="2">
	<advance width="600"/>
	<unicode hex="005A"/>
	<outline>
		<contour>
			<point x="85" y="0" type="line"/>
			<point x="515" y="0" type="line"/>
			<point x="515" y="82" type="line"/>
			<point x="176" y="82" type="line"/>
			<point x="505" y="640" type="line"/>
			<point x="505" y="730" type="line"/>
			<point x="90" y="730" type="line"/>
			<point x="90" y="648" type="line"/>
			<point x="414" y="649" type="line"/>
			<point x="85" y="90" type="line"/>
		</contour>
	</outline>
</glyph>
<glyph name="bracketleft" format="2">
	<advance width="600"/>
	<unicode hex="005B"/>
	<outline>
		<contour>
			<point x="210" y="-110" type="line"/>
			<point x="455" y="-110" type="line"/>
			<point x="455" y="-30" type="line"/>
			<point x="300" y="-30" type="line"/>
			<point x="300" y="750" type="line"/>
			<point x="455" y="750" type="line"/>
			<point x="455" y="830" type="line"/>
			<point x="210" y="830" type="line"/>
		</contour>
	</outline>
</glyph>
<glyph name="backslash" format="2">
	<advance width="600"/>
	<unicode hex="005C"/>
	<outline>
		<contour>
			<point x="430" y="-110" type="line"/>
			<point x="525" y="-110" type="line"/>
			<point x="170" y="830" type="line"/>
			<point x="75" y="830" type="line"/>
		</contour>
	</outline>
</glyph>
<glyph name="bracketright" format="2">
	<advance width="600"/>
	<unicode hex="005D"/>
	<outline>
		<contour>
			<point x="150" y="-110" type="line"/>
			<point x="395" y="-110" type="line"/>
			<point x="395" y="830" type="line"/>
			<point x="150" y="830" type="line"/>
			<point x="150" y="750" type="line"/>
			<point x="305" y="750" type="line"/>
			<point x="305" y="-30" type="line"/>
			<point x="150" y="-30" type="line"/>
		</contour>
	</outline>
</glyph>
<glyph name="asciicircum" format="2">
	<advance width="600"/>
	<unicode hex="005E"/>
	<outline>
		<contour>
			<point x="80" y="340" type="line"/>
			<point x="161" y="340" type="line"/>
			<point x="276" y="598" type="line" smooth="yes"/>
			<point x="292" y="633"/>
			<point x="303" y="665"/>
			<point x="303" y="665" type="curve"/>
			<point x="303" y="665"/>
			<point x="312" y="633"/>
			<point x="327" y="598" type="curve" smooth="yes"/>
			<point x="439" y="340" type="line"/>
			<point x="520" y="340" type="line"/>
			<point x="343" y="730" type="line"/>
			<point x="259" y="730" type="line"/>
		</contour>
	</outline>
</glyph>
<glyph name="underscore" format="2">
	<advance width="600"/>
	<unicode hex="005F"/>
	<outline>
		<contour>
			<point x="60" y="-100" type="line"/>
			<point x="540" y="-100" type="line"/>
			<point x="540" y="-25" type="line"/>
			<point x="60" y="-25" type="line"/>
		</contour>
	</outline>
</glyph>
<glyph name="grave" format="2">
	<advance width="600"/>
	<unicode hex="0060"/>
	<outline>
		<contour>
			<point x="300" y="645" type="line"/>
			<point x="395" y="645" type="line"/>
			<point x="280" y="785" type="line"/>
			<point x="180" y="785" type="line"/>
		</contour>
	</outline>
</glyph>
<glyph name="a" format="2">
	<advance width="600"/>
	<unicode hex="0061"/>
	<outline>
		<contour>
			<point x="249" y="-10" type="curve" smooth="yes"/>
			<point x="348" y="-10"/>
			<point x="422" y="39"/>
			<point x="422" y="116" type="curve"/>
			<point x="401" y="105" type="line"/>
			<point x="422" y="105" type="line"/>
			<point x="422" y="0" type="line"/>
			<point x="510" y="0" type="line"/>
			<point x="510" y="378" type="line" smooth="yes"/>
			<point x="510" y="490"/>
			<point x="430" y="559"/>
			<point x="302" y="559" type="curve" smooth="yes"/>
			<point x="188" y="559"/>
			<point x="105" y="498"/>
			<point x="93" y="405" type="curve"/>
			<point x="183" y="405" type="line"/>
			<point x="190" y="451"/>
			<point x="235" y="480"/>
			<point x="301" y="480" type="curve" smooth="yes"/>
			<point x="376" y="480"/>
			<point x="420" y="442"/>
			<point x="420" y="375" type="curve" smooth="yes"/>
			<point x="420" y="322" type="line"/>
			<point x="250" y="322" type="line" smooth="yes"/>
			<point x="135" y="322"/>
			<point x="65" y="258"/>
			<point x="65" y="153" type="curve" smooth="yes"/>
			<point x="65" y="53"/>
			<point x="137" y="-10"/>
		</contour>
		<contour>
			<point x="270" y="61" type="curve" smooth="yes"/>
			<point x="199" y="61"/>
			<point x="155" y="98"/>
			<point x="155" y="159" type="curve" smooth="yes"/>
			<point x="155" y="217"/>
			<point x="192" y="253"/>
			<point x="252" y="253" type="curve" smooth="yes"/>
			<point x="420" y="253" type="line"/>
			<point x="420" y="175" type="line" smooth="yes"/>
			<point x="420" y="106"/>
			<point x="357" y="61"/>
		</contour>
	</outline>
</glyph>
<glyph name="b" format="2">
	<advance width="600"/>
	<unicode hex="0062"/>
	<outline>
		<contour>
			<point x="332" y="-10" type="curve" smooth="yes"/>
			<point x="442" y="-10"/>
			<point x="512" y="68"/>
			<point x="512" y="194" type="curve" smooth="yes"/>
			<point x="512" y="355" type="line" smooth="yes"/>
			<point x="512" y="482"/>
			<point x="443" y="560"/>
			<point x="332" y="560" type="curve" smooth="yes"/>
			<point x="242" y="560"/>
			<point x="182" y="507"/>
			<point x="182" y="424" type="curve"/>
			<point x="200" y="445" type="line"/>
			<point x="180" y="445" type="line"/>
			<point x="182" y="570" type="line"/>
			<point x="182" y="730" type="line"/>
			<point x="92" y="730" type="line"/>
			<point x="92" y="0" type="line"/>
			<point x="182" y="0" type="line"/>
			<point x="182" y="105" type="line"/>
			<point x="200" y="105" type="line"/>
			<point x="182" y="126" type="line"/>
			<point x="182" y="42"/>
			<point x="241" y="-10"/>
		</contour>
		<contour>
			<point x="302" y="68" type="curve" smooth="yes"/>
			<point x="228" y="68"/>
			<point x="182" y="117"/>
			<point x="182" y="200" type="curve" smooth="yes"/>
			<point x="182" y="350" type="line" smooth="yes"/>
			<point x="182" y="433"/>
			<point x="228" y="482"/>
			<point x="302" y="482" type="curve" smooth="yes"/>
			<point x="378" y="482"/>
			<point x="422" y="435"/>
			<point x="422" y="350" type="curve" smooth="yes"/>
			<point x="422" y="200" type="line" smooth="yes"/>
			<point x="422" y="115"/>
			<point x="378" y="68"/>
		</contour>
	</outline>
</glyph>
<glyph name="c" format="2">
	<advance width="600"/>
	<unicode hex="0063"/>
	<outline>
		<contour>
			<point x="304" y="-10" type="curve" smooth="yes"/>
			<point x="431" y="-10"/>
			<point x="514" y="63"/>
			<point x="518" y="180" type="curve"/>
			<point x="428" y="180" type="line"/>
			<point x="424" y="110"/>
			<point x="378" y="70"/>
			<point x="304" y="70" type="curve" smooth="yes"/>
			<point x="225" y="70"/>
			<point x="178" y="117"/>
			<point x="178" y="200" type="curve" smooth="yes"/>
			<point x="178" y="351" type="line" smooth="yes"/>
			<point x="178" y="433"/>
			<point x="225" y="480"/>
			<point x="304" y="480" type="curve" smooth="yes"/>
			<point x="378" y="480"/>
			<point x="424" y="440"/>
			<point x="428" y="370" type="curve"/>
			<point x="518" y="370" type="line"/>
			<point x="514" y="487"/>
			<point x="431" y="560"/>
			<point x="304" y="560" type="curve" smooth="yes"/>
			<point x="171" y="560"/>
			<point x="88" y="481"/>
			<point x="88" y="350" type="curve" smooth="yes"/>
			<point x="88" y="200" type="line" smooth="yes"/>
			<point x="88" y="69"/>
			<point x="171" y="-10"/>
		</contour>
	</outline>
</glyph>
<glyph name="d" format="2">
	<advance width="600"/>
	<unicode hex="0064"/>
	<outline>
		<contour>
			<point x="268" y="-10" type="curve" smooth="yes"/>
			<point x="359" y="-10"/>
			<point x="418" y="42"/>
			<point x="418" y="126" type="curve"/>
			<point x="400" y="105" type="line"/>
			<point x="418" y="105" type="line"/>
			<point x="418" y="0" type="line"/>
			<point x="508" y="0" type="line"/>
			<point x="508" y="730" type="line"/>
			<point x="418" y="730" type="line"/>
			<point x="418" y="570" type="line"/>
			<point x="420" y="445" type="line"/>
			<point x="400" y="445" type="line"/>
			<point x="418" y="424" type="line"/>
			<point x="418" y="507"/>
			<point x="358" y="560"/>
			<point x="268" y="560" type="curve" smooth="yes"/>
			<point x="157" y="560"/>
			<point x="88" y="482"/>
			<point x="88" y="355" type="curve" smooth="yes"/>
			<point x="88" y="194" type="line" smooth="yes"/>
			<point x="88" y="68"/>
			<point x="158" y="-10"/>
		</contour>
		<contour>
			<point x="298" y="68" type="curve" smooth="yes"/>
			<point x="222" y="68"/>
			<point x="178" y="115"/>
			<point x="178" y="200" type="curve" smooth="yes"/>
			<point x="178" y="350" type="line" smooth="yes"/>
			<point x="178" y="435"/>
			<point x="222" y="482"/>
			<point x="298" y="482" type="curve" smooth="yes"/>
			<point x="372" y="482"/>
			<point x="418" y="433"/>
			<point x="418" y="350" type="curve" smooth="yes"/>
			<point x="418" y="200" type="line" smooth="yes"/>
			<point x="418" y="117"/>
			<point x="372" y="68"/>
		</contour>
	</outline>
</glyph>
<glyph name="e" format="2">
	<advance width="600"/>
	<unicode hex="0065"/>
	<outline>
		<contour>
			<point x="300" y="-10" type="curve" smooth="yes"/>
			<point x="416" y="-10"/>
			<point x="498" y="48"/>
			<point x="510" y="140" type="curve"/>
			<point x="420" y="140" type="line"/>
			<point x="410" y="91"/>
			<point x="369" y="66"/>
			<point x="300" y="66" type="curve" smooth="yes"/>
			<point x="218" y="66"/>
			<point x="176" y="113"/>
			<point x="176" y="200" type="curve" smooth="yes"/>
			<point x="176" y="253" type="line"/>
			<point x="512" y="253" type="line"/>
			<point x="512" y="350" type="line" smooth="yes"/>
			<point x="512" y="477"/>
			<point x="430" y="560"/>
			<point x="300" y="560" type="curve" smooth="yes"/>
			<point x="170" y="560"/>
			<point x="88" y="477"/>
			<point x="88" y="350" type="curve" smooth="yes"/>
			<point x="88" y="200" type="line" smooth="yes"/>
			<point x="88" y="73"/>
			<point x="170" y="-10"/>
		</contour>
		<contour>
			<point x="424" y="350" type="curve" smooth="yes"/>
			<point x="424" y="313" type="line"/>
			<point x="431" y="321" type="line"/>
			<point x="176" y="321" type="line"/>
			<point x="176" y="350" type="line" smooth="yes"/>
			<point x="176" y="437"/>
			<point x="218" y="485"/>
			<point x="300" y="485" type="curve" smooth="yes"/>
			<point x="382" y="485"/>
			<point x="424" y="437"/>
		</contour>
	</outline>
</glyph>
<glyph name="f" format="2">
	<advance width="600"/>
	<unicode hex="0066"/>
	<outline>
		<contour>
			<point x="220" y="0" type="line"/>
			<point x="310" y="0" type="line"/>
			<point x="310" y="457" type="line"/>
			<point x="535" y="457" type="line"/>
			<point x="535" y="539" type="line"/>
			<point x="310" y="539" type="line"/>
			<point x="310" y="593" type="line" smooth="yes"/>
			<point x="310" y="628"/>
			<point x="330" y="648"/>
			<point x="365" y="648" type="curve" smooth="yes"/>
			<point x="535" y="648" type="line"/>
			<point x="535" y="730" type="line"/>
			<point x="365" y="730" type="line" smooth="yes"/>
			<point x="276" y="730"/>
			<point x="220" y="677"/>
			<point x="220" y="592" type="curve" smooth="yes"/>
			<point x="220" y="539" type="line"/>
			<point x="60" y="539" type="line"/>
			<point x="60" y="457" type="line"/>
			<point x="220" y="457" type="line"/>
		</contour>
	</outline>
</glyph>
<glyph name="g" format="2">
	<advance width="600"/>
	<unicode hex="0067"/>
	<outline>
		<contour>
			<point x="161" y="-180" type="line"/>
			<point x="335" y="-180" type="line" smooth="yes"/>
			<point x="443" y="-180"/>
			<point x="507" y="-119"/>
			<point x="507" y="-20" type="curve" smooth="yes"/>
			<point x="507" y="550" type="line"/>
			<point x="420" y="550" type="line"/>
			<point x="420" y="475" type="line"/>
			<point x="385" y="475" type="line"/>
			<point x="413" y="430" type="line"/>
			<point x="413" y="512"/>
			<point x="358" y="560"/>
			<point x="268" y="560" type="curve" smooth="yes"/>
			<point x="158" y="560"/>
			<point x="88" y="482"/>
			<point x="88" y="356" type="curve" smooth="yes"/>
			<point x="88" y="240" type="line" smooth="yes"/>
			<point x="88" y="113"/>
			<point x="157" y="35"/>
			<point x="268" y="35" type="curve" smooth="yes"/>
			<point x="358" y="35"/>
			<point x="413" y="83"/>
			<point x="413" y="165" type="curve"/>
			<point x="385" y="120" type="line"/>
			<point x="420" y="120" type="line"/>
			<point x="417" y="50" type="line"/>
			<point x="417" y="-20" type="line" smooth="yes"/>
			<point x="417" y="-73"/>
			<point x="392" y="-98"/>
			<point x="336" y="-98" type="curve" smooth="yes"/>
			<point x="161" y="-98" type="line"/>
		</contour>
		<contour>
			<point x="298" y="113" type="curve" smooth="yes"/>
			<point x="222" y="113"/>
			<point x="178" y="160"/>
			<point x="178" y="245" type="curve" smooth="yes"/>
			<point x="178" y="350" type="line" smooth="yes"/>
			<point x="178" y="435"/>
			<point x="222" y="482"/>
			<point x="298" y="482" type="curve" smooth="yes"/>
			<point x="372" y="482"/>
			<point x="418" y="433"/>
			<point x="418" y="350" type="curve" smooth="yes"/>
			<point x="418" y="245" type="line" smooth="yes"/>
			<point x="418" y="162"/>
			<point x="372" y="113"/>
		</contour>
	</outline>
</glyph>
<glyph name="i" format="2">
	<advance width="600"/>
	<unicode hex="0069"/>
	<outline>
		<contour>
			<point x="80" y="0" type="line"/>
			<point x="550" y="0" type="line"/>
			<point x="550" y="82" type="line"/>
			<point x="365" y="82" type="line"/>
			<point x="365" y="550" type="line"/>
			<point x="105" y="550" type="line"/>
			<point x="105" y="468" type="line"/>
			<point x="275" y="468" type="line"/>
			<point x="275" y="82" type="line"/>
			<point x="80" y="82" type="line"/>
		</contour>
		<contour>
			<point x="300" y="645" type="curve" smooth="yes"/>
			<point x="320" y="645" type="line" smooth="yes"/>
			<point x="359" y="645"/>
			<point x="385" y="668"/>
			<point x="385" y="704" type="curve" smooth="yes"/>
			<point x="385" y="740"/>
			<point x="359" y="765"/>
			<point x="320" y="765" type="curve" smooth="yes"/>
			<point x="300" y="765" type="line" smooth="yes"/>
			<point x="261" y="765"/>
			<point x="235" y="740"/>
			<point x="235" y="704" type="curve" smooth="yes"/>
			<point x="235" y="667"/>
			<point x="261" y="645"/>
		</contour>
	</outline>
</glyph>
<glyph name="j" format="2">
	<advance width="600"/>
	<unicode hex="006A"/>
	<outline>
		<contour>
			<point x="85" y="-180" type="line"/>
			<point x="214" y="-180" type="line" smooth="yes"/>
			<point x="349" y="-180"/>
			<point x="435" y="-98"/>
			<point x="435" y="31" type="curve" smooth="yes"/>
			<point x="435" y="550" type="line"/>
			<point x="115" y="550" type="line"/>
			<point x="115" y="468" type="line"/>
			<point x="345" y="468" type="line"/>
			<point x="345" y="31" type="line" smooth="yes"/>
			<point x="345" y="-51"/>
			<point x="297" y="-97"/>
			<point x="214" y="-97" type="curve" smooth="yes"/>
			<point x="85" y="-97" type="line"/>
		</contour>
		<contour>
			<point x="375" y="645" type="curve" smooth="yes"/>
			<point x="395" y="645" type="line" smooth="yes"/>
			<point x="434" y="645"/>
			<point x="460" y="668"/>
			<point x="460" y="704" type="curve" smooth="yes"/>
			<point x="460" y="740"/>
			<point x="434" y="765"/>
			<point x="395" y="765" type="curve" smooth="yes"/>
			<point x="375" y="765" type="line" smooth="yes"/>
			<point x="336" y="765"/>
			<point x="310" y="740"/>
			<point x="310" y="704" type="curve" smooth="yes"/>
			<point x="310" y="667"/>
			<point x="336" y="645"/>
		</contour>
	</outline>
</glyph>
<glyph name="k" format="2">
	<advance width="600"/>
	<unicode hex="006B"/>
	<outline>
		<contour>
			<point x="95" y="0" type="line"/>
			<point x="185" y="0" type="line"/>
			<point x="185" y="245" type="line"/>
			<point x="282" y="245" type="line"/>
			<point x="442" y="0" type="line"/>
			<point x="547" y="0" type="line"/>
			<point x="359" y="288" type="line"/>
			<point x="544" y="550" type="line"/>
			<point x="441" y="550" type="line"/>
			<point x="281" y="323" type="line"/>
			<point x="185" y="323" type="line"/>
			<point x="185" y="730" type="line"/>
			<point x="95" y="730" type="line"/>
		</contour>
	</outline>
</glyph>
<glyph name="l" format="2">
	<advance width="600"/>
	<unicode hex="006C"/>
	<outline>
		<contour>
			<point x="365" y="0" type="curve" smooth="yes"/>
			<point x="550" y="0" type="line"/>
			<point x="550" y="82" type="line"/>
			<point x="365" y="82" type="line" smooth="yes"/>
			<point x="322" y="82"/>
			<point x="295" y="110"/>
			<point x="295" y="155" type="curve" smooth="yes"/>
			<point x="295" y="730" type="line"/>
			<point x="40" y="730" type="line"/>
			<point x="40" y="648" type="line"/>
			<point x="205" y="648" type="line"/>
			<point x="205" y="155" type="line" smooth="yes"/>
			<point x="205" y="61"/>
			<point x="268" y="0"/>
		</contour>
	</outline>
</glyph>
<glyph name="m" format="2">
	<advance width="600"/>
	<unicode hex="006D"/>
	<outline>
		<contour>
			<point x="66" y="0" type="line"/>
			<point x="149" y="0" type="line"/>
			<point x="149" y="420" type="line" smooth="yes"/>
			<point x="149" y="465"/>
			<point x="168" y="491"/>
			<point x="205" y="491" type="curve" smooth="yes"/>
			<point x="242" y="491"/>
			<point x="264" y="465"/>
			<point x="264" y="419" type="curve" smooth="yes"/>
			<point x="264" y="0" type="line"/>
			<point x="336" y="0" type="line"/>
			<point x="336" y="420" type="line" smooth="yes"/>
			<point x="336" y="465"/>
			<point x="358" y="491"/>
			<point x="394" y="491" type="curve" smooth="yes"/>
			<point x="431" y="491"/>
			<point x="451" y="464"/>
			<point x="451" y="419" type="curve" smooth="yes"/>
			<point x="451" y="0" type="line"/>
			<point x="534" y="0" type="line"/>
			<point x="534" y="418" type="line" smooth="yes"/>
			<point x="534" y="503"/>
			<point x="494" y="560"/>
			<point x="425" y="560" type="curve" smooth="yes"/>
			<point x="369" y="560"/>
			<point x="332" y="521"/>
			<point x="332" y="460" type="curve"/>
			<point x="351" y="484" type="line"/>
			<point x="309" y="484" type="line"/>
			<point x="336" y="430" type="line"/>
			<point x="336" y="513"/>
			<point x="301" y="560"/>
			<point x="240" y="560" type="curve" smooth="yes"/>
			<point x="184" y="560"/>
			<point x="149" y="521"/>
			<point x="149" y="460" type="curve"/>
			<point x="163" y="484" type="line"/>
			<point x="145" y="484" type="line"/>
			<point x="145" y="550" type="line"/>
			<point x="66" y="550" type="line"/>
		</contour>
	</outline>
</glyph>
<glyph name="n" format="2">
	<advance width="600"/>
	<unicode hex="006E"/>
	<outline>
		<contour>
			<point x="92" y="0" type="line"/>
			<point x="182" y="0" type="line"/>
			<point x="182" y="350" type="line" smooth="yes"/>
			<point x="182" y="435"/>
			<point x="228" y="484"/>
			<point x="303" y="484" type="curve" smooth="yes"/>
			<point x="375" y="484"/>
			<point x="420" y="438"/>
			<point x="420" y="360" type="curve" smooth="yes"/>
			<point x="420" y="0" type="line"/>
			<point x="510" y="0" type="line"/>
			<point x="510" y="370" type="line" smooth="yes"/>
			<point x="510" y="487"/>
			<point x="439" y="560"/>
			<point x="329" y="560" type="curve" smooth="yes"/>
			<point x="237" y="560"/>
			<point x="182" y="510"/>
			<point x="182" y="424" type="curve"/>
			<point x="201" y="445" type="line"/>
			<point x="182" y="445" type="line"/>
			<point x="182" y="550" type="line"/>
			<point x="92" y="550" type="line"/>
		</contour>
	</outline>
</glyph>
<glyph name="o" format="2">
	<advance width="600"/>
	<unicode hex="006F"/>
	<outline>
		<contour>
			<point x="300" y="-10" type="curve" smooth="yes"/>
			<point x="431" y="-10"/>
			<point x="512" y="69"/>
			<point x="512" y="200" type="curve" smooth="yes"/>
			<point x="512" y="351" type="line" smooth="yes"/>
			<point x="512" y="481"/>
			<point x="431" y="560"/>
			<point x="300" y="560" type="curve" smooth="yes"/>
			<point x="169" y="560"/>
			<point x="88" y="481"/>
			<point x="88" y="350" type="curve" smooth="yes"/>
			<point x="88" y="200" type="line" smooth="yes"/>
			<point x="88" y="69"/>
			<point x="169" y="-10"/>
		</contour>
		<contour>
			<point x="300" y="70" type="curve" smooth="yes"/>
			<point x="222" y="70"/>
			<point x="178" y="115"/>
			<point x="178" y="200" type="curve" smooth="yes"/>
			<point x="178" y="350" type="line" smooth="yes"/>
			<point x="178" y="435"/>
			<point x="222" y="480"/>
			<point x="300" y="480" type="curve" smooth="yes"/>
			<point x="378" y="480"/>
			<point x="422" y="435"/>
			<point x="422" y="350" type="curve" smooth="yes"/>
			<point x="422" y="200" type="line" smooth="yes"/>
			<point x="422" y="115"/>
			<point x="378" y="70"/>
		</contour>
	</outline>
</glyph>
<glyph name="p" format="2">
	<advance width="600"/>
	<unicode hex="0070"/>
	<outline>
		<contour>
			<point x="92" y="-180" type="line"/>
			<point x="182" y="-180" type="line"/>
			<point x="182" y="-20" type="line"/>
			<point x="180" y="105" type="line"/>
			<point x="200" y="105" type="line"/>
			<point x="182" y="126" type="line"/>
			<point x="182" y="43"/>
			<point x="243" y="-10"/>
			<point x="333" y="-10" type="curve" smooth="yes"/>
			<point x="444" y="-10"/>
			<point x="512" y="68"/>
			<point x="512" y="195" type="curve" smooth="yes"/>
			<point x="512" y="356" type="line" smooth="yes"/>
			<point x="512" y="482"/>
			<point x="443" y="560"/>
			<point x="333" y="560" type="curve" smooth="yes"/>
			<point x="242" y="560"/>
			<point x="182" y="508"/>
			<point x="182" y="424" type="curve"/>
			<point x="200" y="445" type="line"/>
			<point x="182" y="445" type="line"/>
			<point x="182" y="550" type="line"/>
			<point x="92" y="550" type="line"/>
		</contour>
		<contour>
			<point x="303" y="68" type="curve" smooth="yes"/>
			<point x="229" y="68"/>
			<point x="182" y="117"/>
			<point x="182" y="200" type="curve" smooth="yes"/>
			<point x="182" y="350" type="line" smooth="yes"/>
			<point x="182" y="433"/>
			<point x="229" y="482"/>
			<point x="303" y="482" type="curve" smooth="yes"/>
			<point x="379" y="482"/>
			<point x="422" y="435"/>
			<point x="422" y="350" type="curve" smooth="yes"/>
			<point x="422" y="200" type="line" smooth="yes"/>
			<point x="422" y="115"/>
			<point x="379" y="68"/>
		</contour>
	</outline>
</glyph>
<glyph name="q" format="2">
	<advance width="600"/>
	<unicode hex="0071"/>
	<outline>
		<contour>
			<point x="418" y="-180" type="line"/>
			<point x="508" y="-180" type="line"/>
			<point x="508" y="550" type="line"/>
			<point x="418" y="550" type="line"/>
			<point x="418" y="445" type="line"/>
			<point x="400" y="445" type="line"/>
			<point x="418" y="424" type="line"/>
			<point x="418" y="508"/>
			<point x="359" y="560"/>
			<point x="268" y="560" type="curve" smooth="yes"/>
			<point x="158" y="560"/>
			<point x="88" y="482"/>
			<point x="88" y="356" type="curve" smooth="yes"/>
			<point x="88" y="195" type="line" smooth="yes"/>
			<point x="88" y="68"/>
			<point x="157" y="-10"/>
			<point x="268" y="-10" type="curve" smooth="yes"/>
			<point x="358" y="-10"/>
			<point x="418" y="43"/>
			<point x="418" y="126" type="curve"/>
			<point x="400" y="105" type="line"/>
			<point x="420" y="105" type="line"/>
			<point x="418" y="-20" type="line"/>
		</contour>
		<contour>
			<point x="298" y="68" type="curve" smooth="yes"/>
			<point x="222" y="68"/>
			<point x="178" y="115"/>
			<point x="178" y="200" type="curve" smooth="yes"/>
			<point x="178" y="350" type="line" smooth="yes"/>
			<point x="178" y="435"/>
			<point x="222" y="482"/>
			<point x="298" y="482" type="curve" smooth="yes"/>
			<point x="372" y="482"/>
			<point x="418" y="433"/>
			<point x="418" y="350" type="curve" smooth="yes"/>
			<point x="418" y="200" type="line" smooth="yes"/>
			<point x="418" y="117"/>
			<point x="372" y="68"/>
		</contour>
	</outline>
</glyph>
<glyph name="r" format="2">
	<advance width="600"/>
	<unicode hex="0072"/>
	<outline>
		<contour>
			<point x="111" y="0" type="line"/>
			<point x="201" y="0" type="line"/>
			<point x="201" y="350" type="line" smooth="yes"/>
			<point x="201" y="435"/>
			<point x="247" y="484"/>
			<point x="323" y="484" type="curve" smooth="yes"/>
			<point x="400" y="484"/>
			<point x="444" y="436"/>
			<point x="444" y="350" type="curve" smooth="yes"/>
			<point x="444" y="325" type="line"/>
			<point x="534" y="325" type="line"/>
			<point x="534" y="358" type="line" smooth="yes"/>
			<point x="534" y="482"/>
			<point x="460" y="560"/>
			<point x="344" y="560" type="curve" smooth="yes"/>
			<point x="243" y="560"/>
			<point x="191" y="499"/>
			<point x="191" y="380" type="curve"/>
			<point x="220" y="445" type="line"/>
			<point x="199" y="445" type="line"/>
			<point x="199" y="550" type="line"/>
			<point x="111" y="550" type="line"/>
		</contour>
	</outline>
</glyph>
<glyph name="s" format="2">
	<advance width="600"/>
	<unicode hex="0073"/>
	<outline>
		<contour>
			<point x="278" y="-10" type="curve" smooth="yes"/>
			<point x="320" y="-10" type="line" smooth="yes"/>
			<point x="450" y="-10"/>
			<point x="515" y="53"/>
			<point x="515" y="155" type="curve" smooth="yes"/>
			<point x="515" y="251"/>
			<point x="463" y="298"/>
			<point x="345" y="317" type="curve" smooth="yes"/>
			<point x="271" y="329" type="line" smooth="yes"/>
			<point x="213" y="338"/>
			<point x="188" y="357"/>
			<point x="188" y="402" type="curve" smooth="yes"/>
			<point x="188" y="452"/>
			<point x="218" y="480"/>
			<point x="286" y="480" type="curve" smooth="yes"/>
			<point x="324" y="480" type="line" smooth="yes"/>
			<point x="378" y="480"/>
			<point x="411" y="456"/>
			<point x="419" y="421" type="curve"/>
			<point x="509" y="421" type="line"/>
			<point x="496" y="505"/>
			<point x="429" y="560"/>
			<point x="324" y="560" type="curve" smooth="yes"/>
			<point x="286" y="560" type="line" smooth="yes"/>
			<point x="161" y="560"/>
			<point x="98" y="501"/>
			<point x="98" y="403" type="curve" smooth="yes"/>
			<point x="98" y="310"/>
			<point x="150" y="263"/>
			<point x="258" y="246" type="curve" smooth="yes"/>
			<point x="332" y="234" type="line" smooth="yes"/>
			<point x="393" y="224"/>
			<point x="425" y="198"/>
			<point x="425" y="151" type="curve" smooth="yes"/>
			<point x="425" y="103"/>
			<point x="391" y="70"/>
			<point x="320" y="70" type="curve" smooth="yes"/>
			<point x="278" y="70" type="line" smooth="yes"/>
			<point x="219" y="70"/>
			<point x="183" y="96"/>
			<point x="175" y="135" type="curve"/>
			<point x="85" y="135" type="line"/>
			<point x="95" y="47"/>
			<point x="165" y="-10"/>
		</contour>
	</outline>
</glyph>
<glyph name="t" format="2">
	<advance width="600"/>
	<unicode hex="0074"/>
	<outline>
		<contour>
			<point x="360" y="0" type="curve" smooth="yes"/>
			<point x="510" y="0" type="line"/>
			<point x="510" y="82" type="line"/>
			<point x="360" y="82" type="line" smooth="yes"/>
			<point x="319" y="82"/>
			<point x="300" y="102"/>
			<point x="300" y="145" type="curve" smooth="yes"/>
			<point x="300" y="468" type="line"/>
			<point x="520" y="468" type="line"/>
			<point x="520" y="550" type="line"/>
			<point x="300" y="550" type="line"/>
			<point x="300" y="700" type="line"/>
			<point x="210" y="700" type="line"/>
			<point x="210" y="550" type="line"/>
			<point x="55" y="550" type="line"/>
			<point x="55" y="468" type="line"/>
			<point x="210" y="468" type="line"/>
			<point x="210" y="145" type="line" smooth="yes"/>
			<point x="210" y="53"/>
			<point x="265" y="0"/>
		</contour>
	</outline>
</glyph>
<glyph name="u" format="2">
	<advance width="600"/>
	<unicode hex="0075"/>
	<outline>
		<contour>
			<point x="299" y="-10" type="curve" smooth="yes"/>
			<point x="426" y="-10"/>
			<point x="510" y="71"/>
			<point x="510" y="200" type="curve" smooth="yes"/>
			<point x="510" y="550" type="line"/>
			<point x="420" y="550" type="line"/>
			<point x="420" y="200" type="line" smooth="yes"/>
			<point x="420" y="117"/>
			<point x="374" y="69"/>
			<point x="299" y="69" type="curve" smooth="yes"/>
			<point x="225" y="69"/>
			<point x="180" y="117"/>
			<point x="180" y="200" type="curve" smooth="yes"/>
			<point x="180" y="550" type="line"/>
			<point x="90" y="550" type="line"/>
			<point x="90" y="200" type="line" smooth="yes"/>
			<point x="90" y="71"/>
			<point x="172" y="-10"/>
		</contour>
	</outline>
</glyph>
<glyph name="w" format="2">
	<advance width="600"/>
	<unicode hex="0077"/>
	<outline>
		<contour>
			<point x="123" y="0" type="line"/>
			<point x="222" y="0" type="line"/>
			<point x="284" y="380" type="line" smooth="yes"/>
			<point x="292" y="431"/>
			<point x="299" y="480"/>
			<point x="299" y="480" type="curve"/>
			<point x="299" y="480"/>
			<point x="307" y="431"/>
			<point x="315" y="380" type="curve" smooth="yes"/>
			<point x="374" y="0" type="line"/>
			<point x="473" y="0" type="line"/>
			<point x="565" y="550" type="line"/>
			<point x="489" y="550" type="line"/>
			<point x="432" y="160" type="line" smooth="yes"/>
			<point x="426" y="120"/>
			<point x="418" y="70"/>
			<point x="418" y="70" type="curve"/>
			<point x="418" y="70"/>
			<point x="410" y="120"/>
			<point x="404" y="160" type="curve" smooth="yes"/>
			<point x="343" y="550" type="line"/>
			<point x="257" y="550" type="line"/>
			<point x="196" y="160" type="line" smooth="yes"/>
			<point x="190" y="120"/>
			<point x="182" y="70"/>
			<point x="182" y="70" type="curve"/>
			<point x="182" y="70"/>
			<point x="176" y="120"/>
			<point x="170" y="160" type="curve" smooth="yes"/>
			<point x="115" y="550" type="line"/>
			<point x="35" y="550" type="line"/>
		</contour>
	</outline>
</glyph>
<glyph name="x" format="2">
	<advance width="600"/>
	<unicode hex="0078"/>
	<outline>
		<contour>
			<point x="55" y="0" type="line"/>
			<point x="160" y="0" type="line"/>
			<point x="274" y="180" type="line" smooth="yes"/>
			<point x="287" y="201"/>
			<point x="301" y="229"/>
			<point x="301" y="229" type="curve"/>
			<point x="301" y="229"/>
			<point x="314" y="200"/>
			<point x="326" y="180" type="curve" smooth="yes"/>
			<point x="439" y="0" type="line"/>
			<point x="545" y="0" type="line"/>
			<point x="356" y="282" type="line"/>
			<point x="534" y="550" type="line"/>
			<point x="429" y="550" type="line"/>
			<point x="324" y="380" type="line" smooth="yes"/>
			<point x="311" y="360"/>
			<point x="301" y="335"/>
			<point x="301" y="335" type="curve"/>
			<point x="301" y="335"/>
			<point x="290" y="360"/>
			<point x="277" y="380" type="curve" smooth="yes"/>
			<point x="173" y="550" type="line"/>
			<point x="67" y="550" type="line"/>
			<point x="245" y="283" type="line"/>
		</contour>
	</outline>
</glyph>
<glyph name="y" format="2">
	<advance width="600"/>
	<unicode hex="0079"/>
	<outline>
		<contour>
			<point x="181" y="-180" type="line"/>
			<point x="277" y="-180" type="line"/>
			<point x="540" y="550" type="line"/>
			<point x="443" y="550" type="line"/>
			<point x="328" y="210" type="line" smooth="yes"/>
			<point x="317" y="179"/>
			<point x="306" y="130"/>
			<point x="306" y="130" type="curve"/>
			<point x="306" y="130"/>
			<point x="294" y="179"/>
			<point x="283" y="210" type="curve" smooth="yes"/>
			<point x="160" y="550" type="line"/>
			<point x="60" y="550" type="line"/>
			<point x="262" y="34" type="line"/>
		</contour>
	</outline>
</glyph>
<glyph name="z" format="2">
	<advance width="600"/>
	<unicode hex="007A"/>
	<outline>
		<contour>
			<point x="90" y="0" type="line"/>
			<point x="510" y="0" type="line"/>
			<point x="510" y="82" type="line"/>
			<point x="185" y="82" type="line"/>
			<point x="499" y="460" type="line"/>
			<point x="499" y="550" type="line"/>
			<point x="98" y="550" type="line"/>
			<point x="98" y="468" type="line"/>
			<point x="398" y="468" type="line"/>
			<point x="90" y="90" type="line"/>
		</contour>
	</outline>
</glyph>
<glyph name="braceleft" format="2">
	<advance width="600"/>
	<unicode hex="007B"/>
	<outline>
		<contour>
			<point x="470" y="-110" type="curve" smooth="yes"/>
			<point x="515" y="-110" type="line"/>
			<point x="515" y="-30" type="line"/>
			<point x="470" y="-30" type="line" smooth="yes"/>
			<point x="407" y="-30"/>
			<point x="372" y="-1"/>
			<point x="375" y="56" type="curve" smooth="yes"/>
			<point x="385" y="220" type="line" smooth="yes"/>
			<point x="390" y="306"/>
			<point x="339" y="363"/>
			<point x="255" y="363" type="curve"/>
			<point x="255" y="358" type="line"/>
			<point x="340" y="358"/>
			<point x="390" y="413"/>
			<point x="385" y="500" type="curve" smooth="yes"/>
			<point x="375" y="664" type="line" smooth="yes"/>
			<point x="372" y="721"/>
			<point x="407" y="750"/>
			<point x="470" y="750" type="curve" smooth="yes"/>
			<point x="515" y="750" type="line"/>
			<point x="515" y="830" type="line"/>
			<point x="470" y="830" type="line" smooth="yes"/>
			<point x="352" y="830"/>
			<point x="279" y="769"/>
			<point x="285" y="664" type="curve" smooth="yes"/>
			<point x="295" y="500" type="line" smooth="yes"/>
			<point x="299" y="429"/>
			<point x="282" y="400"/>
			<point x="195" y="400" type="curve" smooth="yes"/>
			<point x="85" y="400" type="line"/>
			<point x="85" y="320" type="line"/>
			<point x="195" y="320" type="line" smooth="yes"/>
			<point x="281" y="320"/>
			<point x="299" y="291"/>
			<point x="295" y="220" type="curve" smooth="yes"/>
			<point x="285" y="56" type="line" smooth="yes"/>
			<point x="279" y="-49"/>
			<point x="352" y="-110"/>
		</contour>
	</outline>
</glyph>
<glyph name="bar" format="2">
	<advance width="600"/>
	<unicode hex="007C"/>
	<outline>
		<contour>
			<point x="255" y="-110" type="line"/>
			<point x="345" y="-110" type="line"/>
			<point x="345" y="830" type="line"/>
			<point x="255" y="830" type="line"/>
		</contour>
	</outline>
</glyph>
<glyph name="braceright" format="2">
	<advance width="600"/>
	<unicode hex="007D"/>
	<guideline y="830"/>
	<guideline y="-110"/>
	<outline>
		<contour>
			<point x="85" y="-110" type="line"/>
			<point x="130" y="-110" type="line" smooth="yes"/>
			<point x="248" y="-110"/>
			<point x="321" y="-49"/>
			<point x="315" y="56" type="curve" smooth="yes"/>
			<point x="305" y="220" type="line" smooth="yes"/>
			<point x="301" y="291"/>
			<point x="319" y="320"/>
			<point x="405" y="320" type="curve" smooth="yes"/>
			<point x="515" y="320" type="line"/>
			<point x="515" y="400" type="line"/>
			<point x="405" y="400" type="line" smooth="yes"/>
			<point x="318" y="400"/>
			<point x="301" y="429"/>
			<point x="305" y="500" type="curve" smooth="yes"/>
			<point x="315" y="664" type="line" smooth="yes"/>
			<point x="321" y="769"/>
			<point x="248" y="830"/>
			<point x="130" y="830" type="curve" smooth="yes"/>
			<point x="85" y="830" type="line"/>
			<point x="85" y="750" type="line"/>
			<point x="130" y="750" type="line" smooth="yes"/>
			<point x="193" y="750"/>
			<point x="228" y="721"/>
			<point x="225" y="664" type="curve" smooth="yes"/>
			<point x="215" y="500" type="line" smooth="yes"/>
			<point x="210" y="413"/>
			<point x="260" y="358"/>
			<point x="345" y="358" type="curve"/>
			<point x="345" y="363" type="line"/>
			<point x="261" y="363"/>
			<point x="210" y="306"/>
			<point x="215" y="220" type="curve" smooth="yes"/>
			<point x="225" y="56" type="line" smooth="yes"/>
			<point x="228" y="-1"/>
			<point x="193" y="-30"/>
			<point x="130" y="-30" type="curve" smooth="yes"/>
			<point x="85" y="-30" type="line"/>
		</contour>
	</outline>
</glyph>
<glyph name="asciitilde" format="2">
	<advance width="600"/>
	<unicode hex="007E"/>
	<outline>
		<contour>
			<point x="65" y="325" type="curve" smooth="yes"/>
			<point x="65" y="255" type="line"/>
			<point x="150" y="255" type="line"/>
			<point x="150" y="325" type="line" smooth="yes"/>
			<point x="150" y="361"/>
			<point x="167" y="380"/>
			<point x="197" y="380" type="curve" smooth="yes"/>
			<point x="265" y="380"/>
			<point x="280" y="250"/>
			<point x="405" y="250" type="curve" smooth="yes"/>
			<point x="483" y="250"/>
			<point x="535" y="303"/>
			<point x="535" y="380" type="curve" smooth="yes"/>
			<point x="535" y="450" type="line"/>
			<point x="450" y="450" type="line"/>
			<point x="450" y="380" type="line" smooth="yes"/>
			<point x="450" y="344"/>
			<point x="433" y="325"/>
			<point x="403" y="325" type="curve" smooth="yes"/>
			<point x="335" y="325"/>
			<point x="320" y="455"/>
			<point x="195" y="455" type="curve" smooth="yes"/>
			<point x="117" y="455"/>
			<point x="65" y="403"/>
		</contour>
	</outline>
</glyph>
<glyph name="exclamdown" format="2">
	<advance width="600"/>
	<unicode hex="00A1"/>
	<outline>
		<contour>
			<point x="247" y="-180" type="line"/>
			<point x="353" y="-180" type="line"/>
			<point x="353" y="-55" type="line"/>
			<point x="332" y="336" type="line"/>
			<point x="268" y="336" type="line"/>
			<point x="247" y="-55" type="line"/>
		</contour>
		<contour>
			<point x="290" y="436" type="curve" smooth="yes"/>
			<point x="310" y="436" type="line" smooth="yes"/>
			<point x="349" y="436"/>
			<point x="375" y="461"/>
			<point x="375" y="498" type="curve" smooth="yes"/>
			<point x="375" y="534"/>
			<point x="349" y="556"/>
			<point x="310" y="556" type="curve" smooth="yes"/>
			<point x="290" y="556" type="line" smooth="yes"/>
			<point x="251" y="556"/>
			<point x="225" y="533"/>
			<point x="225" y="497" type="curve" smooth="yes"/>
			<point x="225" y="461"/>
			<point x="251" y="436"/>
		</contour>
	</outline>
</glyph>
<glyph name="sterling" format="2">
	<advance width="600"/>
	<unicode hex="00A3"/>
	<outline>
		<contour>
			<point x="75" y="100" type="curve"/>
			<point x="75" y="0" type="line"/>
			<point x="535" y="0" type="line"/>
			<point x="535" y="80" type="line"/>
			<point x="165" y="80" type="line"/>
			<point x="165" y="80"/>
			<point x="275" y="144"/>
			<point x="275" y="263" type="curve" smooth="yes"/>
			<point x="275" y="422"/>
			<point x="177" y="446"/>
			<point x="177" y="550" type="curve" smooth="yes"/>
			<point x="177" y="620"/>
			<point x="221" y="660"/>
			<point x="299" y="660" type="curve" smooth="yes"/>
			<point x="372" y="660"/>
			<point x="420" y="617"/>
			<point x="420" y="550" type="curve"/>
			<point x="515" y="550" type="line"/>
			<point x="513" y="669"/>
			<point x="432" y="740"/>
			<point x="300" y="740" type="curve" smooth="yes"/>
			<point x="169" y="740"/>
			<point x="86" y="668"/>
			<point x="86" y="555" type="curve" smooth="yes"/>
			<point x="86" y="429"/>
			<point x="184" y="398"/>
			<point x="184" y="254" type="curve" smooth="yes"/>
			<point x="184" y="186"/>
			<point x="75" y="100"/>
		</contour>
		<contour>
			<point x="75" y="305" type="line"/>
			<point x="435" y="305" type="line"/>
			<point x="435" y="385" type="line"/>
			<point x="75" y="385" type="line"/>
		</contour>
	</outline>
</glyph>
<glyph name="currency" format="2">
	<advance width="600"/>
	<unicode hex="00A4"/>
	<outline>
		<contour>
			<point x="299" y="153" type="curve" smooth="yes"/>
			<point x="414" y="153"/>
			<point x="501" y="240"/>
			<point x="501" y="355" type="curve" smooth="yes"/>
			<point x="501" y="470"/>
			<point x="414" y="557"/>
			<point x="299" y="557" type="curve" smooth="yes"/>
			<point x="183" y="557"/>
			<point x="96" y="470"/>
			<point x="96" y="355" type="curve" smooth="yes"/>
			<point x="96" y="240"/>
			<point x="183" y="153"/>
		</contour>
		<contour>
			<point x="105" y="95" type="line"/>
			<point x="194" y="184" type="line"/>
			<point x="131" y="247" type="line"/>
			<point x="42" y="158" type="line"/>
		</contour>
		<contour>
			<point x="494" y="95" type="line"/>
			<point x="557" y="158" type="line"/>
			<point x="468" y="247" type="line"/>
			<point x="405" y="184" type="line"/>
		</contour>
		<contour>
			<point x="299" y="226" type="curve" smooth="yes"/>
			<point x="222" y="226"/>
			<point x="170" y="278"/>
			<point x="170" y="355" type="curve" smooth="yes"/>
			<point x="170" y="432"/>
			<point x="222" y="484"/>
			<point x="299" y="484" type="curve" smooth="yes"/>
			<point x="376" y="484"/>
			<point x="427" y="432"/>
			<point x="427" y="355" type="curve" smooth="yes"/>
			<point x="427" y="278"/>
			<point x="376" y="226"/>
		</contour>
		<contour>
			<point x="131" y="465" type="line"/>
			<point x="194" y="528" type="line"/>
			<point x="105" y="617" type="line"/>
			<point x="42" y="554" type="line"/>
		</contour>
		<contour>
			<point x="468" y="459" type="line"/>
			<point x="557" y="548" type="line"/>
			<point x="494" y="611" type="line"/>
			<point x="405" y="522" type="line"/>
		</contour>
	</outline>
</glyph>
<glyph name="yen" format="2">
	<advance width="600"/>
	<unicode hex="00A5"/>
	<outline>
		<contour>
			<point x="60" y="270" type="line"/>
			<point x="540" y="270" type="line"/>
			<point x="540" y="345" type="line"/>
			<point x="60" y="345" type="line"/>
		</contour>
		<contour>
			<point x="60" y="120" type="line"/>
			<point x="540" y="120" type="line"/>
			<point x="540" y="195" type="line"/>
			<point x="60" y="195" type="line"/>
		</contour>
		<component base="Y"/>
	</outline>
</glyph>
<glyph name="section" format="2">
	<advance width="600"/>
	<unicode hex="00A7"/>
	<outline>
		<contour>
			<point x="285" y="-154" type="curve" smooth="yes"/>
			<point x="315" y="-154" type="line" smooth="yes"/>
			<point x="446" y="-154"/>
			<point x="523" y="-89"/>
			<point x="523" y="15" type="curve" smooth="yes"/>
			<point x="523" y="155"/>
			<point x="388" y="163"/>
			<point x="388" y="163" type="curve"/>
			<point x="388" y="170" type="line"/>
			<point x="468" y="170"/>
			<point x="521" y="231"/>
			<point x="521" y="308" type="curve" smooth="yes"/>
			<point x="521" y="389"/>
			<point x="463" y="450"/>
			<point x="368" y="470" type="curve" smooth="yes"/>
			<point x="278" y="489" type="line" smooth="yes"/>
			<point x="217" y="502"/>
			<point x="181" y="535"/>
			<point x="181" y="578" type="curve" smooth="yes"/>
			<point x="181" y="628"/>
			<point x="221" y="660"/>
			<point x="289" y="660" type="curve" smooth="yes"/>
			<point x="319" y="660" type="line" smooth="yes"/>
			<point x="371" y="660"/>
			<point x="412" y="634"/>
			<point x="422" y="595" type="curve"/>
			<point x="517" y="595" type="line"/>
			<point x="503" y="682"/>
			<point x="424" y="740"/>
			<point x="319" y="740" type="curve" smooth="yes"/>
			<point x="289" y="740" type="line" smooth="yes"/>
			<point x="164" y="740"/>
			<point x="90" y="677"/>
			<point x="90" y="579" type="curve" smooth="yes"/>
			<point x="90" y="434"/>
			<point x="215" y="436"/>
			<point x="215" y="436" type="curve"/>
			<point x="215" y="429" type="line"/>
			<point x="141" y="422"/>
			<point x="86" y="361"/>
			<point x="86" y="285" type="curve" smooth="yes"/>
			<point x="86" y="207"/>
			<point x="147" y="142"/>
			<point x="239" y="124" type="curve" smooth="yes"/>
			<point x="331" y="105" type="line" smooth="yes"/>
			<point x="398" y="91"/>
			<point x="432" y="60"/>
			<point x="432" y="12" type="curve" smooth="yes"/>
			<point x="432" y="-40"/>
			<point x="391" y="-74"/>
			<point x="315" y="-74" type="curve" smooth="yes"/>
			<point x="285" y="-74" type="line" smooth="yes"/>
			<point x="229" y="-74"/>
			<point x="184" y="-44"/>
			<point x="172" y="0" type="curve"/>
			<point x="77" y="0" type="line"/>
			<point x="92" y="-92"/>
			<point x="176" y="-154"/>
		</contour>
		<contour>
			<point x="330" y="185" type="curve" smooth="yes"/>
			<point x="254" y="200" type="line" smooth="yes"/>
			<point x="208" y="209"/>
			<point x="177" y="249"/>
			<point x="177" y="300" type="curve" smooth="yes"/>
			<point x="177" y="368"/>
			<point x="218" y="421"/>
			<point x="277" y="409" type="curve" smooth="yes"/>
			<point x="351" y="394" type="line" smooth="yes"/>
			<point x="398" y="384"/>
			<point x="430" y="346"/>
			<point x="430" y="299" type="curve" smooth="yes"/>
			<point x="430" y="228"/>
			<point x="389" y="173"/>
		</contour>
	</outline>
</glyph>
<glyph name="dieresis" format="2">
	<advance width="600"/>
	<unicode hex="00A8"/>
	<outline>
		<contour>
			<point x="405" y="640" type="curve" smooth="yes"/>
			<point x="440" y="640"/>
			<point x="465" y="665"/>
			<point x="465" y="700" type="curve" smooth="yes"/>
			<point x="465" y="735"/>
			<point x="440" y="760"/>
			<point x="405" y="760" type="curve" smooth="yes"/>
			<point x="370" y="760"/>
			<point x="345" y="735"/>
			<point x="345" y="700" type="curve" smooth="yes"/>
			<point x="345" y="665"/>
			<point x="370" y="640"/>
		</contour>
		<contour>
			<point x="195" y="640" type="curve" smooth="yes"/>
			<point x="230" y="640"/>
			<point x="255" y="665"/>
			<point x="255" y="700" type="curve" smooth="yes"/>
			<point x="255" y="735"/>
			<point x="230" y="760"/>
			<point x="195" y="760" type="curve" smooth="yes"/>
			<point x="160" y="760"/>
			<point x="135" y="735"/>
			<point x="135" y="700" type="curve" smooth="yes"/>
			<point x="135" y="665"/>
			<point x="160" y="640"/>
		</contour>
	</outline>
</glyph>
<glyph name="ordfeminine" format="2">
	<advance width="600"/>
	<unicode hex="00AA"/>
	<outline>
		<contour>
			<point x="373" y="455" type="line"/>
			<point x="420" y="455" type="line"/>
			<point x="420" y="650" type="line" smooth="yes"/>
			<point x="420" y="706"/>
			<point x="376" y="740"/>
			<point x="305" y="740" type="curve" smooth="yes"/>
			<point x="239" y="740"/>
			<point x="197" y="711"/>
			<point x="190" y="660" type="curve"/>
			<point x="240" y="660" type="line"/>
			<point x="244" y="684"/>
			<point x="270" y="700"/>
			<point x="305" y="700" type="curve" smooth="yes"/>
			<point x="345" y="700"/>
			<point x="370" y="681"/>
			<point x="370" y="650" type="curve" smooth="yes"/>
			<point x="370" y="510" type="line"/>
			<point x="373" y="510" type="line"/>
		</contour>
		<contour>
			<point x="274" y="450" type="curve" smooth="yes"/>
			<point x="320" y="450"/>
			<point x="356" y="473"/>
			<point x="370" y="510" type="curve"/>
			<point x="381" y="510" type="line"/>
			<point x="381" y="555" type="line"/>
			<point x="370" y="555" type="line"/>
			<point x="370" y="513"/>
			<point x="339" y="488"/>
			<point x="287" y="488" type="curve" smooth="yes"/>
			<point x="249" y="488"/>
			<point x="225" y="506"/>
			<point x="225" y="536" type="curve" smooth="yes"/>
			<point x="225" y="564"/>
			<point x="245" y="581"/>
			<point x="280" y="581" type="curve" smooth="yes"/>
			<point x="381" y="581" type="line"/>
			<point x="381" y="621" type="line"/>
			<point x="280" y="621" type="line" smooth="yes"/>
			<point x="215" y="621"/>
			<point x="175" y="588"/>
			<point x="175" y="536" type="curve" smooth="yes"/>
			<point x="175" y="484"/>
			<point x="214" y="450"/>
		</contour>
	</outline>
</glyph>
<glyph name="guillemotleft" format="2">
	<advance width="600"/>
	<unicode hex="00AB"/>
	<outline>
		<contour>
			<point x="465" y="40" type="line"/>
			<point x="570" y="40" type="line"/>
			<point x="364" y="282" type="line"/>
			<point x="570" y="520" type="line"/>
			<point x="464" y="520" type="line"/>
			<point x="263" y="280" type="line"/>
		</contour>
		<contour>
			<point x="232" y="40" type="line"/>
			<point x="337" y="40" type="line"/>
			<point x="131" y="282" type="line"/>
			<point x="337" y="520" type="line"/>
			<point x="231" y="520" type="line"/>
			<point x="30" y="280" type="line"/>
		</contour>
	</outline>
</glyph>
<glyph name="logicalnot" format="2">
	<advance width="600"/>
	<unicode hex="00AC"/>
	<outline>
		<contour>
			<point x="445" y="205" type="line"/>
			<point x="530" y="205" type="line"/>
			<point x="530" y="415" type="line"/>
			<point x="70" y="415" type="line"/>
			<point x="70" y="335" type="line"/>
			<point x="445" y="335" type="line"/>
		</contour>
	</outline>
</glyph>
<glyph name="uni00AD" format="2">
	<advance width="600"/>
	<unicode hex="00AD"/>
	<outline>
		<contour>
			<point x="140" y="290" type="line"/>
			<point x="460" y="290" type="line"/>
			<point x="460" y="370" type="line"/>
			<point x="140" y="370" type="line"/>
		</contour>
	</outline>
</glyph>
<glyph name="registered" format="2">
	<advance width="600"/>
	<unicode hex="00AE"/>
	<outline>
		<contour>
			<point x="300" y="110" type="curve" smooth="yes"/>
			<point x="453" y="110"/>
			<point x="555" y="206"/>
			<point x="555" y="350" type="curve" smooth="yes"/>
			<point x="555" y="500" type="line" smooth="yes"/>
			<point x="555" y="644"/>
			<point x="453" y="740"/>
			<point x="300" y="740" type="curve" smooth="yes"/>
			<point x="147" y="740"/>
			<point x="45" y="644"/>
			<point x="45" y="500" type="curve" smooth="yes"/>
			<point x="45" y="350" type="line" smooth="yes"/>
			<point x="45" y="206"/>
			<point x="147" y="110"/>
		</contour>
		<contour>
			<point x="363" y="250" type="line"/>
			<point x="427" y="250" type="line"/>
			<point x="360" y="403" type="line"/>
			<point x="299" y="403" type="line"/>
		</contour>
		<contour>
			<point x="300" y="160" type="curve" smooth="yes"/>
			<point x="181" y="160"/>
			<point x="100" y="236"/>
			<point x="100" y="350" type="curve"/>
			<point x="100" y="500" type="line" smooth="yes"/>
			<point x="100" y="614"/>
			<point x="181" y="690"/>
			<point x="300" y="690" type="curve" smooth="yes"/>
			<point x="420" y="690"/>
			<point x="500" y="614"/>
			<point x="500" y="500" type="curve" smooth="yes"/>
			<point x="500" y="350" type="line" smooth="yes"/>
			<point x="500" y="236"/>
			<point x="420" y="160"/>
		</contour>
		<contour>
			<point x="190" y="250" type="line"/>
			<point x="250" y="250" type="line"/>
			<point x="250" y="390" type="line"/>
			<point x="304" y="390" type="line" smooth="yes"/>
			<point x="376" y="390"/>
			<point x="421" y="431"/>
			<point x="421" y="495" type="curve" smooth="yes"/>
			<point x="421" y="559"/>
			<point x="376" y="600"/>
			<point x="304" y="600" type="curve" smooth="yes"/>
			<point x="190" y="600" type="line"/>
		</contour>
		<contour>
			<point x="304" y="440" type="curve" smooth="yes"/>
			<point x="250" y="440" type="line"/>
			<point x="250" y="550" type="line"/>
			<point x="304" y="550" type="line" smooth="yes"/>
			<point x="339" y="550"/>
			<point x="360" y="530"/>
			<point x="360" y="495" type="curve" smooth="yes"/>
			<point x="360" y="460"/>
			<point x="339" y="440"/>
		</contour>
	</outline>
</glyph>
<glyph name="macron" format="2">
	<advance width="600"/>
	<unicode hex="00AF"/>
	<outline>
		<contour>
			<point x="170" y="665" type="line"/>
			<point x="430" y="665" type="line"/>
			<point x="430" y="740" type="line"/>
			<point x="170" y="740" type="line"/>
		</contour>
	</outline>
</glyph>
<glyph name="degree" format="2">
	<advance width="600"/>
	<unicode hex="00B0"/>
	<outline>
		<contour>
			<point x="300" y="450" type="curve" smooth="yes"/>
			<point x="390" y="450"/>
			<point x="450" y="508"/>
			<point x="450" y="595" type="curve" smooth="yes"/>
			<point x="450" y="682"/>
			<point x="390" y="740"/>
			<point x="300" y="740" type="curve" smooth="yes"/>
			<point x="210" y="740"/>
			<point x="150" y="682"/>
			<point x="150" y="595" type="curve" smooth="yes"/>
			<point x="150" y="508"/>
			<point x="210" y="450"/>
		</contour>
		<contour>
			<point x="299" y="501" type="curve" smooth="yes"/>
			<point x="246" y="501"/>
			<point x="210" y="539"/>
			<point x="210" y="595" type="curve" smooth="yes"/>
			<point x="210" y="652"/>
			<point x="246" y="690"/>
			<point x="299" y="690" type="curve" smooth="yes"/>
			<point x="354" y="690"/>
			<point x="390" y="652"/>
			<point x="390" y="595" type="curve" smooth="yes"/>
			<point x="390" y="539"/>
			<point x="354" y="501"/>
		</contour>
	</outline>
</glyph>
<glyph name="plusminus" format="2">
	<advance width="600"/>
	<unicode hex="00B1"/>
	<outline>
		<contour>
			<point x="70" y="0" type="line"/>
			<point x="530" y="0" type="line"/>
			<point x="530" y="70" type="line"/>
			<point x="344" y="70" type="line"/>
			<point x="344" y="295" type="line"/>
			<point x="535" y="295" type="line"/>
			<point x="535" y="375" type="line"/>
			<point x="344" y="375" type="line"/>
			<point x="344" y="570" type="line"/>
			<point x="256" y="570" type="line"/>
			<point x="256" y="375" type="line"/>
			<point x="65" y="375" type="line"/>
			<point x="65" y="295" type="line"/>
			<point x="256" y="295" type="line"/>
			<point x="256" y="70" type="line"/>
			<point x="70" y="70" type="line"/>
		</contour>
	</outline>
</glyph>
<glyph name="uni00B2" format="2">
	<advance width="600"/>
	<unicode hex="00B2"/>
	<outline>
		<contour>
			<point x="166" y="405" type="line"/>
			<point x="455" y="405" type="line"/>
			<point x="455" y="469" type="line"/>
			<point x="237" y="469" type="line"/>
			<point x="365" y="564" type="line" smooth="yes"/>
			<point x="414" y="600"/>
			<point x="444" y="651"/>
			<point x="444" y="698" type="curve" smooth="yes"/>
			<point x="444" y="785"/>
			<point x="388" y="840"/>
			<point x="298" y="840" type="curve" smooth="yes"/>
			<point x="212" y="840"/>
			<point x="155" y="784"/>
			<point x="151" y="696" type="curve"/>
			<point x="221" y="696" type="line"/>
			<point x="221" y="746"/>
			<point x="251" y="777"/>
			<point x="298" y="777" type="curve" smooth="yes"/>
			<point x="345" y="777"/>
			<point x="375" y="746"/>
			<point x="375" y="696" type="curve" smooth="yes"/>
			<point x="375" y="666"/>
			<point x="357" y="634"/>
			<point x="328" y="613" type="curve" smooth="yes"/>
			<point x="166" y="492" type="line"/>
		</contour>
	</outline>
</glyph>
<glyph name="uni00B3" format="2">
	<advance width="600"/>
	<unicode hex="00B3"/>
	<guideline x="282" y="535" angle="0"/>
	<outline>
		<contour>
			<point x="284" y="395" type="curve" smooth="yes"/>
			<point x="375" y="395"/>
			<point x="432" y="449"/>
			<point x="432" y="535" type="curve" smooth="yes"/>
			<point x="432" y="617"/>
			<point x="376" y="669"/>
			<point x="288" y="669" type="curve"/>
			<point x="288" y="641" type="line"/>
			<point x="405" y="752" type="line"/>
			<point x="405" y="831" type="line"/>
			<point x="165" y="831" type="line"/>
			<point x="165" y="767" type="line"/>
			<point x="348" y="767" type="line"/>
			<point x="255" y="678" type="line"/>
			<point x="255" y="611" type="line"/>
			<point x="285" y="611" type="line" smooth="yes"/>
			<point x="331" y="611"/>
			<point x="360" y="582"/>
			<point x="360" y="535" type="curve" smooth="yes"/>
			<point x="360" y="488"/>
			<point x="331" y="458"/>
			<point x="284" y="458" type="curve" smooth="yes"/>
			<point x="235" y="458"/>
			<point x="205" y="488"/>
			<point x="205" y="535" type="curve"/>
			<point x="136" y="535" type="line"/>
			<point x="136" y="449"/>
			<point x="193" y="395"/>
		</contour>
	</outline>
</glyph>
<glyph name="paragraph" format="2">
	<advance width="600"/>
	<unicode hex="00B6"/>
	<outline>
		<contour>
			<point x="255" y="310" type="curve"/>
			<point x="255" y="-180" type="line"/>
			<point x="335" y="-180" type="line"/>
			<point x="335" y="730" type="line"/>
			<point x="255" y="730" type="line" smooth="yes"/>
			<point x="141" y="730"/>
			<point x="65" y="662"/>
			<point x="65" y="560" type="curve" smooth="yes"/>
			<point x="65" y="480" type="line" smooth="yes"/>
			<point x="65" y="378"/>
			<point x="141" y="310"/>
		</contour>
		<contour>
			<point x="425" y="-180" type="line"/>
			<point x="505" y="-180" type="line"/>
			<point x="505" y="730" type="line"/>
			<point x="425" y="730" type="line"/>
		</contour>
	</outline>
</glyph>
<glyph name="cedilla" format="2">
	<advance width="600"/>
	<unicode hex="00B8"/>
	<outline>
		<contour>
			<point x="205" y="-203" type="line"/>
			<point x="290" y="-203" type="line" smooth="yes"/>
			<point x="362" y="-203"/>
			<point x="410" y="-166"/>
			<point x="410" y="-120" type="curve" smooth="yes"/>
			<point x="410" y="-49"/>
			<point x="290" y="-35"/>
			<point x="290" y="-35" type="curve"/>
			<point x="311" y="26" type="line"/>
			<point x="254" y="26" type="line"/>
			<point x="219" y="-69" type="line"/>
			<point x="286" y="-69"/>
			<point x="324" y="-89"/>
			<point x="324" y="-112" type="curve" smooth="yes"/>
			<point x="324" y="-130"/>
			<point x="304" y="-148"/>
			<point x="275" y="-148" type="curve" smooth="yes"/>
			<point x="205" y="-148" type="line"/>
		</contour>
	</outline>
</glyph>
<glyph name="uni00B9" format="2">
	<advance width="600"/>
	<unicode hex="00B9"/>
	<outline>
		<contour>
			<point x="155" y="405" type="line"/>
			<point x="460" y="405" type="line"/>
			<point x="460" y="469" type="line"/>
			<point x="356" y="469" type="line"/>
			<point x="356" y="830" type="line"/>
			<point x="261" y="830" type="line"/>
			<point x="164" y="759" type="line"/>
			<point x="164" y="680" type="line"/>
			<point x="286" y="767" type="line"/>
			<point x="286" y="469" type="line"/>
			<point x="155" y="469" type="line"/>
		</contour>
	</outline>
</glyph>
<glyph name="ordmasculine" format="2">
	<advance width="600"/>
	<unicode hex="00BA"/>
	<outline>
		<contour>
			<point x="300" y="445" type="curve" smooth="yes"/>
			<point x="369" y="445"/>
			<point x="415" y="487"/>
			<point x="415" y="550" type="curve" smooth="yes"/>
			<point x="415" y="630" type="line" smooth="yes"/>
			<point x="415" y="693"/>
			<point x="369" y="735"/>
			<point x="300" y="735" type="curve" smooth="yes"/>
			<point x="231" y="735"/>
			<point x="185" y="693"/>
			<point x="185" y="630" type="curve" smooth="yes"/>
			<point x="185" y="550" type="line" smooth="yes"/>
			<point x="185" y="487"/>
			<point x="231" y="445"/>
		</contour>
		<contour>
			<point x="300" y="485" type="curve" smooth="yes"/>
			<point x="261" y="485"/>
			<point x="235" y="511"/>
			<point x="235" y="550" type="curve" smooth="yes"/>
			<point x="235" y="630" type="line" smooth="yes"/>
			<point x="235" y="669"/>
			<point x="261" y="695"/>
			<point x="300" y="695" type="curve" smooth="yes"/>
			<point x="339" y="695"/>
			<point x="365" y="669"/>
			<point x="365" y="630" type="curve" smooth="yes"/>
			<point x="365" y="550" type="line" smooth="yes"/>
			<point x="365" y="511"/>
			<point x="339" y="485"/>
		</contour>
	</outline>
</glyph>
<glyph name="guillemotright" format="2">
	<advance width="600"/>
	<unicode hex="00BB"/>
	<outline>
		<contour>
			<point x="264" y="40" type="line"/>
			<point x="369" y="40" type="line"/>
			<point x="570" y="280" type="line"/>
			<point x="368" y="520" type="line"/>
			<point x="263" y="520" type="line"/>
			<point x="466" y="281" type="line"/>
		</contour>
		<contour>
			<point x="31" y="40" type="line"/>
			<point x="136" y="40" type="line"/>
			<point x="337" y="280" type="line"/>
			<point x="135" y="520" type="line"/>
			<point x="30" y="520" type="line"/>
			<point x="233" y="281" type="line"/>
		</contour>
	</outline>
</glyph>
<glyph name="onequarter" format="2">
	<advance width="600"/>
	<unicode hex="00BC"/>
	<outline>
		<contour>
			<point x="30" y="405" type="line"/>
			<point x="305" y="405" type="line"/>
			<point x="305" y="455" type="line"/>
			<point x="208" y="455" type="line"/>
			<point x="208" y="730" type="line"/>
			<point x="123" y="730" type="line"/>
			<point x="53" y="669" type="line"/>
			<point x="53" y="599" type="line"/>
			<point x="115" y="653" type="line" smooth="yes"/>
			<point x="135" y="671"/>
			<point x="148" y="691"/>
			<point x="148" y="691" type="curve"/>
			<point x="148" y="455" type="line"/>
			<point x="30" y="455" type="line"/>
		</contour>
		<contour>
			<point x="480" y="0" type="line"/>
			<point x="540" y="0" type="line"/>
			<point x="540" y="209" type="line"/>
			<point x="480" y="209" type="line"/>
			<point x="480" y="120" type="line"/>
			<point x="365" y="120" type="line"/>
			<point x="365" y="136" type="line"/>
			<point x="500" y="325" type="line"/>
			<point x="431" y="325" type="line"/>
			<point x="305" y="150" type="line"/>
			<point x="305" y="70" type="line"/>
			<point x="480" y="70" type="line"/>
		</contour>
		<component base="fraction"/>
	</outline>
</glyph>
<glyph name="onehalf" format="2">
	<advance width="600"/>
	<unicode hex="00BD"/>
	<outline>
		<contour>
			<point x="92" y="0" type="line"/>
			<point x="153" y="0" type="line"/>
			<point x="508" y="730" type="line"/>
			<point x="447" y="730" type="line"/>
		</contour>
		<contour>
			<point x="315" y="0" type="line"/>
			<point x="570" y="0" type="line"/>
			<point x="570" y="50" type="line"/>
			<point x="461" y="50" type="line" smooth="yes"/>
			<point x="421" y="50"/>
			<point x="386" y="42"/>
			<point x="386" y="42" type="curve"/>
			<point x="386" y="52" type="line"/>
			<point x="479" y="104" type="line" smooth="yes"/>
			<point x="534" y="135"/>
			<point x="565" y="177"/>
			<point x="565" y="218" type="curve" smooth="yes"/>
			<point x="565" y="285"/>
			<point x="515" y="330"/>
			<point x="440" y="330" type="curve" smooth="yes"/>
			<point x="368" y="330"/>
			<point x="318" y="285"/>
			<point x="315" y="216" type="curve"/>
			<point x="375" y="216" type="line"/>
			<point x="375" y="255"/>
			<point x="401" y="280"/>
			<point x="440" y="280" type="curve" smooth="yes"/>
			<point x="479" y="280"/>
			<point x="505" y="255"/>
			<point x="505" y="216" type="curve" smooth="yes"/>
			<point x="505" y="187"/>
			<point x="482" y="160"/>
			<point x="435" y="133" type="curve" smooth="yes"/>
			<point x="315" y="64" type="line"/>
		</contour>
		<contour>
			<point x="30" y="405" type="line"/>
			<point x="305" y="405" type="line"/>
			<point x="305" y="455" type="line"/>
			<point x="208" y="455" type="line"/>
			<point x="208" y="730" type="line"/>
			<point x="123" y="730" type="line"/>
			<point x="53" y="669" type="line"/>
			<point x="53" y="599" type="line"/>
			<point x="115" y="653" type="line" smooth="yes"/>
			<point x="135" y="671"/>
			<point x="148" y="691"/>
			<point x="148" y="691" type="curve"/>
			<point x="148" y="455" type="line"/>
			<point x="30" y="455" type="line"/>
		</contour>
	</outline>
</glyph>
<glyph name="threequarters" format="2">
	<advance width="600"/>
	<unicode hex="00BE"/>
	<outline>
		<contour>
			<point x="480" y="0" type="line"/>
			<point x="540" y="0" type="line"/>
			<point x="540" y="209" type="line"/>
			<point x="480" y="209" type="line"/>
			<point x="480" y="120" type="line"/>
			<point x="365" y="120" type="line"/>
			<point x="365" y="136" type="line"/>
			<point x="500" y="325" type="line"/>
			<point x="431" y="325" type="line"/>
			<point x="305" y="150" type="line"/>
			<point x="305" y="70" type="line"/>
			<point x="480" y="70" type="line"/>
		</contour>
		<contour>
			<point x="154" y="400" type="curve" smooth="yes"/>
			<point x="230" y="400"/>
			<point x="281" y="442"/>
			<point x="281" y="505" type="curve" smooth="yes"/>
			<point x="281" y="568"/>
			<point x="231" y="610"/>
			<point x="158" y="610" type="curve"/>
			<point x="158" y="592" type="line"/>
			<point x="265" y="675" type="line"/>
			<point x="265" y="730" type="line"/>
			<point x="50" y="730" type="line"/>
			<point x="50" y="680" type="line"/>
			<point x="206" y="680" type="line"/>
			<point x="125" y="617" type="line"/>
			<point x="125" y="560" type="line"/>
			<point x="155" y="560" type="line" smooth="yes"/>
			<point x="194" y="560"/>
			<point x="221" y="538"/>
			<point x="221" y="505" type="curve" smooth="yes"/>
			<point x="221" y="472"/>
			<point x="194" y="450"/>
			<point x="154" y="450" type="curve" smooth="yes"/>
			<point x="113" y="450"/>
			<point x="86" y="472"/>
			<point x="86" y="505" type="curve"/>
			<point x="26" y="505" type="line"/>
			<point x="26" y="442"/>
			<point x="77" y="400"/>
		</contour>
		<component base="fraction"/>
	</outline>
</glyph>
<glyph name="questiondown" format="2">
	<advance width="600"/>
	<unicode hex="00BF"/>
	<outline>
		<contour>
			<point x="340" y="-170" type="curve" smooth="yes"/>
			<point x="465" y="-170" type="line"/>
			<point x="465" y="-85" type="line"/>
			<point x="340" y="-85" type="line" smooth="yes"/>
			<point x="253" y="-85"/>
			<point x="200" y="-38"/>
			<point x="200" y="40" type="curve" smooth="yes"/>
			<point x="200" y="118"/>
			<point x="253" y="165"/>
			<point x="339" y="165" type="curve" smooth="yes"/>
			<point x="389" y="165" type="line"/>
			<point x="389" y="345" type="line"/>
			<point x="299" y="345" type="line"/>
			<point x="299" y="240" type="line"/>
			<point x="186" y="234"/>
			<point x="110" y="154"/>
			<point x="110" y="40" type="curve" smooth="yes"/>
			<point x="110" y="-89"/>
			<point x="198" y="-170"/>
		</contour>
		<contour>
			<point x="335" y="435" type="curve" smooth="yes"/>
			<point x="355" y="435" type="line" smooth="yes"/>
			<point x="394" y="435"/>
			<point x="420" y="460"/>
			<point x="420" y="497" type="curve" smooth="yes"/>
			<point x="420" y="533"/>
			<point x="394" y="555"/>
			<point x="355" y="555" type="curve" smooth="yes"/>
			<point x="335" y="555" type="line" smooth="yes"/>
			<point x="296" y="555"/>
			<point x="270" y="532"/>
			<point x="270" y="496" type="curve" smooth="yes"/>
			<point x="270" y="460"/>
			<point x="296" y="435"/>
		</contour>
	</outline>
</glyph>
<glyph name="AE" format="2">
	<advance width="600"/>
	<unicode hex="00C6"/>
	<outline>
		<contour>
			<point x="30" y="0" type="line"/>
			<point x="121" y="0" type="line"/>
			<point x="161" y="203" type="line"/>
			<point x="302" y="203" type="line"/>
			<point x="302" y="0" type="line"/>
			<point x="570" y="0" type="line"/>
			<point x="570" y="82" type="line"/>
			<point x="388" y="82" type="line"/>
			<point x="388" y="338" type="line"/>
			<point x="545" y="338" type="line"/>
			<point x="545" y="420" type="line"/>
			<point x="388" y="420" type="line"/>
			<point x="388" y="648" type="line"/>
			<point x="570" y="648" type="line"/>
			<point x="570" y="730" type="line"/>
			<point x="175" y="730" type="line"/>
		</contour>
		<contour>
			<point x="175" y="278" type="line"/>
			<point x="246" y="648" type="line"/>
			<point x="302" y="648" type="line"/>
			<point x="302" y="278" type="line"/>
		</contour>
	</outline>
</glyph>
<glyph name="Oslash" format="2">
	<advance width="600"/>
	<unicode hex="00D8"/>
	<note>
		Make a bit lighter. Maybe decompose?
	</note>
	<outline>
		<contour>
			<point x="35" y="-40" type="line"/>
			<point x="119" y="-40" type="line"/>
			<point x="565" y="750" type="line"/>
			<point x="481" y="750" type="line"/>
		</contour>
		<component base="O"/>
	</outline>
</glyph>
<glyph name="Thorn" format="2">
	<advance width="600"/>
	<unicode hex="00DE"/>
	<outline>
		<contour>
			<point x="90" y="0" type="line"/>
			<point x="180" y="0" type="line"/>
			<point x="180" y="180" type="line"/>
			<point x="333" y="180" type="line" smooth="yes"/>
			<point x="465" y="180"/>
			<point x="550" y="258"/>
			<point x="550" y="380" type="curve" smooth="yes"/>
			<point x="550" y="500"/>
			<point x="464" y="580"/>
			<point x="333" y="580" type="curve" smooth="yes"/>
			<point x="180" y="580" type="line"/>
			<point x="180" y="730" type="line"/>
			<point x="90" y="730" type="line"/>
		</contour>
		<contour>
			<point x="333" y="260" type="curve" smooth="yes"/>
			<point x="180" y="260" type="line"/>
			<point x="180" y="500" type="line"/>
			<point x="333" y="500" type="line" smooth="yes"/>
			<point x="409" y="500"/>
			<point x="457" y="454"/>
			<point x="457" y="380" type="curve" smooth="yes"/>
			<point x="457" y="306"/>
			<point x="410" y="260"/>
		</contour>
	</outline>
</glyph>
<glyph name="germandbls" format="2">
	<advance width="600"/>
	<unicode hex="00DF"/>
	<outline>
		<contour>
			<point x="92" y="534" type="curve" smooth="yes"/>
			<point x="92" y="0" type="line"/>
			<point x="182" y="0" type="line"/>
			<point x="182" y="534" type="line" smooth="yes"/>
			<point x="182" y="611"/>
			<point x="229" y="658"/>
			<point x="303" y="658" type="curve" smooth="yes"/>
			<point x="376" y="658"/>
			<point x="422" y="613"/>
			<point x="422" y="536" type="curve" smooth="yes"/>
			<point x="422" y="465"/>
			<point x="377" y="413"/>
			<point x="303" y="413" type="curve" smooth="yes"/>
			<point x="261" y="413" type="line"/>
			<point x="261" y="335" type="line"/>
			<point x="305" y="335" type="line" smooth="yes"/>
			<point x="386" y="335"/>
			<point x="435" y="288"/>
			<point x="435" y="211" type="curve" smooth="yes"/>
			<point x="435" y="134"/>
			<point x="385" y="82"/>
			<point x="305" y="82" type="curve" smooth="yes"/>
			<point x="249" y="82" type="line"/>
			<point x="249" y="0" type="line"/>
			<point x="315" y="0" type="line" smooth="yes"/>
			<point x="444" y="0"/>
			<point x="530" y="86"/>
			<point x="530" y="208" type="curve" smooth="yes"/>
			<point x="530" y="325"/>
			<point x="455" y="400"/>
			<point x="340" y="398" type="curve"/>
			<point x="340" y="383" type="line"/>
			<point x="447" y="381"/>
			<point x="516" y="453"/>
			<point x="516" y="554" type="curve" smooth="yes"/>
			<point x="516" y="674"/>
			<point x="431" y="740"/>
			<point x="303" y="740" type="curve" smooth="yes"/>
			<point x="175" y="740"/>
			<point x="92" y="658"/>
		</contour>
	</outline>
</glyph>
<glyph name="ae" format="2">
	<advance width="600"/>
	<unicode hex="00E6"/>
	<outline>
		<contour>
			<point x="170" y="-10" type="curve" smooth="yes"/>
			<point x="287" y="-10"/>
			<point x="301" y="70"/>
			<point x="301" y="70" type="curve"/>
			<point x="305" y="70" type="line"/>
			<point x="305" y="70"/>
			<point x="317" y="-10"/>
			<point x="420" y="-10" type="curve" smooth="yes"/>
			<point x="507" y="-10"/>
			<point x="565" y="46"/>
			<point x="565" y="130" type="curve"/>
			<point x="480" y="130" type="line"/>
			<point x="480" y="91"/>
			<point x="453" y="67"/>
			<point x="410" y="67" type="curve" smooth="yes"/>
			<point x="370" y="67"/>
			<point x="343" y="100"/>
			<point x="343" y="150" type="curve" smooth="yes"/>
			<point x="343" y="255" type="line"/>
			<point x="565" y="255" type="line"/>
			<point x="565" y="400" type="line" smooth="yes"/>
			<point x="565" y="499"/>
			<point x="510" y="560"/>
			<point x="420" y="560" type="curve" smooth="yes"/>
			<point x="319" y="560"/>
			<point x="305" y="480"/>
			<point x="305" y="480" type="curve"/>
			<point x="301" y="480" type="line"/>
			<point x="301" y="480"/>
			<point x="287" y="560"/>
			<point x="180" y="560" type="curve" smooth="yes"/>
			<point x="100" y="560"/>
			<point x="47" y="504"/>
			<point x="47" y="420" type="curve"/>
			<point x="132" y="420" type="line"/>
			<point x="132" y="458"/>
			<point x="157" y="483"/>
			<point x="195" y="483" type="curve" smooth="yes"/>
			<point x="241" y="483"/>
			<point x="262" y="457"/>
			<point x="262" y="399" type="curve" smooth="yes"/>
			<point x="262" y="325" type="line"/>
			<point x="188" y="325" type="line" smooth="yes"/>
			<point x="95" y="325"/>
			<point x="35" y="272"/>
			<point x="35" y="190" type="curve" smooth="yes"/>
			<point x="35" y="130" type="line" smooth="yes"/>
			<point x="35" y="44"/>
			<point x="87" y="-10"/>
		</contour>
		<contour>
			<point x="190" y="67" type="curve" smooth="yes"/>
			<point x="150" y="67"/>
			<point x="125" y="91"/>
			<point x="125" y="130" type="curve" smooth="yes"/>
			<point x="125" y="190" type="line" smooth="yes"/>
			<point x="125" y="230"/>
			<point x="149" y="255"/>
			<point x="190" y="255" type="curve" smooth="yes"/>
			<point x="262" y="255" type="line"/>
			<point x="262" y="150" type="line" smooth="yes"/>
			<point x="262" y="100"/>
			<point x="233" y="67"/>
		</contour>
		<contour>
			<point x="343" y="325" type="line"/>
			<point x="343" y="400" type="line" smooth="yes"/>
			<point x="343" y="450"/>
			<point x="368" y="483"/>
			<point x="410" y="483" type="curve" smooth="yes"/>
			<point x="454" y="483"/>
			<point x="480" y="450"/>
			<point x="480" y="400" type="curve" smooth="yes"/>
			<point x="480" y="325" type="line"/>
		</contour>
	</outline>
</glyph>
<glyph name="eth" format="2">
	<advance width="600"/>
	<unicode hex="00F0"/>
	<outline>
		<contour>
			<point x="299" y="-10" type="curve" smooth="yes"/>
			<point x="438" y="-10"/>
			<point x="530" y="83"/>
			<point x="530" y="223" type="curve" smooth="yes"/>
			<point x="530" y="308"/>
			<point x="492" y="408"/>
			<point x="433" y="493" type="curve" smooth="yes"/>
			<point x="269" y="730" type="line"/>
			<point x="165" y="730" type="line"/>
			<point x="345" y="480" type="line" smooth="yes"/>
			<point x="395" y="411"/>
			<point x="409" y="380"/>
			<point x="409" y="380" type="curve"/>
			<point x="395" y="380" type="line"/>
			<point x="395" y="380"/>
			<point x="361" y="436"/>
			<point x="281" y="436" type="curve" smooth="yes"/>
			<point x="154" y="436"/>
			<point x="70" y="348"/>
			<point x="70" y="215" type="curve" smooth="yes"/>
			<point x="70" y="80"/>
			<point x="162" y="-10"/>
		</contour>
		<contour>
			<point x="299" y="70" type="curve" smooth="yes"/>
			<point x="216" y="70"/>
			<point x="160" y="128"/>
			<point x="160" y="215" type="curve" smooth="yes"/>
			<point x="160" y="302"/>
			<point x="216" y="360"/>
			<point x="299" y="360" type="curve" smooth="yes"/>
			<point x="384" y="360"/>
			<point x="440" y="302"/>
			<point x="440" y="215" type="curve" smooth="yes"/>
			<point x="440" y="128"/>
			<point x="384" y="70"/>
		</contour>
		<contour>
			<point x="117" y="495" type="line"/>
			<point x="461" y="655" type="line"/>
			<point x="461" y="735" type="line"/>
			<point x="117" y="575" type="line"/>
		</contour>
	</outline>
</glyph>
<glyph name="divide" format="2">
	<advance width="600"/>
	<unicode hex="00F7"/>
	<outline>
		<contour>
			<point x="100" y="295" type="line"/>
			<point x="500" y="295" type="line"/>
			<point x="500" y="370" type="line"/>
			<point x="100" y="370" type="line"/>
		</contour>
		<contour>
			<point x="290" y="85" type="curve" smooth="yes"/>
			<point x="310" y="85" type="line" smooth="yes"/>
			<point x="349" y="85"/>
			<point x="375" y="108"/>
			<point x="375" y="144" type="curve" smooth="yes"/>
			<point x="375" y="180"/>
			<point x="349" y="205"/>
			<point x="310" y="205" type="curve" smooth="yes"/>
			<point x="290" y="205" type="line" smooth="yes"/>
			<point x="251" y="205"/>
			<point x="225" y="180"/>
			<point x="225" y="144" type="curve" smooth="yes"/>
			<point x="225" y="107"/>
			<point x="251" y="85"/>
		</contour>
		<contour>
			<point x="290" y="460" type="curve" smooth="yes"/>
			<point x="310" y="460" type="line" smooth="yes"/>
			<point x="349" y="460"/>
			<point x="375" y="483"/>
			<point x="375" y="519" type="curve" smooth="yes"/>
			<point x="375" y="555"/>
			<point x="349" y="580"/>
			<point x="310" y="580" type="curve" smooth="yes"/>
			<point x="290" y="580" type="line" smooth="yes"/>
			<point x="251" y="580"/>
			<point x="225" y="555"/>
			<point x="225" y="519" type="curve" smooth="yes"/>
			<point x="225" y="482"/>
			<point x="251" y="460"/>
		</contour>
	</outline>
</glyph>
<glyph name="oslash" format="2">
	<advance width="600"/>
	<unicode hex="00F8"/>
	<note>
		Needs to be lighter [R], [B]
	</note>
	<outline>
		<contour>
			<point x="35" y="-30" type="line"/>
			<point x="125" y="-30" type="line"/>
			<point x="565" y="590" type="line"/>
			<point x="474" y="590" type="line"/>
		</contour>
		<component base="o"/>
	</outline>
</glyph>
<glyph name="thorn" format="2">
	<advance width="600"/>
	<unicode hex="00FE"/>
	<outline>
		<contour>
			<point x="87" y="-170" type="line"/>
			<point x="177" y="-170" type="line"/>
			<point x="177" y="59" type="line"/>
			<point x="87" y="59" type="line"/>
		</contour>
		<component base="b" xOffset="-5"/>
	</outline>
</glyph>
<glyph name="dcaron" format="2">
	<advance width="600"/>
	<unicode hex="010F"/>
	<outline>
		<contour>
			<point x="514" y="610" type="line"/>
			<point x="584" y="610" type="line"/>
			<point x="654" y="756" type="line"/>
			<point x="564" y="756" type="line"/>
		</contour>
		<component base="d" xOffset="-20"/>
	</outline>
</glyph>
<glyph name="Dcroat" format="2">
	<advance width="600"/>
	<unicode hex="0110"/>
	<outline>
		<contour>
			<point x="35" y="320" type="line"/>
			<point x="300" y="320" type="line"/>
			<point x="300" y="395" type="line"/>
			<point x="35" y="395" type="line"/>
		</contour>
		<component base="D"/>
	</outline>
</glyph>
<glyph name="dcroat" format="2">
	<advance width="600"/>
	<unicode hex="0111"/>
	<outline>
		<contour>
			<point x="268" y="-10" type="curve" smooth="yes"/>
			<point x="359" y="-10"/>
			<point x="416" y="42"/>
			<point x="416" y="126" type="curve"/>
			<point x="398" y="105" type="line"/>
			<point x="416" y="105" type="line"/>
			<point x="416" y="0" type="line"/>
			<point x="506" y="0" type="line"/>
			<point x="506" y="730" type="line"/>
			<point x="416" y="730" type="line"/>
			<point x="416" y="510" type="line"/>
			<point x="418" y="385" type="line"/>
			<point x="398" y="385" type="line"/>
			<point x="416" y="364" type="line"/>
			<point x="416" y="447"/>
			<point x="358" y="500"/>
			<point x="268" y="500" type="curve" smooth="yes"/>
			<point x="157" y="500"/>
			<point x="90" y="422"/>
			<point x="90" y="295" type="curve" smooth="yes"/>
			<point x="90" y="194" type="line" smooth="yes"/>
			<point x="90" y="68"/>
			<point x="158" y="-10"/>
		</contour>
		<contour>
			<point x="298" y="68" type="curve" smooth="yes"/>
			<point x="222" y="68"/>
			<point x="180" y="115"/>
			<point x="180" y="200" type="curve" smooth="yes"/>
			<point x="180" y="290" type="line" smooth="yes"/>
			<point x="180" y="375"/>
			<point x="222" y="422"/>
			<point x="298" y="422" type="curve" smooth="yes"/>
			<point x="372" y="422"/>
			<point x="416" y="373"/>
			<point x="416" y="290" type="curve" smooth="yes"/>
			<point x="416" y="200" type="line" smooth="yes"/>
			<point x="416" y="117"/>
			<point x="372" y="68"/>
		</contour>
		<contour>
			<point x="250" y="570" type="line"/>
			<point x="600" y="570" type="line"/>
			<point x="600" y="645" type="line"/>
			<point x="250" y="645" type="line"/>
		</contour>
	</outline>
</glyph>
<glyph name="uni0123" format="2">
	<advance width="600"/>
	<unicode hex="0123"/>
	<outline>
		<contour>
			<point x="210" y="640" type="line"/>
			<point x="315" y="640" type="line"/>
			<point x="410" y="785" type="line"/>
			<point x="315" y="785" type="line"/>
		</contour>
		<component base="g"/>
	</outline>
</glyph>
<glyph name="Hbar" format="2">
	<advance width="600"/>
	<unicode hex="0126"/>
	<outline>
		<contour>
			<point x="10" y="525" type="line"/>
			<point x="590" y="525" type="line"/>
			<point x="590" y="600" type="line"/>
			<point x="10" y="600" type="line"/>
		</contour>
		<component base="H"/>
	</outline>
</glyph>
<glyph name="dotlessi" format="2">
	<advance width="600"/>
	<unicode hex="0131"/>
	<outline>
		<contour>
			<point x="90" y="0" type="line"/>
			<point x="545" y="0" type="line"/>
			<point x="545" y="82" type="line"/>
			<point x="385" y="82" type="line"/>
			<point x="385" y="550" type="line"/>
			<point x="115" y="550" type="line"/>
			<point x="115" y="468" type="line"/>
			<point x="295" y="468" type="line"/>
			<point x="295" y="82" type="line"/>
			<point x="90" y="82" type="line"/>
		</contour>
	</outline>
</glyph>
<glyph name="IJ" format="2">
	<advance width="600"/>
	<unicode hex="0132"/>
	<outline>
		<contour>
			<point x="260" y="0" type="line"/>
			<point x="320" y="0" type="line" smooth="yes"/>
			<point x="457" y="0"/>
			<point x="535" y="72"/>
			<point x="535" y="201" type="curve" smooth="yes"/>
			<point x="535" y="720" type="line"/>
			<point x="300" y="720" type="line"/>
			<point x="300" y="640" type="line"/>
			<point x="445" y="640" type="line"/>
			<point x="445" y="201" type="line" smooth="yes"/>
			<point x="445" y="124"/>
			<point x="400" y="80"/>
			<point x="320" y="80" type="curve" smooth="yes"/>
			<point x="260" y="80" type="line"/>
		</contour>
		<contour>
			<point x="70" y="0" type="line"/>
			<point x="162" y="0" type="line"/>
			<point x="162" y="720" type="line"/>
			<point x="70" y="720" type="line"/>
		</contour>
	</outline>
</glyph>
<glyph name="ij" format="2">
	<advance width="600"/>
	<unicode hex="0133"/>
	<outline>
		<contour>
			<point x="210" y="-165" type="line"/>
			<point x="295" y="-165" type="line" smooth="yes"/>
			<point x="419" y="-165"/>
			<point x="500" y="-88"/>
			<point x="500" y="30" type="curve" smooth="yes"/>
			<point x="500" y="550" type="line"/>
			<point x="410" y="550" type="line"/>
			<point x="410" y="30" type="line" smooth="yes"/>
			<point x="410" y="-40"/>
			<point x="366" y="-83"/>
			<point x="295" y="-83" type="curve" smooth="yes"/>
			<point x="210" y="-83" type="line"/>
		</contour>
		<contour>
			<point x="105" y="0" type="line"/>
			<point x="195" y="0" type="line"/>
			<point x="195" y="550" type="line"/>
			<point x="105" y="550" type="line"/>
		</contour>
		<contour>
			<point x="140" y="645" type="curve" smooth="yes"/>
			<point x="160" y="645" type="line" smooth="yes"/>
			<point x="199" y="645"/>
			<point x="225" y="668"/>
			<point x="225" y="704" type="curve" smooth="yes"/>
			<point x="225" y="740"/>
			<point x="199" y="765"/>
			<point x="160" y="765" type="curve" smooth="yes"/>
			<point x="140" y="765" type="line" smooth="yes"/>
			<point x="101" y="765"/>
			<point x="75" y="740"/>
			<point x="75" y="704" type="curve" smooth="yes"/>
			<point x="75" y="667"/>
			<point x="101" y="645"/>
		</contour>
		<contour>
			<point x="440" y="645" type="curve" smooth="yes"/>
			<point x="460" y="645" type="line" smooth="yes"/>
			<point x="499" y="645"/>
			<point x="525" y="668"/>
			<point x="525" y="704" type="curve" smooth="yes"/>
			<point x="525" y="740"/>
			<point x="499" y="765"/>
			<point x="460" y="765" type="curve" smooth="yes"/>
			<point x="440" y="765" type="line" smooth="yes"/>
			<point x="401" y="765"/>
			<point x="375" y="740"/>
			<point x="375" y="704" type="curve" smooth="yes"/>
			<point x="375" y="667"/>
			<point x="401" y="645"/>
		</contour>
	</outline>
</glyph>
<glyph name="lslash" format="2">
	<advance width="600"/>
	<unicode hex="0142"/>
	<outline>
		<contour>
			<point x="100" y="230" type="line"/>
			<point x="470" y="480" type="line"/>
			<point x="470" y="560" type="line"/>
			<point x="100" y="310" type="line"/>
		</contour>
		<component base="l"/>
	</outline>
</glyph>
<glyph name="Eng" format="2">
	<advance width="600"/>
	<unicode hex="014A"/>
	<outline>
		<contour>
			<point x="240" y="-180" type="line"/>
			<point x="305" y="-180" type="line" smooth="yes"/>
			<point x="429" y="-180"/>
			<point x="510" y="-103"/>
			<point x="510" y="15" type="curve" smooth="yes"/>
			<point x="510" y="730" type="line"/>
			<point x="510" y="730"/>
			<point x="440" y="730"/>
			<point x="423" y="730" type="curve"/>
			<point x="423" y="397" type="line" smooth="yes"/>
			<point x="423" y="297"/>
			<point x="433" y="181"/>
			<point x="433" y="181" type="curve"/>
			<point x="210" y="730" type="line"/>
			<point x="90" y="730" type="line"/>
			<point x="90" y="0" type="line"/>
			<point x="90" y="0"/>
			<point x="161" y="0"/>
			<point x="177" y="0" type="curve"/>
			<point x="177" y="410" type="line" smooth="yes"/>
			<point x="177" y="510"/>
			<point x="168" y="625"/>
			<point x="168" y="625" type="curve"/>
			<point x="420" y="15" type="line"/>
			<point x="420" y="-55"/>
			<point x="376" y="-98"/>
			<point x="305" y="-98" type="curve" smooth="yes"/>
			<point x="240" y="-98" type="line"/>
		</contour>
	</outline>
</glyph>
<glyph name="eng" format="2">
	<advance width="600"/>
	<unicode hex="014B"/>
	<outline>
		<contour>
			<point x="240" y="-180" type="line"/>
			<point x="303" y="-180" type="line" smooth="yes"/>
			<point x="427" y="-180"/>
			<point x="508" y="-103"/>
			<point x="508" y="15" type="curve" smooth="yes"/>
			<point x="508" y="370" type="line" smooth="yes"/>
			<point x="508" y="487"/>
			<point x="439" y="560"/>
			<point x="329" y="560" type="curve" smooth="yes"/>
			<point x="237" y="560"/>
			<point x="184" y="510"/>
			<point x="184" y="424" type="curve"/>
			<point x="203" y="445" type="line"/>
			<point x="184" y="445" type="line"/>
			<point x="184" y="550" type="line"/>
			<point x="94" y="550" type="line"/>
			<point x="94" y="0" type="line"/>
			<point x="184" y="0" type="line"/>
			<point x="184" y="350" type="line" smooth="yes"/>
			<point x="184" y="435"/>
			<point x="228" y="484"/>
			<point x="303" y="484" type="curve" smooth="yes"/>
			<point x="375" y="484"/>
			<point x="418" y="438"/>
			<point x="418" y="360" type="curve" smooth="yes"/>
			<point x="418" y="15" type="line" smooth="yes"/>
			<point x="418" y="-55"/>
			<point x="374" y="-98"/>
			<point x="303" y="-98" type="curve" smooth="yes"/>
			<point x="240" y="-98" type="line"/>
		</contour>
	</outline>
</glyph>
<glyph name="OE" format="2">
	<advance width="600"/>
	<unicode hex="0152"/>
	<outline>
		<contour>
			<point x="195" y="-10" type="curve" smooth="yes"/>
			<point x="290" y="-10"/>
			<point x="305" y="80"/>
			<point x="305" y="80" type="curve"/>
			<point x="310" y="80" type="line"/>
			<point x="310" y="0" type="line"/>
			<point x="575" y="0" type="line"/>
			<point x="575" y="82" type="line"/>
			<point x="398" y="82" type="line"/>
			<point x="398" y="336" type="line"/>
			<point x="550" y="336" type="line"/>
			<point x="550" y="418" type="line"/>
			<point x="398" y="418" type="line"/>
			<point x="398" y="648" type="line"/>
			<point x="575" y="648" type="line"/>
			<point x="575" y="730" type="line"/>
			<point x="310" y="730" type="line"/>
			<point x="310" y="650" type="line"/>
			<point x="305" y="650" type="line"/>
			<point x="305" y="650"/>
			<point x="290" y="740"/>
			<point x="195" y="740" type="curve" smooth="yes"/>
			<point x="99" y="740"/>
			<point x="40" y="667"/>
			<point x="40" y="550" type="curve" smooth="yes"/>
			<point x="40" y="180" type="line" smooth="yes"/>
			<point x="40" y="63"/>
			<point x="99" y="-10"/>
		</contour>
		<contour>
			<point x="220" y="70" type="curve" smooth="yes"/>
			<point x="164" y="70"/>
			<point x="130" y="112"/>
			<point x="130" y="180" type="curve" smooth="yes"/>
			<point x="130" y="550" type="line" smooth="yes"/>
			<point x="130" y="618"/>
			<point x="164" y="660"/>
			<point x="220" y="660" type="curve" smooth="yes"/>
			<point x="276" y="660"/>
			<point x="310" y="618"/>
			<point x="310" y="550" type="curve" smooth="yes"/>
			<point x="310" y="180" type="line" smooth="yes"/>
			<point x="310" y="112"/>
			<point x="276" y="70"/>
		</contour>
	</outline>
</glyph>
<glyph name="oe" format="2">
	<advance width="600"/>
	<unicode hex="0153"/>
	<outline>
		<contour>
			<point x="180" y="-10" type="curve" smooth="yes"/>
			<point x="290" y="-10"/>
			<point x="298" y="70"/>
			<point x="298" y="70" type="curve"/>
			<point x="302" y="70" type="line"/>
			<point x="302" y="70"/>
			<point x="310" y="-10"/>
			<point x="420" y="-10" type="curve" smooth="yes"/>
			<point x="494" y="-10"/>
			<point x="549" y="42"/>
			<point x="562" y="125" type="curve"/>
			<point x="477" y="125" type="line"/>
			<point x="471" y="90"/>
			<point x="444" y="67"/>
			<point x="410" y="67" type="curve" smooth="yes"/>
			<point x="369" y="67"/>
			<point x="343" y="99"/>
			<point x="343" y="150" type="curve" smooth="yes"/>
			<point x="343" y="250" type="line"/>
			<point x="565" y="250" type="line"/>
			<point x="565" y="400" type="line" smooth="yes"/>
			<point x="565" y="498"/>
			<point x="509" y="560"/>
			<point x="420" y="560" type="curve" smooth="yes"/>
			<point x="310" y="560"/>
			<point x="302" y="480"/>
			<point x="302" y="480" type="curve"/>
			<point x="298" y="480" type="line"/>
			<point x="298" y="480"/>
			<point x="290" y="560"/>
			<point x="180" y="560" type="curve" smooth="yes"/>
			<point x="91" y="560"/>
			<point x="35" y="498"/>
			<point x="35" y="400" type="curve" smooth="yes"/>
			<point x="35" y="150" type="line" smooth="yes"/>
			<point x="35" y="52"/>
			<point x="91" y="-10"/>
		</contour>
		<contour>
			<point x="190" y="67" type="curve" smooth="yes"/>
			<point x="147" y="67"/>
			<point x="120" y="99"/>
			<point x="120" y="150" type="curve" smooth="yes"/>
			<point x="120" y="400" type="line" smooth="yes"/>
			<point x="120" y="451"/>
			<point x="147" y="483"/>
			<point x="190" y="483" type="curve" smooth="yes"/>
			<point x="231" y="483"/>
			<point x="257" y="451"/>
			<point x="257" y="400" type="curve" smooth="yes"/>
			<point x="257" y="150" type="line" smooth="yes"/>
			<point x="257" y="99"/>
			<point x="231" y="67"/>
		</contour>
		<contour>
			<point x="343" y="323" type="line"/>
			<point x="343" y="400" type="line" smooth="yes"/>
			<point x="343" y="451"/>
			<point x="369" y="483"/>
			<point x="410" y="483" type="curve" smooth="yes"/>
			<point x="453" y="483"/>
			<point x="480" y="451"/>
			<point x="480" y="400" type="curve" smooth="yes"/>
			<point x="480" y="323" type="line"/>
		</contour>
	</outline>
</glyph>
<glyph name="Tbar" format="2">
	<advance width="600"/>
	<unicode hex="0166"/>
	<outline>
		<contour>
			<point x="110" y="295" type="line"/>
			<point x="490" y="295" type="line"/>
			<point x="490" y="370" type="line"/>
			<point x="110" y="370" type="line"/>
		</contour>
		<component base="T"/>
	</outline>
</glyph>
<glyph name="tbar" format="2">
	<advance width="600"/>
	<unicode hex="0167"/>
	<guideline x="55"/>
	<outline>
		<contour>
			<point x="85" y="239" type="line"/>
			<point x="475" y="239" type="line"/>
			<point x="475" y="314" type="line"/>
			<point x="85" y="314" type="line"/>
		</contour>
		<component base="t"/>
	</outline>
</glyph>
<glyph name="longs" format="2">
	<advance width="600"/>
	<unicode hex="017F"/>
	<outline>
		<contour>
			<point x="165" y="571" type="curve" smooth="yes"/>
			<point x="165" y="0" type="line"/>
			<point x="255" y="0" type="line"/>
			<point x="255" y="570" type="line" smooth="yes"/>
			<point x="255" y="618"/>
			<point x="287" y="650"/>
			<point x="334" y="650" type="curve" smooth="yes"/>
			<point x="510" y="650" type="line"/>
			<point x="510" y="730" type="line"/>
			<point x="334" y="730" type="line" smooth="yes"/>
			<point x="233" y="730"/>
			<point x="165" y="666"/>
		</contour>
	</outline>
</glyph>
<glyph name="uni018F" format="2">
	<advance width="600"/>
	<unicode hex="018F"/>
	<outline>
		<contour>
			<point x="300" y="-10" type="curve" smooth="yes"/>
			<point x="430" y="-10"/>
			<point x="510" y="73"/>
			<point x="510" y="200" type="curve" smooth="yes"/>
			<point x="510" y="530" type="line" smooth="yes"/>
			<point x="510" y="661"/>
			<point x="433" y="740"/>
			<point x="300" y="740" type="curve" smooth="yes"/>
			<point x="169" y="740"/>
			<point x="90" y="659"/>
			<point x="90" y="530" type="curve"/>
			<point x="180" y="530" type="line"/>
			<point x="180" y="613"/>
			<point x="222" y="660"/>
			<point x="300" y="660" type="curve" smooth="yes"/>
			<point x="379" y="660"/>
			<point x="420" y="613"/>
			<point x="420" y="531" type="curve" smooth="yes"/>
			<point x="420" y="400" type="line"/>
			<point x="90" y="400" type="line"/>
			<point x="90" y="200" type="line" smooth="yes"/>
			<point x="90" y="73"/>
			<point x="170" y="-10"/>
		</contour>
		<contour>
			<point x="300" y="65" type="curve" smooth="yes"/>
			<point x="218" y="65"/>
			<point x="180" y="113"/>
			<point x="180" y="200" type="curve" smooth="yes"/>
			<point x="180" y="338" type="line"/>
			<point x="173" y="330" type="line"/>
			<point x="420" y="330" type="line"/>
			<point x="420" y="200" type="line" smooth="yes"/>
			<point x="420" y="113"/>
			<point x="382" y="65"/>
		</contour>
	</outline>
</glyph>
<glyph name="florin" format="2">
	<advance width="600"/>
	<unicode hex="0192"/>
	<outline>
		<contour>
			<point x="0" y="-180" type="line"/>
			<point x="105" y="-180" type="line" smooth="yes"/>
			<point x="229" y="-180"/>
			<point x="310" y="-103"/>
			<point x="310" y="15" type="curve" smooth="yes"/>
			<point x="310" y="413" type="line"/>
			<point x="535" y="413" type="line"/>
			<point x="535" y="495" type="line"/>
			<point x="310" y="495" type="line"/>
			<point x="310" y="590" type="line" smooth="yes"/>
			<point x="310" y="630"/>
			<point x="331" y="650"/>
			<point x="374" y="650" type="curve" smooth="yes"/>
			<point x="535" y="650" type="line"/>
			<point x="535" y="730" type="line"/>
			<point x="374" y="730" type="line" smooth="yes"/>
			<point x="277" y="730"/>
			<point x="220" y="679"/>
			<point x="220" y="591" type="curve" smooth="yes"/>
			<point x="220" y="495" type="line"/>
			<point x="60" y="495" type="line"/>
			<point x="60" y="413" type="line"/>
			<point x="220" y="413" type="line"/>
			<point x="220" y="15" type="line" smooth="yes"/>
			<point x="220" y="-55"/>
			<point x="176" y="-98"/>
			<point x="105" y="-98" type="curve" smooth="yes"/>
			<point x="0" y="-98" type="line"/>
		</contour>
	</outline>
</glyph>
<glyph name="Ohorn" format="2">
	<advance width="600"/>
	<unicode hex="01A0"/>
	<outline>
		<contour>
			<point x="300" y="-10" type="curve" smooth="yes"/>
			<point x="431" y="-10"/>
			<point x="510" y="69"/>
			<point x="510" y="200" type="curve" smooth="yes"/>
			<point x="510" y="531" type="line" smooth="yes"/>
			<point x="510" y="661"/>
			<point x="431" y="740"/>
			<point x="300" y="740" type="curve" smooth="yes"/>
			<point x="169" y="740"/>
			<point x="90" y="661"/>
			<point x="90" y="530" type="curve" smooth="yes"/>
			<point x="90" y="200" type="line" smooth="yes"/>
			<point x="90" y="69"/>
			<point x="169" y="-10"/>
		</contour>
		<contour>
			<point x="300" y="70" type="curve" smooth="yes"/>
			<point x="222" y="70"/>
			<point x="180" y="115"/>
			<point x="180" y="200" type="curve" smooth="yes"/>
			<point x="180" y="530" type="line" smooth="yes"/>
			<point x="180" y="615"/>
			<point x="222" y="660"/>
			<point x="300" y="660" type="curve" smooth="yes"/>
			<point x="378" y="660"/>
			<point x="420" y="615"/>
			<point x="420" y="530" type="curve" smooth="yes"/>
			<point x="420" y="200" type="line" smooth="yes"/>
			<point x="420" y="115"/>
			<point x="378" y="70"/>
		</contour>
		<contour>
			<point x="400" y="625" type="line"/>
			<point x="442" y="625" type="line" smooth="yes"/>
			<point x="514" y="625"/>
			<point x="562" y="669"/>
			<point x="562" y="735" type="curve" smooth="yes"/>
			<point x="562" y="840" type="line"/>
			<point x="487" y="840" type="line"/>
			<point x="487" y="740" type="line" smooth="yes"/>
			<point x="487" y="708"/>
			<point x="468" y="690"/>
			<point x="437" y="690" type="curve" smooth="yes"/>
			<point x="400" y="690" type="line"/>
		</contour>
	</outline>
</glyph>
<glyph name="ohorn" format="2">
	<advance width="600"/>
	<unicode hex="01A1"/>
	<outline>
		<contour>
			<point x="300" y="-10" type="curve" smooth="yes"/>
			<point x="431" y="-10"/>
			<point x="510" y="69"/>
			<point x="510" y="200" type="curve" smooth="yes"/>
			<point x="510" y="351" type="line" smooth="yes"/>
			<point x="510" y="481"/>
			<point x="431" y="560"/>
			<point x="300" y="560" type="curve" smooth="yes"/>
			<point x="169" y="560"/>
			<point x="90" y="481"/>
			<point x="90" y="350" type="curve" smooth="yes"/>
			<point x="90" y="200" type="line" smooth="yes"/>
			<point x="90" y="69"/>
			<point x="169" y="-10"/>
		</contour>
		<contour>
			<point x="300" y="70" type="curve" smooth="yes"/>
			<point x="222" y="70"/>
			<point x="180" y="115"/>
			<point x="180" y="200" type="curve" smooth="yes"/>
			<point x="180" y="350" type="line" smooth="yes"/>
			<point x="180" y="435"/>
			<point x="222" y="480"/>
			<point x="300" y="480" type="curve" smooth="yes"/>
			<point x="378" y="480"/>
			<point x="420" y="435"/>
			<point x="420" y="350" type="curve" smooth="yes"/>
			<point x="420" y="200" type="line" smooth="yes"/>
			<point x="420" y="115"/>
			<point x="378" y="70"/>
		</contour>
		<contour>
			<point x="395" y="459" type="line"/>
			<point x="436" y="459" type="line" smooth="yes"/>
			<point x="505" y="459"/>
			<point x="551" y="501"/>
			<point x="551" y="564" type="curve" smooth="yes"/>
			<point x="551" y="660" type="line"/>
			<point x="476" y="660" type="line"/>
			<point x="476" y="569" type="line" smooth="yes"/>
			<point x="476" y="541"/>
			<point x="458" y="524"/>
			<point x="431" y="524" type="curve" smooth="yes"/>
			<point x="395" y="524" type="line"/>
		</contour>
	</outline>
</glyph>
<glyph name="uni0237" format="2">
	<advance width="600"/>
	<unicode hex="0237"/>
	<outline>
		<contour>
			<point x="85" y="-180" type="line"/>
			<point x="214" y="-180" type="line" smooth="yes"/>
			<point x="349" y="-180"/>
			<point x="435" y="-98"/>
			<point x="435" y="31" type="curve" smooth="yes"/>
			<point x="435" y="550" type="line"/>
			<point x="115" y="550" type="line"/>
			<point x="115" y="468" type="line"/>
			<point x="345" y="468" type="line"/>
			<point x="345" y="31" type="line" smooth="yes"/>
			<point x="345" y="-51"/>
			<point x="297" y="-97"/>
			<point x="214" y="-97" type="curve" smooth="yes"/>
			<point x="85" y="-97" type="line"/>
		</contour>
	</outline>
</glyph>
<glyph name="uni0259" format="2">
	<advance width="600"/>
	<unicode hex="0259"/>
	<outline>
		<contour>
			<point x="300" y="-10" type="curve" smooth="yes"/>
			<point x="430" y="-10"/>
			<point x="510" y="73"/>
			<point x="510" y="200" type="curve" smooth="yes"/>
			<point x="510" y="350" type="line" smooth="yes"/>
			<point x="510" y="477"/>
			<point x="430" y="560"/>
			<point x="300" y="560" type="curve" smooth="yes"/>
			<point x="184" y="560"/>
			<point x="104" y="502"/>
			<point x="92" y="410" type="curve"/>
			<point x="182" y="410" type="line"/>
			<point x="192" y="459"/>
			<point x="231" y="484"/>
			<point x="300" y="484" type="curve" smooth="yes"/>
			<point x="382" y="484"/>
			<point x="422" y="437"/>
			<point x="422" y="350" type="curve" smooth="yes"/>
			<point x="422" y="297" type="line"/>
			<point x="90" y="297" type="line"/>
			<point x="90" y="200" type="line" smooth="yes"/>
			<point x="90" y="73"/>
			<point x="170" y="-10"/>
		</contour>
		<contour>
			<point x="300" y="65" type="curve" smooth="yes"/>
			<point x="218" y="65"/>
			<point x="178" y="113"/>
			<point x="178" y="200" type="curve" smooth="yes"/>
			<point x="178" y="237" type="line"/>
			<point x="171" y="229" type="line"/>
			<point x="422" y="229" type="line"/>
			<point x="422" y="200" type="line" smooth="yes"/>
			<point x="422" y="113"/>
			<point x="382" y="65"/>
		</contour>
	</outline>
</glyph>
<glyph name="uni02B9" format="2">
	<advance width="600"/>
	<unicode hex="02B9"/>
	<outline>
		<contour>
			<point x="165" y="410" type="line"/>
			<point x="245" y="410" type="line"/>
			<point x="375" y="721" type="line"/>
			<point x="245" y="721" type="line"/>
		</contour>
	</outline>
</glyph>
<glyph name="uni02BA" format="2">
	<advance width="600"/>
	<unicode hex="02BA"/>
	<outline>
		<contour>
			<point x="330" y="409" type="line"/>
			<point x="410" y="409" type="line"/>
			<point x="540" y="720" type="line"/>
			<point x="410" y="720" type="line"/>
		</contour>
		<contour>
			<point x="55" y="409" type="line"/>
			<point x="135" y="409" type="line"/>
			<point x="265" y="720" type="line"/>
			<point x="135" y="720" type="line"/>
		</contour>
	</outline>
</glyph>
<glyph name="circumflex" format="2">
	<advance width="600"/>
	<unicode hex="02C6"/>
	<note>
		Remove flat connection
	</note>
	<outline>
		<contour>
			<point x="117" y="645" type="line"/>
			<point x="219" y="645" type="line"/>
			<point x="297" y="720" type="line"/>
			<point x="303" y="720" type="line"/>
			<point x="378" y="645" type="line"/>
			<point x="483" y="645" type="line"/>
			<point x="342" y="785" type="line"/>
			<point x="260" y="785" type="line"/>
		</contour>
	</outline>
</glyph>
<glyph name="caron" format="2">
	<advance width="600"/>
	<unicode hex="02C7"/>
	<note>
		Remove flat connection
	</note>
	<outline>
		<contour>
			<point x="259" y="645" type="line"/>
			<point x="341" y="645" type="line"/>
			<point x="483" y="785" type="line"/>
			<point x="387" y="785" type="line"/>
			<point x="304" y="707" type="line"/>
			<point x="294" y="707" type="line"/>
			<point x="211" y="785" type="line"/>
			<point x="117" y="785" type="line"/>
		</contour>
	</outline>
</glyph>
<glyph name="breve" format="2">
	<advance width="600"/>
	<unicode hex="02D8"/>
	<outline>
		<contour>
			<point x="300" y="640" type="curve" smooth="yes"/>
			<point x="399" y="640"/>
			<point x="465" y="698"/>
			<point x="465" y="785" type="curve"/>
			<point x="394" y="785" type="line"/>
			<point x="394" y="732"/>
			<point x="358" y="699"/>
			<point x="299" y="699" type="curve" smooth="yes"/>
			<point x="241" y="699"/>
			<point x="206" y="732"/>
			<point x="206" y="785" type="curve"/>
			<point x="135" y="785" type="line"/>
			<point x="135" y="698"/>
			<point x="201" y="640"/>
		</contour>
	</outline>
</glyph>
<glyph name="dotaccent" format="2">
	<advance width="600"/>
	<unicode hex="02D9"/>
	<outline>
		<contour>
			<point x="280" y="641" type="curve" smooth="yes"/>
			<point x="300" y="641" type="line" smooth="yes"/>
			<point x="338" y="641"/>
			<point x="365" y="665"/>
			<point x="365" y="700" type="curve" smooth="yes"/>
			<point x="365" y="736"/>
			<point x="338" y="761"/>
			<point x="300" y="761" type="curve" smooth="yes"/>
			<point x="280" y="761" type="line" smooth="yes"/>
			<point x="242" y="761"/>
			<point x="215" y="736"/>
			<point x="215" y="700" type="curve" smooth="yes"/>
			<point x="215" y="665"/>
			<point x="242" y="641"/>
		</contour>
	</outline>
</glyph>
<glyph name="ogonek" format="2">
	<advance width="600"/>
	<unicode hex="02DB"/>
	<outline>
		<contour>
			<point x="307" y="-203" type="curve" smooth="yes"/>
			<point x="385" y="-203" type="line"/>
			<point x="385" y="-143" type="line"/>
			<point x="325" y="-143" type="line" smooth="yes"/>
			<point x="291" y="-143"/>
			<point x="270" y="-122"/>
			<point x="270" y="-93" type="curve" smooth="yes"/>
			<point x="270" y="-65"/>
			<point x="289" y="-36"/>
			<point x="334" y="1" type="curve"/>
			<point x="345" y="10" type="line"/>
			<point x="270" y="10" type="line"/>
			<point x="207" y="-34"/>
			<point x="185" y="-72"/>
			<point x="185" y="-110" type="curve" smooth="yes"/>
			<point x="185" y="-164"/>
			<point x="233" y="-203"/>
		</contour>
	</outline>
</glyph>
<glyph name="hungarumlaut" format="2">
	<advance width="600"/>
	<unicode hex="02DD"/>
	<outline>
		<contour>
			<point x="340" y="645" type="line"/>
			<point x="420" y="645" type="line"/>
			<point x="535" y="785" type="line"/>
			<point x="445" y="785" type="line"/>
		</contour>
		<contour>
			<point x="165" y="645" type="line"/>
			<point x="245" y="645" type="line"/>
			<point x="360" y="785" type="line"/>
			<point x="270" y="785" type="line"/>
		</contour>
	</outline>
</glyph>
<glyph name="hookabovecomb" format="2">
	<advance width="0"/>
	<unicode hex="0309"/>
	<outline>
		<contour>
			<point x="-292" y="708" type="curve" smooth="yes"/>
			<point x="-342" y="645" type="line"/>
			<point x="-257" y="645" type="line"/>
			<point x="-217" y="697" type="line" smooth="yes"/>
			<point x="-206" y="710"/>
			<point x="-200" y="731"/>
			<point x="-200" y="751" type="curve" smooth="yes"/>
			<point x="-200" y="797"/>
			<point x="-234" y="825"/>
			<point x="-285" y="825" type="curve" smooth="yes"/>
			<point x="-390" y="825" type="line"/>
			<point x="-390" y="760" type="line"/>
			<point x="-310" y="760" type="line" smooth="yes"/>
			<point x="-288" y="760"/>
			<point x="-278" y="754"/>
			<point x="-278" y="740" type="curve" smooth="yes"/>
			<point x="-278" y="730"/>
			<point x="-283" y="720"/>
		</contour>
	</outline>
</glyph>
<glyph name="uni031B" format="2">
	<advance width="0"/>
	<unicode hex="031B"/>
	<outline>
		<contour>
			<point x="-120" y="485" type="line"/>
			<point x="-95" y="485" type="line" smooth="yes"/>
			<point x="-32" y="485"/>
			<point x="10" y="523"/>
			<point x="10" y="580" type="curve" smooth="yes"/>
			<point x="10" y="660" type="line"/>
			<point x="-65" y="660" type="line"/>
			<point x="-65" y="585" type="line" smooth="yes"/>
			<point x="-65" y="562"/>
			<point x="-77" y="550"/>
			<point x="-100" y="550" type="curve" smooth="yes"/>
			<point x="-120" y="550" type="line"/>
		</contour>
	</outline>
</glyph>
<glyph name="dotbelowcomb" format="2">
	<advance width="0"/>
	<unicode hex="0323"/>
	<outline>
		<contour>
			<point x="-320" y="-205" type="curve" smooth="yes"/>
			<point x="-300" y="-205" type="line" smooth="yes"/>
			<point x="-262" y="-205"/>
			<point x="-235" y="-181"/>
			<point x="-235" y="-146" type="curve" smooth="yes"/>
			<point x="-235" y="-110"/>
			<point x="-262" y="-85"/>
			<point x="-300" y="-85" type="curve" smooth="yes"/>
			<point x="-320" y="-85" type="line" smooth="yes"/>
			<point x="-358" y="-85"/>
			<point x="-385" y="-110"/>
			<point x="-385" y="-146" type="curve" smooth="yes"/>
			<point x="-385" y="-181"/>
			<point x="-358" y="-205"/>
		</contour>
	</outline>
</glyph>
<glyph name="uni0326" format="2">
	<advance width="0"/>
	<unicode hex="0326"/>
	<outline>
		<contour>
			<point x="-410" y="-240" type="line"/>
			<point x="-315" y="-240" type="line"/>
			<point x="-210" y="-94" type="line"/>
			<point x="-315" y="-94" type="line"/>
		</contour>
	</outline>
</glyph>
<glyph name="uni0336" format="2">
	<advance width="0"/>
	<unicode hex="0336"/>
	<guideline x="-143" y="290" angle="0"/>
	<outline>
		<contour>
			<point x="-630" y="290" type="line"/>
			<point x="30" y="290" type="line"/>
			<point x="30" y="360" type="line"/>
			<point x="-630" y="360" type="line"/>
		</contour>
	</outline>
</glyph>
<glyph name="uni0338" format="2">
	<advance width="0"/>
	<unicode hex="0338"/>
	<outline>
		<contour>
			<point x="-480" y="-60" type="line"/>
			<point x="-417" y="-60" type="line"/>
			<point x="-120" y="780" type="line"/>
			<point x="-183" y="780" type="line"/>
		</contour>
	</outline>
</glyph>
<glyph name="uni0374" format="2">
	<advance width="600"/>
	<unicode hex="0374"/>
	<outline>
		<contour>
			<point x="165" y="410" type="line"/>
			<point x="245" y="410" type="line"/>
			<point x="375" y="721" type="line"/>
			<point x="245" y="721" type="line"/>
		</contour>
	</outline>
</glyph>
<glyph name="uni0394" format="2">
	<advance width="600"/>
	<unicode hex="0394"/>
	<outline>
		<contour>
			<point x="50" y="0" type="line"/>
			<point x="142" y="0" type="line"/>
			<point x="264" y="496" type="line" smooth="yes"/>
			<point x="287" y="590"/>
			<point x="300" y="660"/>
			<point x="300" y="660" type="curve"/>
			<point x="300" y="660"/>
			<point x="313" y="590"/>
			<point x="336" y="495" type="curve" smooth="yes"/>
			<point x="459" y="0" type="line"/>
			<point x="550" y="0" type="line"/>
			<point x="361" y="730" type="line"/>
			<point x="240" y="730" type="line"/>
		</contour>
		<contour>
			<point x="109" y="0" type="line"/>
			<point x="499" y="0" type="line"/>
			<point x="499" y="80" type="line"/>
			<point x="109" y="80" type="line"/>
		</contour>
	</outline>
</glyph>
<glyph name="uni03A9" format="2">
	<advance width="600"/>
	<unicode hex="03A9"/>
	<outline>
		<contour>
			<point x="50" y="0" type="line"/>
			<point x="260" y="0" type="line"/>
			<point x="260" y="110" type="line"/>
			<point x="207" y="110"/>
			<point x="170" y="164"/>
			<point x="170" y="240" type="curve" smooth="yes"/>
			<point x="170" y="525" type="line" smooth="yes"/>
			<point x="170" y="607"/>
			<point x="221" y="660"/>
			<point x="300" y="660" type="curve" smooth="yes"/>
			<point x="379" y="660"/>
			<point x="430" y="607"/>
			<point x="430" y="525" type="curve" smooth="yes"/>
			<point x="430" y="240" type="line" smooth="yes"/>
			<point x="430" y="164"/>
			<point x="393" y="110"/>
			<point x="340" y="110" type="curve"/>
			<point x="340" y="0" type="line"/>
			<point x="551" y="0" type="line"/>
			<point x="551" y="80" type="line"/>
			<point x="405" y="80" type="line"/>
			<point x="405" y="86" type="line"/>
			<point x="405" y="86"/>
			<point x="520" y="100"/>
			<point x="520" y="245" type="curve" smooth="yes"/>
			<point x="520" y="525" type="line" smooth="yes"/>
			<point x="520" y="656"/>
			<point x="435" y="740"/>
			<point x="300" y="740" type="curve" smooth="yes"/>
			<point x="165" y="740"/>
			<point x="80" y="656"/>
			<point x="80" y="525" type="curve" smooth="yes"/>
			<point x="80" y="245" type="line" smooth="yes"/>
			<point x="80" y="100"/>
			<point x="195" y="85"/>
			<point x="195" y="85" type="curve"/>
			<point x="195" y="80" type="line"/>
			<point x="50" y="80" type="line"/>
		</contour>
	</outline>
</glyph>
<glyph name="lambda" format="2">
	<advance width="600"/>
	<unicode hex="03BB"/>
	<outline>
		<contour>
			<point x="50" y="0" type="line"/>
			<point x="148" y="0" type="line"/>
			<point x="279" y="357" type="line" smooth="yes"/>
			<point x="302" y="420"/>
			<point x="310" y="467"/>
			<point x="310" y="467" type="curve"/>
			<point x="310" y="467"/>
			<point x="317" y="420"/>
			<point x="337" y="357" type="curve" smooth="yes"/>
			<point x="452" y="0" type="line"/>
			<point x="550" y="0" type="line"/>
			<point x="287" y="730" type="line"/>
			<point x="191" y="730" type="line"/>
			<point x="265" y="541" type="line"/>
		</contour>
	</outline>
</glyph>
<glyph name="uni03BC" format="2">
	<advance width="600"/>
	<unicode hex="03BC"/>
	<outline>
		<contour>
			<point x="93" y="-180" type="line"/>
			<point x="182" y="-180" type="line"/>
			<point x="171" y="-13" type="line" smooth="yes"/>
			<point x="169" y="18"/>
			<point x="156" y="67"/>
			<point x="154" y="67" type="curve"/>
			<point x="158" y="67" type="line"/>
			<point x="158" y="67"/>
			<point x="182" y="-10"/>
			<point x="309" y="-10" type="curve" smooth="yes"/>
			<point x="431" y="-10"/>
			<point x="507" y="69"/>
			<point x="507" y="194" type="curve" smooth="yes"/>
			<point x="507" y="550" type="line"/>
			<point x="417" y="550" type="line"/>
			<point x="417" y="194" type="line" smooth="yes"/>
			<point x="417" y="115"/>
			<point x="374" y="69"/>
			<point x="299" y="69" type="curve" smooth="yes"/>
			<point x="225" y="69"/>
			<point x="183" y="115"/>
			<point x="183" y="194" type="curve" smooth="yes"/>
			<point x="183" y="550" type="line"/>
			<point x="93" y="550" type="line"/>
		</contour>
	</outline>
</glyph>
<glyph name="pi" format="2">
	<advance width="600"/>
	<unicode hex="03C0"/>
	<outline>
		<contour>
			<point x="552" y="-5" type="curve" smooth="yes"/>
			<point x="575" y="-5" type="line"/>
			<point x="575" y="79" type="line"/>
			<point x="547" y="79" type="line" smooth="yes"/>
			<point x="500" y="79"/>
			<point x="475" y="109"/>
			<point x="475" y="164" type="curve" smooth="yes"/>
			<point x="475" y="472" type="line"/>
			<point x="555" y="472" type="line"/>
			<point x="555" y="550" type="line"/>
			<point x="20" y="550" type="line"/>
			<point x="20" y="469" type="line"/>
			<point x="100" y="469" type="line"/>
			<point x="100" y="0" type="line"/>
			<point x="190" y="0" type="line"/>
			<point x="190" y="468" type="line"/>
			<point x="385" y="468" type="line"/>
			<point x="385" y="170" type="line" smooth="yes"/>
			<point x="385" y="64"/>
			<point x="451" y="-5"/>
		</contour>
	</outline>
</glyph>
<glyph name="uni0402" format="2">
	<advance width="600"/>
	<unicode hex="0402"/>
	<outline>
		<contour>
			<point x="260" y="-180" type="line"/>
			<point x="330" y="-180" type="line" smooth="yes"/>
			<point x="454" y="-180"/>
			<point x="535" y="-103"/>
			<point x="535" y="15" type="curve" smooth="yes"/>
			<point x="535" y="316" type="line" smooth="yes"/>
			<point x="535" y="425"/>
			<point x="473" y="495"/>
			<point x="379" y="495" type="curve" smooth="yes"/>
			<point x="321" y="495"/>
			<point x="268" y="469"/>
			<point x="216" y="413" type="curve" smooth="yes"/>
			<point x="200" y="396" type="line"/>
			<point x="200" y="651" type="line"/>
			<point x="320" y="651" type="line"/>
			<point x="320" y="730" type="line"/>
			<point x="0" y="730" type="line"/>
			<point x="0" y="651" type="line"/>
			<point x="110" y="651" type="line"/>
			<point x="110" y="0" type="line"/>
			<point x="200" y="0" type="line"/>
			<point x="200" y="310" type="line"/>
			<point x="244" y="357" type="line" smooth="yes"/>
			<point x="283" y="399"/>
			<point x="320" y="419"/>
			<point x="358" y="419" type="curve" smooth="yes"/>
			<point x="414" y="419"/>
			<point x="445" y="377"/>
			<point x="445" y="296" type="curve" smooth="yes"/>
			<point x="445" y="15" type="line" smooth="yes"/>
			<point x="445" y="-55"/>
			<point x="401" y="-98"/>
			<point x="330" y="-98" type="curve" smooth="yes"/>
			<point x="260" y="-98" type="line"/>
		</contour>
	</outline>
</glyph>
<glyph name="uni0409" format="2">
	<advance width="600"/>
	<unicode hex="0409"/>
	<outline>
		<contour>
			<point x="-5" y="-5" type="line"/>
			<point x="10" y="-5" type="line" smooth="yes"/>
			<point x="94" y="-5"/>
			<point x="147" y="71"/>
			<point x="148" y="194" type="curve" smooth="yes"/>
			<point x="153" y="655" type="line"/>
			<point x="280" y="655" type="line"/>
			<point x="280" y="0" type="line"/>
			<point x="420" y="0" type="line" smooth="yes"/>
			<point x="516" y="0"/>
			<point x="580" y="62"/>
			<point x="580" y="155" type="curve" smooth="yes"/>
			<point x="580" y="275" type="line" smooth="yes"/>
			<point x="580" y="368"/>
			<point x="516" y="430"/>
			<point x="420" y="430" type="curve" smooth="yes"/>
			<point x="360" y="430" type="line"/>
			<point x="360" y="730" type="line"/>
			<point x="74" y="730" type="line"/>
			<point x="69" y="194" type="line" smooth="yes"/>
			<point x="68" y="120"/>
			<point x="47" y="75"/>
			<point x="13" y="75" type="curve" smooth="yes"/>
			<point x="-5" y="75" type="line"/>
		</contour>
		<contour>
			<point x="420" y="75" type="curve" smooth="yes"/>
			<point x="360" y="75" type="line"/>
			<point x="360" y="355" type="line"/>
			<point x="420" y="355" type="line" smooth="yes"/>
			<point x="468" y="355"/>
			<point x="500" y="323"/>
			<point x="500" y="275" type="curve" smooth="yes"/>
			<point x="500" y="155" type="line" smooth="yes"/>
			<point x="500" y="107"/>
			<point x="468" y="75"/>
		</contour>
	</outline>
</glyph>
<glyph name="uni040A" format="2">
	<advance width="600"/>
	<unicode hex="040A"/>
	<outline>
		<contour>
			<point x="53" y="0" type="line"/>
			<point x="133" y="0" type="line"/>
			<point x="133" y="355" type="line"/>
			<point x="280" y="355" type="line"/>
			<point x="280" y="0" type="line"/>
			<point x="420" y="0" type="line" smooth="yes"/>
			<point x="518" y="0"/>
			<point x="580" y="60"/>
			<point x="580" y="155" type="curve" smooth="yes"/>
			<point x="580" y="275" type="line" smooth="yes"/>
			<point x="580" y="370"/>
			<point x="518" y="430"/>
			<point x="420" y="430" type="curve" smooth="yes"/>
			<point x="360" y="430" type="line"/>
			<point x="360" y="730" type="line"/>
			<point x="280" y="730" type="line"/>
			<point x="280" y="430" type="line"/>
			<point x="133" y="430" type="line"/>
			<point x="133" y="730" type="line"/>
			<point x="53" y="730" type="line"/>
		</contour>
		<contour>
			<point x="420" y="75" type="curve" smooth="yes"/>
			<point x="360" y="75" type="line"/>
			<point x="360" y="355" type="line"/>
			<point x="420" y="355" type="line" smooth="yes"/>
			<point x="470" y="355"/>
			<point x="500" y="325"/>
			<point x="500" y="275" type="curve" smooth="yes"/>
			<point x="500" y="155" type="line" smooth="yes"/>
			<point x="500" y="105"/>
			<point x="470" y="75"/>
		</contour>
	</outline>
</glyph>
<glyph name="uni040B" format="2">
	<advance width="600"/>
	<unicode hex="040B"/>
	<note>
		Chenck hor metrics.
	</note>
	<outline>
		<contour>
			<point x="110" y="0" type="line"/>
			<point x="200" y="0" type="line"/>
			<point x="200" y="310" type="line"/>
			<point x="244" y="357" type="line" smooth="yes"/>
			<point x="283" y="399"/>
			<point x="320" y="419"/>
			<point x="358" y="419" type="curve" smooth="yes"/>
			<point x="414" y="419"/>
			<point x="445" y="377"/>
			<point x="445" y="296" type="curve" smooth="yes"/>
			<point x="445" y="0" type="line"/>
			<point x="535" y="0" type="line"/>
			<point x="535" y="316" type="line" smooth="yes"/>
			<point x="535" y="425"/>
			<point x="473" y="495"/>
			<point x="379" y="495" type="curve" smooth="yes"/>
			<point x="321" y="495"/>
			<point x="268" y="469"/>
			<point x="216" y="413" type="curve" smooth="yes"/>
			<point x="200" y="396" type="line"/>
			<point x="200" y="651" type="line"/>
			<point x="320" y="651" type="line"/>
			<point x="320" y="730" type="line"/>
			<point x="0" y="730" type="line"/>
			<point x="0" y="651" type="line"/>
			<point x="110" y="651" type="line"/>
		</contour>
	</outline>
</glyph>
<glyph name="uni040F" format="2">
	<advance width="600"/>
	<unicode hex="040F"/>
	<outline>
		<contour>
			<point x="255" y="-125" type="line"/>
			<point x="345" y="-125" type="line"/>
			<point x="345" y="0" type="line"/>
			<point x="506" y="0" type="line"/>
			<point x="506" y="730" type="line"/>
			<point x="416" y="730" type="line"/>
			<point x="416" y="82" type="line"/>
			<point x="184" y="82" type="line"/>
			<point x="184" y="730" type="line"/>
			<point x="94" y="730" type="line"/>
			<point x="94" y="0" type="line"/>
			<point x="255" y="0" type="line"/>
		</contour>
	</outline>
</glyph>
<glyph name="uni0411" format="2">
	<advance width="600"/>
	<unicode hex="0411"/>
	<outline>
		<contour>
			<point x="94" y="0" type="line"/>
			<point x="305" y="0" type="line" smooth="yes"/>
			<point x="444" y="0"/>
			<point x="530" y="84"/>
			<point x="530" y="214" type="curve" smooth="yes"/>
			<point x="530" y="344"/>
			<point x="444" y="428"/>
			<point x="305" y="428" type="curve" smooth="yes"/>
			<point x="184" y="428" type="line"/>
			<point x="184" y="648" type="line"/>
			<point x="500" y="648" type="line"/>
			<point x="500" y="730" type="line"/>
			<point x="94" y="730" type="line"/>
		</contour>
		<contour>
			<point x="305" y="82" type="curve" smooth="yes"/>
			<point x="184" y="82" type="line"/>
			<point x="184" y="346" type="line"/>
			<point x="305" y="346" type="line" smooth="yes"/>
			<point x="387" y="346"/>
			<point x="437" y="296"/>
			<point x="437" y="214" type="curve" smooth="yes"/>
			<point x="437" y="132"/>
			<point x="387" y="82"/>
		</contour>
	</outline>
</glyph>
<glyph name="uni0413" format="2">
	<advance width="600"/>
	<unicode hex="0413"/>
	<outline>
		<contour>
			<point x="110" y="0" type="line"/>
			<point x="200" y="0" type="line"/>
			<point x="200" y="648" type="line"/>
			<point x="535" y="648" type="line"/>
			<point x="535" y="730" type="line"/>
			<point x="110" y="730" type="line"/>
		</contour>
	</outline>
</glyph>
<glyph name="uni0414" format="2">
	<advance width="600"/>
	<unicode hex="0414"/>
	<outline>
		<contour>
			<point x="25" y="-140" type="line"/>
			<point x="105" y="-140" type="line"/>
			<point x="105" y="0" type="line"/>
			<point x="495" y="0" type="line"/>
			<point x="495" y="-140" type="line"/>
			<point x="575" y="-140" type="line"/>
			<point x="575" y="77" type="line"/>
			<point x="505" y="77" type="line"/>
			<point x="505" y="730" type="line"/>
			<point x="131" y="730" type="line"/>
			<point x="124" y="298" type="line" smooth="yes"/>
			<point x="121" y="169"/>
			<point x="70" y="77"/>
			<point x="70" y="77" type="curve"/>
			<point x="25" y="77" type="line"/>
		</contour>
		<contour>
			<point x="164" y="77" type="line"/>
			<point x="164" y="77"/>
			<point x="210" y="157"/>
			<point x="212" y="298" type="curve" smooth="yes"/>
			<point x="217" y="650" type="line"/>
			<point x="415" y="650" type="line"/>
			<point x="415" y="77" type="line"/>
		</contour>
	</outline>
</glyph>
<glyph name="uni0416" format="2">
	<advance width="600"/>
	<unicode hex="0416"/>
	<outline>
		<contour>
			<point x="12" y="0" type="line"/>
			<point x="104" y="0" type="line"/>
			<point x="217" y="342" type="line"/>
			<point x="262" y="342" type="line"/>
			<point x="262" y="0" type="line"/>
			<point x="338" y="0" type="line"/>
			<point x="338" y="342" type="line"/>
			<point x="383" y="342" type="line"/>
			<point x="495" y="0" type="line"/>
			<point x="588" y="0" type="line"/>
			<point x="458" y="375" type="line"/>
			<point x="578" y="730" type="line"/>
			<point x="484" y="730" type="line"/>
			<point x="381" y="406" type="line"/>
			<point x="338" y="406" type="line"/>
			<point x="338" y="730" type="line"/>
			<point x="262" y="730" type="line"/>
			<point x="262" y="406" type="line"/>
			<point x="220" y="406" type="line"/>
			<point x="116" y="730" type="line"/>
			<point x="22" y="730" type="line"/>
			<point x="144" y="376" type="line"/>
		</contour>
	</outline>
</glyph>
<glyph name="uni0417" format="2">
	<advance width="600"/>
	<unicode hex="0417"/>
	<outline>
		<contour>
			<point x="290" y="-10" type="curve" smooth="yes"/>
			<point x="438" y="-10"/>
			<point x="532" y="80"/>
			<point x="532" y="206" type="curve" smooth="yes"/>
			<point x="532" y="323"/>
			<point x="457" y="400"/>
			<point x="342" y="398" type="curve"/>
			<point x="342" y="383" type="line"/>
			<point x="449" y="381"/>
			<point x="518" y="454"/>
			<point x="518" y="555" type="curve" smooth="yes"/>
			<point x="518" y="674"/>
			<point x="429" y="740"/>
			<point x="289" y="740" type="curve" smooth="yes"/>
			<point x="153" y="740"/>
			<point x="64" y="659"/>
			<point x="64" y="535" type="curve"/>
			<point x="154" y="535" type="line"/>
			<point x="154" y="610"/>
			<point x="208" y="660"/>
			<point x="289" y="660" type="curve" smooth="yes"/>
			<point x="371" y="660"/>
			<point x="424" y="617"/>
			<point x="424" y="543" type="curve" smooth="yes"/>
			<point x="424" y="470"/>
			<point x="370" y="412"/>
			<point x="289" y="412" type="curve" smooth="yes"/>
			<point x="200" y="412" type="line"/>
			<point x="200" y="330" type="line"/>
			<point x="290" y="330" type="line" smooth="yes"/>
			<point x="379" y="330"/>
			<point x="437" y="278"/>
			<point x="437" y="200" type="curve" smooth="yes"/>
			<point x="437" y="123"/>
			<point x="380" y="70"/>
			<point x="290" y="70" type="curve" smooth="yes"/>
			<point x="208" y="70"/>
			<point x="151" y="114"/>
			<point x="143" y="185" type="curve"/>
			<point x="53" y="185" type="line"/>
			<point x="61" y="66"/>
			<point x="153" y="-10"/>
		</contour>
	</outline>
</glyph>
<glyph name="uni0418" format="2">
	<advance width="600"/>
	<unicode hex="0418"/>
	<outline>
		<contour>
			<point x="90" y="0" type="line"/>
			<point x="210" y="0" type="line"/>
			<point x="433" y="625" type="line"/>
			<point x="433" y="625"/>
			<point x="423" y="510"/>
			<point x="423" y="410" type="curve" smooth="yes"/>
			<point x="423" y="0" type="line"/>
			<point x="510" y="0" type="line"/>
			<point x="510" y="730" type="line"/>
			<point x="390" y="730" type="line"/>
			<point x="168" y="105" type="line"/>
			<point x="168" y="105"/>
			<point x="177" y="220"/>
			<point x="177" y="320" type="curve" smooth="yes"/>
			<point x="177" y="730" type="line"/>
			<point x="90" y="730" type="line"/>
		</contour>
	</outline>
</glyph>
<glyph name="uni041B" format="2">
	<advance width="600"/>
	<unicode hex="041B"/>
	<outline>
		<contour>
			<point x="20" y="-5" type="line"/>
			<point x="43" y="-5" type="line" smooth="yes"/>
			<point x="158" y="-5"/>
			<point x="210" y="75"/>
			<point x="212" y="254" type="curve" smooth="yes"/>
			<point x="217" y="648" type="line"/>
			<point x="416" y="648" type="line"/>
			<point x="416" y="0" type="line"/>
			<point x="506" y="0" type="line"/>
			<point x="506" y="730" type="line"/>
			<point x="128" y="730" type="line"/>
			<point x="122" y="254" type="line" smooth="yes"/>
			<point x="120" y="126"/>
			<point x="97" y="79"/>
			<point x="38" y="79" type="curve" smooth="yes"/>
			<point x="20" y="79" type="line"/>
		</contour>
	</outline>
</glyph>
<glyph name="uni041F" format="2">
	<advance width="600"/>
	<unicode hex="041F"/>
	<outline>
		<contour>
			<point x="94" y="0" type="line"/>
			<point x="184" y="0" type="line"/>
			<point x="184" y="648" type="line"/>
			<point x="416" y="648" type="line"/>
			<point x="416" y="0" type="line"/>
			<point x="506" y="0" type="line"/>
			<point x="506" y="730" type="line"/>
			<point x="94" y="730" type="line"/>
		</contour>
	</outline>
</glyph>
<glyph name="uni0423" format="2">
	<advance width="600"/>
	<unicode hex="0423"/>
	<outline>
		<contour>
			<point x="191" y="0" type="line"/>
			<point x="287" y="0" type="line"/>
			<point x="550" y="730" type="line"/>
			<point x="452" y="730" type="line"/>
			<point x="337" y="373" type="line" smooth="yes"/>
			<point x="317" y="310"/>
			<point x="310" y="263"/>
			<point x="310" y="263" type="curve"/>
			<point x="310" y="263"/>
			<point x="302" y="310"/>
			<point x="279" y="373" type="curve" smooth="yes"/>
			<point x="148" y="730" type="line"/>
			<point x="50" y="730" type="line"/>
			<point x="265" y="189" type="line"/>
		</contour>
	</outline>
</glyph>
<glyph name="uni0424" format="2">
	<advance width="600"/>
	<unicode hex="0424"/>
	<outline>
		<contour>
			<point x="258" y="45" type="curve"/>
			<point x="258" y="-25" type="line"/>
			<point x="342" y="-25" type="line"/>
			<point x="342" y="45" type="line"/>
			<point x="465" y="45"/>
			<point x="546" y="127"/>
			<point x="546" y="253" type="curve" smooth="yes"/>
			<point x="546" y="487" type="line" smooth="yes"/>
			<point x="546" y="616"/>
			<point x="466" y="700"/>
			<point x="342" y="700" type="curve"/>
			<point x="342" y="770" type="line"/>
			<point x="258" y="770" type="line"/>
			<point x="258" y="700" type="line"/>
			<point x="134" y="700"/>
			<point x="54" y="616"/>
			<point x="54" y="487" type="curve" smooth="yes"/>
			<point x="54" y="253" type="line" smooth="yes"/>
			<point x="54" y="127"/>
			<point x="135" y="45"/>
		</contour>
		<contour>
			<point x="258" y="624" type="curve"/>
			<point x="258" y="121" type="line"/>
			<point x="183" y="121"/>
			<point x="138" y="171"/>
			<point x="138" y="253" type="curve" smooth="yes"/>
			<point x="138" y="487" type="line" smooth="yes"/>
			<point x="138" y="572"/>
			<point x="183" y="624"/>
		</contour>
		<contour>
			<point x="342" y="121" type="curve"/>
			<point x="342" y="624" type="line"/>
			<point x="417" y="624"/>
			<point x="462" y="572"/>
			<point x="462" y="487" type="curve" smooth="yes"/>
			<point x="462" y="253" type="line" smooth="yes"/>
			<point x="462" y="171"/>
			<point x="417" y="121"/>
		</contour>
	</outline>
</glyph>
<glyph name="uni0426" format="2">
	<advance width="600"/>
	<unicode hex="0426"/>
	<outline>
		<contour>
			<point x="485" y="-140" type="line"/>
			<point x="565" y="-140" type="line"/>
			<point x="565" y="80" type="line"/>
			<point x="490" y="80" type="line"/>
			<point x="490" y="730" type="line"/>
			<point x="400" y="730" type="line"/>
			<point x="400" y="80" type="line"/>
			<point x="184" y="80" type="line"/>
			<point x="184" y="730" type="line"/>
			<point x="94" y="730" type="line"/>
			<point x="94" y="0" type="line"/>
			<point x="485" y="0" type="line"/>
		</contour>
	</outline>
</glyph>
<glyph name="uni0427" format="2">
	<advance width="600"/>
	<unicode hex="0427"/>
	<outline>
		<contour>
			<point x="415" y="281" type="curve"/>
			<point x="415" y="0" type="line"/>
			<point x="505" y="0" type="line"/>
			<point x="505" y="730" type="line"/>
			<point x="415" y="730" type="line"/>
			<point x="415" y="361" type="line"/>
			<point x="415" y="361"/>
			<point x="382" y="351"/>
			<point x="295" y="351" type="curve" smooth="yes"/>
			<point x="216" y="351"/>
			<point x="165" y="402"/>
			<point x="165" y="481" type="curve" smooth="yes"/>
			<point x="165" y="730" type="line"/>
			<point x="75" y="730" type="line"/>
			<point x="75" y="481" type="line" smooth="yes"/>
			<point x="75" y="353"/>
			<point x="155" y="271"/>
			<point x="280" y="271" type="curve" smooth="yes"/>
			<point x="373" y="271"/>
			<point x="415" y="281"/>
		</contour>
	</outline>
</glyph>
<glyph name="uni0428" format="2">
	<advance width="600"/>
	<unicode hex="0428"/>
	<outline>
		<contour>
			<point x="66" y="0" type="line"/>
			<point x="536" y="0" type="line"/>
			<point x="536" y="730" type="line"/>
			<point x="453" y="730" type="line"/>
			<point x="453" y="68" type="line"/>
			<point x="337" y="68" type="line"/>
			<point x="337" y="730" type="line"/>
			<point x="265" y="730" type="line"/>
			<point x="265" y="68" type="line"/>
			<point x="148" y="68" type="line"/>
			<point x="148" y="730" type="line"/>
			<point x="64" y="730" type="line"/>
		</contour>
	</outline>
</glyph>
<glyph name="uni042A" format="2">
	<advance width="600"/>
	<unicode hex="042A"/>
	<outline>
		<contour>
			<point x="135" y="0" type="line"/>
			<point x="330" y="0" type="line" smooth="yes"/>
			<point x="461" y="0"/>
			<point x="550" y="87"/>
			<point x="550" y="215" type="curve" smooth="yes"/>
			<point x="550" y="344"/>
			<point x="461" y="430"/>
			<point x="330" y="430" type="curve" smooth="yes"/>
			<point x="225" y="430" type="line"/>
			<point x="225" y="730" type="line"/>
			<point x="-5" y="730" type="line"/>
			<point x="-5" y="648" type="line"/>
			<point x="135" y="648" type="line"/>
		</contour>
		<contour>
			<point x="325" y="82" type="curve" smooth="yes"/>
			<point x="225" y="82" type="line"/>
			<point x="225" y="348" type="line"/>
			<point x="325" y="348" type="line" smooth="yes"/>
			<point x="404" y="348"/>
			<point x="457" y="295"/>
			<point x="457" y="215" type="curve" smooth="yes"/>
			<point x="457" y="135"/>
			<point x="404" y="82"/>
		</contour>
	</outline>
</glyph>
<glyph name="uni042B" format="2">
	<advance width="600"/>
	<unicode hex="042B"/>
	<outline>
		<contour>
			<point x="65" y="0" type="line"/>
			<point x="190" y="0" type="line" smooth="yes"/>
			<point x="312" y="0"/>
			<point x="386" y="71"/>
			<point x="386" y="189" type="curve" smooth="yes"/>
			<point x="386" y="240" type="line" smooth="yes"/>
			<point x="386" y="357"/>
			<point x="311" y="430"/>
			<point x="190" y="430" type="curve" smooth="yes"/>
			<point x="149" y="430" type="line"/>
			<point x="149" y="730" type="line"/>
			<point x="65" y="730" type="line"/>
		</contour>
		<contour>
			<point x="190" y="79" type="curve" smooth="yes"/>
			<point x="149" y="79" type="line"/>
			<point x="149" y="351" type="line"/>
			<point x="190" y="351" type="line" smooth="yes"/>
			<point x="260" y="351"/>
			<point x="300" y="310"/>
			<point x="300" y="240" type="curve" smooth="yes"/>
			<point x="300" y="190" type="line" smooth="yes"/>
			<point x="300" y="120"/>
			<point x="260" y="79"/>
		</contour>
		<contour>
			<point x="451" y="0" type="line"/>
			<point x="535" y="0" type="line"/>
			<point x="535" y="730" type="line"/>
			<point x="451" y="730" type="line"/>
		</contour>
	</outline>
</glyph>
<glyph name="uni042D" format="2">
	<advance width="600"/>
	<unicode hex="042D"/>
	<outline>
		<contour>
			<point x="296" y="-10" type="curve" smooth="yes"/>
			<point x="429" y="-10"/>
			<point x="510" y="69"/>
			<point x="510" y="200" type="curve" smooth="yes"/>
			<point x="510" y="530" type="line" smooth="yes"/>
			<point x="510" y="661"/>
			<point x="429" y="740"/>
			<point x="296" y="740" type="curve" smooth="yes"/>
			<point x="165" y="740"/>
			<point x="84" y="659"/>
			<point x="84" y="530" type="curve"/>
			<point x="174" y="530" type="line"/>
			<point x="174" y="613"/>
			<point x="218" y="660"/>
			<point x="296" y="660" type="curve" smooth="yes"/>
			<point x="375" y="660"/>
			<point x="420" y="613"/>
			<point x="420" y="531" type="curve" smooth="yes"/>
			<point x="420" y="200" type="line" smooth="yes"/>
			<point x="420" y="117"/>
			<point x="375" y="70"/>
			<point x="296" y="70" type="curve" smooth="yes"/>
			<point x="218" y="70"/>
			<point x="174" y="117"/>
			<point x="174" y="200" type="curve"/>
			<point x="84" y="200" type="line"/>
			<point x="84" y="71"/>
			<point x="165" y="-10"/>
		</contour>
		<contour>
			<point x="195" y="327" type="line"/>
			<point x="442" y="327" type="line"/>
			<point x="442" y="409" type="line"/>
			<point x="195" y="409" type="line"/>
		</contour>
	</outline>
</glyph>
<glyph name="uni042E" format="2">
	<advance width="600"/>
	<unicode hex="042E"/>
	<outline>
		<contour>
			<point x="389" y="-10" type="curve" smooth="yes"/>
			<point x="495" y="-10"/>
			<point x="560" y="63"/>
			<point x="560" y="180" type="curve" smooth="yes"/>
			<point x="560" y="550" type="line" smooth="yes"/>
			<point x="560" y="667"/>
			<point x="495" y="740"/>
			<point x="389" y="740" type="curve" smooth="yes"/>
			<point x="285" y="740"/>
			<point x="222" y="668"/>
			<point x="222" y="550" type="curve" smooth="yes"/>
			<point x="222" y="415" type="line"/>
			<point x="143" y="415" type="line"/>
			<point x="143" y="730" type="line"/>
			<point x="60" y="730" type="line"/>
			<point x="60" y="0" type="line"/>
			<point x="143" y="0" type="line"/>
			<point x="143" y="335" type="line"/>
			<point x="222" y="335" type="line"/>
			<point x="222" y="180" type="line" smooth="yes"/>
			<point x="222" y="63"/>
			<point x="286" y="-10"/>
		</contour>
		<contour>
			<point x="389" y="68" type="curve" smooth="yes"/>
			<point x="332" y="68"/>
			<point x="301" y="108"/>
			<point x="301" y="180" type="curve" smooth="yes"/>
			<point x="301" y="550" type="line" smooth="yes"/>
			<point x="301" y="622"/>
			<point x="332" y="662"/>
			<point x="389" y="662" type="curve" smooth="yes"/>
			<point x="446" y="662"/>
			<point x="477" y="622"/>
			<point x="477" y="550" type="curve" smooth="yes"/>
			<point x="477" y="180" type="line" smooth="yes"/>
			<point x="477" y="108"/>
			<point x="446" y="68"/>
		</contour>
	</outline>
</glyph>
<glyph name="uni042F" format="2">
	<advance width="600"/>
	<unicode hex="042F"/>
	<outline>
		<contour>
			<point x="206" y="320" type="curve"/>
			<point x="56" y="0" type="line"/>
			<point x="160" y="0" type="line"/>
			<point x="299" y="310" type="line"/>
			<point x="415" y="310" type="line"/>
			<point x="415" y="0" type="line"/>
			<point x="505" y="0" type="line"/>
			<point x="505" y="730" type="line"/>
			<point x="281" y="730" type="line" smooth="yes"/>
			<point x="151" y="730"/>
			<point x="64" y="645"/>
			<point x="64" y="520" type="curve" smooth="yes"/>
			<point x="64" y="421"/>
			<point x="118" y="347"/>
		</contour>
		<contour>
			<point x="281" y="390" type="line"/>
			<point x="206" y="390"/>
			<point x="157" y="442"/>
			<point x="157" y="520" type="curve" smooth="yes"/>
			<point x="157" y="598"/>
			<point x="207" y="650"/>
			<point x="281" y="650" type="curve" smooth="yes"/>
			<point x="415" y="650" type="line"/>
			<point x="415" y="390" type="line"/>
		</contour>
	</outline>
</glyph>
<glyph name="uni0431" format="2">
	<advance width="600"/>
	<unicode hex="0431"/>
	<outline>
		<contour>
			<point x="300" y="-10" type="curve" smooth="yes"/>
			<point x="431" y="-10"/>
			<point x="510" y="71"/>
			<point x="510" y="205" type="curve" smooth="yes"/>
			<point x="510" y="285" type="line" smooth="yes"/>
			<point x="510" y="416"/>
			<point x="442" y="495"/>
			<point x="326" y="495" type="curve" smooth="yes"/>
			<point x="236" y="495"/>
			<point x="181" y="449"/>
			<point x="180" y="370" type="curve"/>
			<point x="194" y="390" type="line"/>
			<point x="180" y="390" type="line"/>
			<point x="180" y="455" type="line" smooth="yes"/>
			<point x="180" y="575"/>
			<point x="237" y="640"/>
			<point x="345" y="640" type="curve" smooth="yes"/>
			<point x="485" y="640" type="line"/>
			<point x="485" y="730" type="line"/>
			<point x="345" y="730" type="line" smooth="yes"/>
			<point x="181" y="730"/>
			<point x="90" y="631"/>
			<point x="90" y="455" type="curve" smooth="yes"/>
			<point x="90" y="205" type="line" smooth="yes"/>
			<point x="90" y="72"/>
			<point x="170" y="-10"/>
		</contour>
		<contour>
			<point x="300" y="70" type="curve" smooth="yes"/>
			<point x="223" y="70"/>
			<point x="180" y="118"/>
			<point x="180" y="205" type="curve" smooth="yes"/>
			<point x="180" y="285" type="line" smooth="yes"/>
			<point x="180" y="373"/>
			<point x="222" y="420"/>
			<point x="300" y="420" type="curve" smooth="yes"/>
			<point x="377" y="420"/>
			<point x="420" y="372"/>
			<point x="420" y="285" type="curve" smooth="yes"/>
			<point x="420" y="205" type="line" smooth="yes"/>
			<point x="420" y="118"/>
			<point x="377" y="70"/>
		</contour>
	</outline>
</glyph>
<glyph name="uni0432" format="2">
	<advance width="600"/>
	<unicode hex="0432"/>
	<outline>
		<contour>
			<point x="94" y="0" type="line"/>
			<point x="335" y="0" type="line" smooth="yes"/>
			<point x="455" y="0"/>
			<point x="525" y="58"/>
			<point x="525" y="157" type="curve" smooth="yes"/>
			<point x="525" y="235"/>
			<point x="463" y="286"/>
			<point x="370" y="286" type="curve"/>
			<point x="370" y="278" type="line"/>
			<point x="455" y="278"/>
			<point x="512" y="328"/>
			<point x="512" y="404" type="curve" smooth="yes"/>
			<point x="512" y="496"/>
			<point x="446" y="550"/>
			<point x="332" y="550" type="curve" smooth="yes"/>
			<point x="94" y="550" type="line"/>
		</contour>
		<contour>
			<point x="335" y="79" type="curve" smooth="yes"/>
			<point x="182" y="79" type="line"/>
			<point x="182" y="240" type="line"/>
			<point x="335" y="240" type="line" smooth="yes"/>
			<point x="399" y="240"/>
			<point x="436" y="211"/>
			<point x="436" y="159" type="curve" smooth="yes"/>
			<point x="436" y="108"/>
			<point x="399" y="79"/>
		</contour>
		<contour>
			<point x="332" y="318" type="curve" smooth="yes"/>
			<point x="182" y="318" type="line"/>
			<point x="182" y="471" type="line"/>
			<point x="332" y="471" type="line" smooth="yes"/>
			<point x="389" y="471"/>
			<point x="423" y="442"/>
			<point x="423" y="394" type="curve" smooth="yes"/>
			<point x="423" y="346"/>
			<point x="388" y="318"/>
		</contour>
	</outline>
</glyph>
<glyph name="uni0433" format="2">
	<advance width="600"/>
	<unicode hex="0433"/>
	<outline>
		<contour>
			<point x="130" y="0" type="line"/>
			<point x="220" y="0" type="line"/>
			<point x="220" y="468" type="line"/>
			<point x="525" y="468" type="line"/>
			<point x="525" y="550" type="line"/>
			<point x="130" y="550" type="line"/>
		</contour>
	</outline>
</glyph>
<glyph name="uni0434" format="2">
	<advance width="600"/>
	<unicode hex="0434"/>
	<outline>
		<contour>
			<point x="30" y="-140" type="line"/>
			<point x="110" y="-140" type="line"/>
			<point x="110" y="0" type="line"/>
			<point x="485" y="0" type="line"/>
			<point x="485" y="-140" type="line"/>
			<point x="565" y="-140" type="line"/>
			<point x="565" y="77" type="line"/>
			<point x="495" y="77" type="line"/>
			<point x="495" y="550" type="line"/>
			<point x="136" y="550" type="line"/>
			<point x="130" y="271" type="line" smooth="yes"/>
			<point x="127" y="130"/>
			<point x="75" y="77"/>
			<point x="75" y="77" type="curve"/>
			<point x="30" y="77" type="line"/>
		</contour>
		<contour>
			<point x="170" y="77" type="line"/>
			<point x="170" y="77"/>
			<point x="214" y="124"/>
			<point x="217" y="269" type="curve" smooth="yes"/>
			<point x="221" y="470" type="line"/>
			<point x="405" y="470" type="line"/>
			<point x="405" y="77" type="line"/>
		</contour>
	</outline>
</glyph>
<glyph name="uni0436" format="2">
	<advance width="600"/>
	<unicode hex="0436"/>
	<outline>
		<contour>
			<point x="18" y="0" type="line"/>
			<point x="107" y="0" type="line"/>
			<point x="208" y="250" type="line"/>
			<point x="262" y="250" type="line"/>
			<point x="262" y="0" type="line"/>
			<point x="338" y="0" type="line"/>
			<point x="338" y="250" type="line"/>
			<point x="392" y="250" type="line"/>
			<point x="492" y="0" type="line"/>
			<point x="582" y="0" type="line"/>
			<point x="462" y="285" type="line"/>
			<point x="574" y="550" type="line"/>
			<point x="488" y="550" type="line"/>
			<point x="389" y="310" type="line"/>
			<point x="338" y="310" type="line"/>
			<point x="338" y="550" type="line"/>
			<point x="262" y="550" type="line"/>
			<point x="262" y="310" type="line"/>
			<point x="209" y="310" type="line"/>
			<point x="113" y="550" type="line"/>
			<point x="26" y="550" type="line"/>
			<point x="138" y="282" type="line"/>
		</contour>
	</outline>
</glyph>
<glyph name="uni0437" format="2">
	<advance width="600"/>
	<unicode hex="0437"/>
	<outline>
		<contour>
			<point x="274" y="-7" type="curve" smooth="yes"/>
			<point x="321" y="-7" type="line" smooth="yes"/>
			<point x="442" y="-7"/>
			<point x="520" y="54"/>
			<point x="520" y="152" type="curve" smooth="yes"/>
			<point x="520" y="234"/>
			<point x="479" y="278"/>
			<point x="385" y="285" type="curve"/>
			<point x="385" y="289" type="line"/>
			<point x="462" y="294"/>
			<point x="507" y="339"/>
			<point x="507" y="405" type="curve" smooth="yes"/>
			<point x="507" y="499"/>
			<point x="437" y="557"/>
			<point x="319" y="557" type="curve" smooth="yes"/>
			<point x="269" y="557" type="line" smooth="yes"/>
			<point x="163" y="557"/>
			<point x="83" y="498"/>
			<point x="70" y="415" type="curve"/>
			<point x="165" y="415" type="line"/>
			<point x="173" y="450"/>
			<point x="215" y="477"/>
			<point x="269" y="477" type="curve" smooth="yes"/>
			<point x="319" y="477" type="line" smooth="yes"/>
			<point x="379" y="477"/>
			<point x="412" y="449"/>
			<point x="412" y="400" type="curve" smooth="yes"/>
			<point x="412" y="352"/>
			<point x="379" y="320"/>
			<point x="318" y="320" type="curve" smooth="yes"/>
			<point x="200" y="320" type="line"/>
			<point x="200" y="242" type="line"/>
			<point x="321" y="242" type="line" smooth="yes"/>
			<point x="389" y="242"/>
			<point x="425" y="209"/>
			<point x="425" y="156" type="curve" smooth="yes"/>
			<point x="425" y="107"/>
			<point x="386" y="73"/>
			<point x="321" y="73" type="curve" smooth="yes"/>
			<point x="274" y="73" type="line" smooth="yes"/>
			<point x="212" y="73"/>
			<point x="169" y="96"/>
			<point x="160" y="130" type="curve"/>
			<point x="65" y="130" type="line"/>
			<point x="79" y="46"/>
			<point x="158" y="-7"/>
		</contour>
	</outline>
</glyph>
<glyph name="uni0438" format="2">
	<advance width="600"/>
	<unicode hex="0438"/>
	<outline>
		<contour>
			<point x="94" y="0" type="line"/>
			<point x="209" y="0" type="line"/>
			<point x="431" y="471" type="line"/>
			<point x="431" y="471"/>
			<point x="420" y="380"/>
			<point x="420" y="300" type="curve" smooth="yes"/>
			<point x="420" y="0" type="line"/>
			<point x="506" y="0" type="line"/>
			<point x="506" y="550" type="line"/>
			<point x="391" y="550" type="line"/>
			<point x="169" y="80" type="line"/>
			<point x="169" y="80"/>
			<point x="180" y="170"/>
			<point x="180" y="250" type="curve" smooth="yes"/>
			<point x="180" y="550" type="line"/>
			<point x="94" y="550" type="line"/>
		</contour>
	</outline>
</glyph>
<glyph name="uni043B" format="2">
	<advance width="600"/>
	<unicode hex="043B"/>
	<outline>
		<contour>
			<point x="25" y="-5" type="line"/>
			<point x="48" y="-5" type="line" smooth="yes"/>
			<point x="165" y="-5"/>
			<point x="213" y="65"/>
			<point x="217" y="240" type="curve" smooth="yes"/>
			<point x="222" y="468" type="line"/>
			<point x="416" y="468" type="line"/>
			<point x="416" y="0" type="line"/>
			<point x="506" y="0" type="line"/>
			<point x="506" y="550" type="line"/>
			<point x="133" y="550" type="line"/>
			<point x="127" y="244" type="line" smooth="yes"/>
			<point x="125" y="120"/>
			<point x="104" y="79"/>
			<point x="43" y="79" type="curve" smooth="yes"/>
			<point x="25" y="79" type="line"/>
		</contour>
	</outline>
</glyph>
